<?xml version="1.0" encoding="utf-8"?>
<!-- Generator: Adobe Illustrator 17.0.0, SVG Export Plug-In . SVG Version: 6.00 Build 0)  -->
<!DOCTYPE svg PUBLIC "-//W3C//DTD SVG 1.1//EN" "http://www.w3.org/Graphics/SVG/1.1/DTD/svg11.dtd">
<svg version="1.1" id="Camada_1" xmlns="http://www.w3.org/2000/svg" xmlns:xlink="http://www.w3.org/1999/xlink" x="0px" y="0px"
	viewBox="177.273 0 72.727 50" enable-background="new 177.273 0 72.727 50" xml:space="preserve">
<path fill="#C65C0C" d="M250,46.97c0,1.673-1.357,3.03-3.03,3.03h-66.667c-1.673,0-3.03-1.357-3.03-3.03V5.303
	c0-1.673,1.357-3.03,3.03-3.03h66.667c1.673,0,3.03,1.357,3.03,3.03V46.97z"/>
<path fill="#EE7203" d="M250,44.697c0,1.673-1.357,3.03-3.03,3.03h-66.667c-1.673,0-3.03-1.357-3.03-3.03V3.03
	c0-1.673,1.357-3.03,3.03-3.03h66.667c1.673,0,3.03,1.357,3.03,3.03V44.697z"/>
<g>
	<path fill="#FFED00" d="M205.671,16.512c0,0.772-0.568,1.395-1.505,1.395c-0.877,0-1.449-0.624-1.449-1.395
		c0-0.791,0.591-1.394,1.487-1.394C205.103,15.118,205.655,15.722,205.671,16.512"/>
	<path fill="#FFFFFF" d="M228.988,18.948c-4.418,0-6.421,3.564-6.421,6.787c0,3.981,2.469,6.511,6.788,6.511
		c1.718,0,3.309-0.292,4.604-0.812l-0.52-2.678c-1.137,0.356-2.323,0.531-3.515,0.518c-1.842,0-3.453-0.784-3.591-2.42h8.199
		c0.048-0.29,0.126-0.885,0.126-1.562C234.662,22.147,233.1,18.948,228.988,18.948L228.988,18.948z M226.31,24.153
		c0.107-1.065,0.788-2.577,2.447-2.577c1.82,0,2.244,1.611,2.244,2.577H226.31L226.31,24.153z M243.071,18.948
		c-1.224,0-2.785,0.774-3.437,2.627h-0.105l-0.13-2.305h-3.402c0.046,1.093,0.098,2.277,0.098,4.152v8.532h3.956v-6.455
		c0-0.31,0.026-0.618,0.077-0.879c0.259-1.22,1.251-2.004,2.707-2.004c0.445,0,0.784,0.046,1.065,0.125v-3.743
		C243.618,18.948,243.434,18.948,243.071,18.948L243.071,18.948z M216.316,19.003c-1.842,0-3.296,0.692-4.23,2.05h-0.056
		l-0.185-1.786h-3.43c0.046,1.169,0.105,2.617,0.105,4.283v5.659c-1.533-0.166-2.421-1.529-2.421-3.55v-6.392h-4.003v6.206
		c0,4.512,2.353,6.7,6.423,6.812v4.871h3.952v-4.862h2.373c4.274,0,6.755-2.184,6.755-6.821
		C221.601,21.421,219.109,19.003,216.316,19.003z M214.866,29.249l-2.393-0.018v-4.428c0-0.231,0.026-0.498,0.078-0.705
		c0.258-1.169,1.247-2.005,2.367-2.005c1.776,0,2.681,1.542,2.681,3.57C217.596,27.817,216.577,29.249,214.866,29.249z
		 M195.969,21.076h-6.581v-6.795h-4.014v17.673h4.014v-7.392h6.581v7.392h3.979V14.282h-3.979V21.076z"/>
</g>
</svg>
