<?xml version="1.0" encoding="utf-8"?>
<!-- Generator: Adobe Illustrator 17.0.0, SVG Export Plug-In . SVG Version: 6.00 Build 0)  -->
<!DOCTYPE svg PUBLIC "-//W3C//DTD SVG 1.1//EN" "http://www.w3.org/Graphics/SVG/1.1/DTD/svg11.dtd">
<svg version="1.1" id="Camada_1" xmlns="http://www.w3.org/2000/svg" xmlns:xlink="http://www.w3.org/1999/xlink" x="0px" y="0px"
	 viewBox="177.21 0 72.79 50" enable-background="new 177.21 0 72.79 50" xml:space="preserve">
<path d="M249.937,46.97c0,1.673-1.357,3.03-3.03,3.03H180.24c-1.673,0-3.03-1.357-3.03-3.03V5.303c0-1.673,1.357-3.03,3.03-3.03
	h66.667c1.673,0,3.03,1.357,3.03,3.03V46.97z"/>
<path fill="#313588" d="M250,44.697c0,1.673-1.357,3.03-3.03,3.03h-66.667c-1.673,0-3.03-1.357-3.03-3.03V3.03
	c0-1.673,1.357-3.03,3.03-3.03h66.667c1.673,0,3.03,1.357,3.03,3.03L250,44.697L250,44.697z"/>
<line id="line2997" fill="none" x1="206.54" y1="31.856" x2="208.32" y2="29.009"/>
<path fill-rule="evenodd" clip-rule="evenodd" fill="#FFF02D" d="M180.303,47.727c16.826-0.074,64.761,0.329,67.193-0.049
	c0.943-0.146,2.491-0.772,2.496-2.756c0.014-5.403-0.055-15.177-0.055-15.177c-13.105-4.169-36.401-10.415-72.664-1.565
	c0,0,0,12.405,0,16.517C177.273,46.209,178.543,47.735,180.303,47.727z"/>
<path fill-rule="evenodd" clip-rule="evenodd" fill="#CB2128" d="M249.927,30.745c-13.103-4.169-36.396-10.415-72.654-1.565v-6.651
	c36.056-9.457,63.961-1.868,72.733,1.303L249.927,30.745z"/>
<path fill-rule="evenodd" clip-rule="evenodd" fill="#FFF02D" d="M201.068,18.475c1.71-4.723,5.62-8.801,12.415-8.75
	c6.795,0.051,11.329,3.92,12.554,9C217.277,17.813,211.441,17.655,201.068,18.475z"/>
<path fill="#313588" stroke="#313588" stroke-width="0.216" stroke-miterlimit="22.9256" d="M194.498,39.241l4.626-6.891h1.716
	l4.928,6.891h-1.817l-1.405-2.087h-5.035l-1.321,2.087H194.498L194.498,39.241z M197.971,36.411h4.085l-1.259-1.908
	c-0.381-0.579-0.667-1.056-0.852-1.429c-0.154,0.443-0.37,0.881-0.65,1.317L197.971,36.411L197.971,36.411z M213.855,39.241v-0.733
	c-0.681,0.565-1.604,0.846-2.77,0.846c-0.513,0-0.995-0.056-1.441-0.168c-0.446-0.112-0.777-0.255-0.993-0.425
	c-0.218-0.172-0.37-0.38-0.457-0.627c-0.059-0.167-0.09-0.43-0.09-0.791V34.25h1.477v2.768c0,0.443,0.031,0.74,0.09,0.894
	c0.095,0.223,0.291,0.396,0.591,0.525c0.303,0.127,0.676,0.189,1.119,0.189c0.443,0,0.858-0.064,1.247-0.194
	c0.39-0.13,0.664-0.308,0.824-0.531c0.162-0.225,0.244-0.55,0.244-0.975V34.25h1.477v4.991H213.855L213.855,39.241z M218.764,39.241
	V34.25h1.329v0.756c0.339-0.353,0.653-0.587,0.942-0.7c0.286-0.112,0.603-0.17,0.948-0.17c0.499,0,1.004,0.092,1.519,0.273
	l-0.51,0.786c-0.359-0.124-0.72-0.184-1.082-0.184c-0.325,0-0.614,0.056-0.872,0.167c-0.258,0.112-0.44,0.266-0.549,0.464
	c-0.166,0.3-0.247,0.629-0.247,0.987v2.614H218.764L218.764,39.241z M231.359,38.625c-0.55,0.266-1.077,0.454-1.581,0.565
	c-0.507,0.109-1.051,0.164-1.632,0.164c-0.959,0-1.693-0.133-2.209-0.401c-0.513-0.268-0.771-0.611-0.771-1.027
	c0-0.245,0.095-0.469,0.292-0.671c0.193-0.202,0.448-0.364,0.762-0.486c0.317-0.122,0.67-0.215,1.065-0.278
	c0.289-0.043,0.726-0.087,1.312-0.127c1.194-0.082,2.074-0.178,2.638-0.292c0.006-0.115,0.008-0.189,0.008-0.22
	c0-0.345-0.14-0.589-0.421-0.728c-0.376-0.193-0.939-0.287-1.682-0.287c-0.695,0-1.208,0.069-1.542,0.209
	c-0.331,0.14-0.575,0.387-0.735,0.741l-1.444-0.114c0.132-0.353,0.348-0.64,0.648-0.857c0.3-0.218,0.737-0.387,1.306-0.504
	c0.569-0.117,1.228-0.176,1.979-0.176c0.746,0,1.349,0.051,1.814,0.151c0.466,0.101,0.807,0.226,1.029,0.379
	c0.219,0.153,0.37,0.343,0.46,0.576c0.048,0.144,0.073,0.404,0.073,0.78v1.128c0,0.788,0.031,1.285,0.095,1.492
	c0.062,0.209,0.188,0.409,0.373,0.6h-1.545C231.502,39.066,231.401,38.861,231.359,38.625L231.359,38.625z M231.236,36.735
	c-0.538,0.127-1.343,0.233-2.414,0.321c-0.608,0.05-1.04,0.106-1.289,0.168c-0.252,0.063-0.449,0.154-0.583,0.276
	c-0.137,0.12-0.207,0.254-0.207,0.401c0,0.226,0.151,0.414,0.448,0.565c0.297,0.149,0.735,0.225,1.309,0.225
	c0.569,0,1.077-0.071,1.52-0.213c0.443-0.143,0.771-0.338,0.978-0.586c0.16-0.191,0.238-0.473,0.238-0.845V36.735z"/>
</svg>
