<svg id="Layer_1" xmlns="http://www.w3.org/2000/svg" viewBox="0 0 96 66"><style>.st0{fill:#000c1e}.st1{fill:#022169}.st2{fill:#fff}</style><path class="st0" d="M96 62a4 4 0 0 1-4 4H4a4 4 0 0 1-4-4V7a4 4 0 0 1 4-4h88a4 4 0 0 1 4 4v55z"/><path class="st1" d="M96 59a4 4 0 0 1-4 4H4a4 4 0 0 1-4-4V4a4 4 0 0 1 4-4h88a4 4 0 0 1 4 4v55z"/><path class="st2" d="M39.203 20.112l-9.567 22.836H23.39l-4.71-18.227c-.286-1.12-.535-1.533-1.403-2.007-1.424-.77-3.768-1.491-5.829-1.942l.139-.66H21.64c1.279 0 2.431.852 2.724 2.325l2.489 13.212 6.146-15.537h6.204zm24.468 15.38c.026-6.027-8.332-6.365-8.276-9.052.02-.821.801-1.691 2.504-1.915.847-.11 3.185-.194 5.828 1.024l1.036-4.846c-1.422-.511-3.252-1.008-5.526-1.008-5.84 0-9.948 3.101-9.98 7.548-.036 3.285 2.934 5.12 5.167 6.212 2.306 1.12 3.075 1.839 3.066 2.84-.015 1.53-1.839 2.209-3.533 2.237-2.974.045-4.693-.804-6.068-1.445l-1.07 5.003c1.382.635 3.927 1.186 6.567 1.216 6.204-.001 10.262-3.07 10.285-7.814m15.421 7.456h5.46L79.78 20.112h-5.039a2.691 2.691 0 0 0-2.515 1.674l-8.86 21.162h6.199l1.233-3.412h7.577l.717 3.412zm-6.596-8.093l3.11-8.575 1.793 8.575h-4.903zM47.647 20.112L42.76 42.948h-5.905l4.881-22.836h5.911z"/></svg>