<?xml version="1.0" encoding="utf-8"?>
<!-- Generator: Adobe Illustrator 17.0.0, SVG Export Plug-In . SVG Version: 6.00 Build 0)  -->
<!DOCTYPE svg PUBLIC "-//W3C//DTD SVG 1.1//EN" "http://www.w3.org/Graphics/SVG/1.1/DTD/svg11.dtd">
<svg version="1.1" id="Camada_1" xmlns="http://www.w3.org/2000/svg" xmlns:xlink="http://www.w3.org/1999/xlink" x="0px" y="0px"
	 viewBox="177.178 0 72.821 50" enable-background="new 177.178 0 72.821 50" xml:space="preserve">
<path d="M249.905,46.97c0,1.673-1.357,3.03-3.03,3.03h-66.667c-1.673,0-3.03-1.357-3.03-3.03V5.303c0-1.673,1.357-3.03,3.03-3.03
	h66.667c1.673,0,3.03,1.357,3.03,3.03V46.97z"/>
<path fill="#E6E6E7" d="M249.968,44.697c0,1.673-1.357,3.03-3.03,3.03h-66.667c-1.673,0-3.03-1.357-3.03-3.03V3.03
	c0-1.673,1.357-3.03,3.03-3.03h66.667c1.673,0,3.03,1.357,3.03,3.03L249.968,44.697L249.968,44.697z"/>
<line id="line2997" fill="none" x1="206.508" y1="31.856" x2="208.288" y2="29.009"/>
<g>
	<path fill="#E73731" d="M242.969,45.274"/>
	
		<radialGradient id="SVGID_1_" cx="1702.1566" cy="-61.0444" r="21.0659" gradientTransform="matrix(0.255 0 0 0.255 -218.6331 37.302)" gradientUnits="userSpaceOnUse">
		<stop  offset="0.0056" style="stop-color:#FFEEE1"/>
		<stop  offset="0.1096" style="stop-color:#FDE8D7"/>
		<stop  offset="0.2793" style="stop-color:#FCDBC0"/>
		<stop  offset="0.4935" style="stop-color:#FBC698"/>
		<stop  offset="0.744" style="stop-color:#F8A561"/>
		<stop  offset="1" style="stop-color:#F48220"/>
	</radialGradient>
	<path fill="url(#SVGID_1_)" d="M215.428,16.42c-3.012,0-5.436,2.355-5.436,5.232c0,3.08,2.333,5.368,5.436,5.368
		c3.035,0,5.413-2.333,5.413-5.322C220.841,18.753,218.463,16.42,215.428,16.42z"/>
	<path fill="#081A23" d="M184.558,16.624h-2.922v10.192h2.899c1.54,0,2.65-0.362,3.646-1.178c1.155-0.974,1.857-2.423,1.857-3.918
		C190.017,18.707,187.774,16.624,184.558,16.624z M186.869,24.279c-0.634,0.566-1.427,0.815-2.718,0.815h-0.521v-6.749h0.544
		c1.291,0,2.061,0.226,2.718,0.815c0.679,0.612,1.087,1.563,1.087,2.537C187.978,22.694,187.571,23.667,186.869,24.279z"/>
	<rect x="190.945" y="16.624" fill="#081A23" width="1.993" height="10.192"/>
	<path fill="#081A23" d="M197.785,20.519c-1.2-0.453-1.54-0.725-1.54-1.291c0-0.634,0.634-1.132,1.472-1.132
		c0.589,0,1.087,0.249,1.608,0.815l1.042-1.359c-0.861-0.747-1.88-1.132-2.99-1.132c-1.812,0-3.171,1.246-3.171,2.922
		c0,1.404,0.634,2.129,2.514,2.808c0.77,0.272,1.178,0.453,1.382,0.589c0.408,0.249,0.589,0.634,0.589,1.064
		c0,0.838-0.657,1.427-1.54,1.427c-0.951,0-1.721-0.476-2.174-1.359l-1.291,1.246c0.906,1.336,2.016,1.948,3.533,1.948
		c2.061,0,3.511-1.382,3.511-3.352C200.729,22.082,200.05,21.357,197.785,20.519z"/>
	<path fill="#081A23" d="M201.364,21.72c0,2.99,2.355,5.322,5.39,5.322c0.861,0,1.585-0.159,2.491-0.589V24.12
		c-0.793,0.793-1.495,1.11-2.401,1.11c-1.993,0-3.42-1.449-3.42-3.511c0-1.948,1.472-3.511,3.329-3.511
		c0.951,0,1.676,0.34,2.491,1.155v-2.333c-0.861-0.453-1.585-0.634-2.446-0.634C203.764,16.397,201.364,18.753,201.364,21.72z"/>
	<polygon fill="#081A23" points="225.348,23.464 222.63,16.624 220.456,16.624 224.782,27.065 225.846,27.065 230.263,16.624 
		228.111,16.624 	"/>
	<polygon fill="#081A23" points="231.169,26.816 236.808,26.816 236.808,25.094 233.162,25.094 233.162,22.331 236.672,22.331 
		236.672,20.61 233.162,20.61 233.162,18.345 236.808,18.345 236.808,16.624 231.169,16.624 	"/>
	<path fill="#081A23" d="M244.69,19.636c0-1.902-1.314-3.012-3.601-3.012h-2.944v10.192h1.993v-4.099h0.249l2.74,4.099h2.446
		l-3.216-4.303C243.852,22.218,244.69,21.199,244.69,19.636z M240.681,21.312h-0.589v-3.08h0.611c1.246,0,1.925,0.521,1.925,1.517
		C242.629,20.768,241.972,21.312,240.681,21.312z"/>
	<path fill="#231F20" d="M199.461,29.488l2.65,2.786v-2.65h0.385v3.556l-2.65-2.786v2.627h-0.385V29.488L199.461,29.488z"/>
	<path fill="#231F20" d="M199.416,29.488v3.601h0.453c0,0,0-2.401,0-2.582c0.113,0.113,2.65,2.786,2.65,2.786v-3.692h-0.453
		c0,0,0,2.423,0,2.582c-0.113-0.113-2.65-2.786-2.65-2.786V29.488z M199.484,29.579c0.113,0.113,2.673,2.786,2.673,2.786
		s0-2.627,0-2.695c0.045,0,0.249,0,0.317,0c0,0.068,0,3.284,0,3.443c-0.113-0.113-2.65-2.786-2.65-2.786s0,2.605,0,2.673
		c-0.045,0-0.249,0-0.317,0C199.484,32.953,199.484,29.76,199.484,29.579z"/>
	<path fill="#231F20" d="M204.33,29.647h1.767v0.362h-1.382v1.019h1.359v0.362h-1.359v1.336h1.382v0.362h-1.767V29.647z"/>
	<path fill="#231F20" d="M206.097,29.601h-1.812v3.488h1.835v-0.43c0,0-1.314,0-1.382,0c0-0.068,0-1.2,0-1.268
		c0.068,0,1.336,0,1.336,0v-0.43c0,0-1.291,0-1.336,0c0-0.068,0-0.883,0-0.951c0.068,0,1.382,0,1.382,0v-0.43h-0.023V29.601z
		 M206.074,29.669c0,0.045,0,0.226,0,0.272c-0.068,0-1.382,0-1.382,0v1.087c0,0,1.291,0,1.359,0c0,0.045,0,0.226,0,0.272
		c-0.068,0-1.359,0-1.359,0v1.404c0,0,1.314,0,1.382,0c0,0.045,0,0.226,0,0.272c-0.068,0-1.631,0-1.699,0c0-0.068,0-3.261,0-3.352
		C204.444,29.669,206.006,29.669,206.074,29.669z"/>
	<path fill="#231F20" d="M208.792,33.044h-0.385v-3.058h-0.815v-0.362h2.038v0.362h-0.838V33.044z"/>
	<path fill="#231F20" d="M209.63,29.601h-2.084v0.43c0,0,0.77,0,0.815,0c0,0.068,0,3.058,0,3.058h0.453c0,0,0-2.99,0-3.058
		c0.068,0,0.838,0,0.838,0v-0.43H209.63z M209.585,29.669c0,0.045,0,0.226,0,0.272c-0.068,0-0.838,0-0.838,0s0,2.99,0,3.058
		c-0.045,0-0.249,0-0.317,0c0-0.068,0-3.058,0-3.058s-0.77,0-0.815,0c0-0.045,0-0.226,0-0.272
		C207.682,29.669,209.517,29.669,209.585,29.669z"/>
	<path fill="#231F20" d="M212.167,32.206l1.11-2.74l1.11,2.74l0.906-2.559h0.408l-1.314,3.578l-1.11-2.74l-1.11,2.74l-1.314-3.578
		h0.408L212.167,32.206z"/>
	<path fill="#231F20" d="M213.231,29.443c0,0-0.997,2.491-1.064,2.65c-0.068-0.159-0.883-2.491-0.883-2.491h-0.476l1.359,3.714
		c0,0,1.042-2.605,1.11-2.763c0.068,0.159,1.11,2.763,1.11,2.763l1.359-3.714h-0.498c0,0-0.815,2.333-0.883,2.491
		c-0.068-0.159-1.11-2.718-1.11-2.718L213.231,29.443z M212.189,32.206c0,0,1.019-2.491,1.064-2.65c0.068,0.159,1.11,2.74,1.11,2.74
		s0.906-2.582,0.929-2.627c0.045,0,0.272,0,0.34,0c-0.023,0.091-1.2,3.284-1.268,3.465c-0.068-0.159-1.11-2.74-1.11-2.74
		s-1.042,2.582-1.11,2.74c-0.068-0.159-1.223-3.375-1.268-3.465c0.068,0,0.294,0,0.34,0c0.023,0.045,0.929,2.627,0.929,2.627
		L212.189,32.206z"/>
	<path fill="#231F20" d="M220.592,31.345c0,0.974-0.815,1.767-1.789,1.767c-0.974,0-1.789-0.77-1.789-1.767
		c0-0.974,0.815-1.767,1.789-1.767C219.799,29.579,220.592,30.371,220.592,31.345z M217.421,31.345c0,0.77,0.634,1.404,1.404,1.404
		c0.77,0,1.404-0.634,1.404-1.404c0-0.77-0.611-1.404-1.404-1.404S217.421,30.575,217.421,31.345z"/>
	<path fill="#231F20" d="M217.014,31.345c0,0.997,0.815,1.789,1.812,1.789c0.997,0,1.812-0.815,1.812-1.789
		c0-0.997-0.815-1.812-1.812-1.812C217.829,29.556,217.014,30.349,217.014,31.345z M217.082,31.345c0-0.951,0.793-1.721,1.744-1.721
		s1.744,0.77,1.744,1.721c0,0.951-0.793,1.721-1.744,1.721C217.852,33.067,217.082,32.296,217.082,31.345z"/>
	<path fill="#231F20" d="M217.376,31.345c0,0.793,0.634,1.449,1.427,1.449c0.793,0,1.427-0.657,1.427-1.449
		s-0.634-1.449-1.427-1.449C218.033,29.896,217.376,30.553,217.376,31.345z M217.467,31.345c0-0.747,0.612-1.382,1.359-1.382
		c0.747,0,1.359,0.612,1.359,1.382c0,0.747-0.612,1.382-1.359,1.382C218.078,32.727,217.467,32.115,217.467,31.345z"/>
	<path fill="#231F20" d="M222.63,33.044h-0.385v-3.42h0.498c0.657,0,1.246,0.181,1.246,0.951c0,0.521-0.317,0.906-0.861,0.951
		l1.087,1.54h-0.476l-1.019-1.495h-0.091V33.044z M222.63,31.209h0.113c0.43,0,0.861-0.091,0.861-0.612
		c0-0.566-0.408-0.612-0.861-0.612h-0.113V31.209z"/>
	<path fill="#231F20" d="M222.245,29.601H222.2v3.488h0.453c0,0,0-1.427,0-1.495c0.023,0,0.068,0,0.068,0l0,0
		c0,0.023,0.997,1.472,0.997,1.472l0.498,0.023h0.068c0,0-1.042-1.472-1.087-1.54c0.498-0.068,0.838-0.43,0.838-0.951
		c0-0.657-0.43-0.974-1.291-0.974L222.245,29.601L222.245,29.601z M222.744,29.669c0.815,0,1.223,0.294,1.223,0.906
		c0,0.498-0.317,0.861-0.815,0.906h-0.068c0,0,1.019,1.427,1.087,1.517c-0.091,0-0.408,0-0.408,0l0,0
		c0-0.023-0.997-1.472-0.997-1.472l-0.113-0.023h-0.068c0,0,0,1.427,0,1.495c-0.045,0-0.249,0-0.317,0c0-0.068,0-3.261,0-3.352
		C222.336,29.669,222.744,29.669,222.744,29.669z"/>
	<path fill="#231F20" d="M222.63,29.964h-0.045v1.291h0.159c0.43,0,0.906-0.068,0.906-0.657c0-0.612-0.476-0.657-0.906-0.657h-0.113
		V29.964z M222.744,30.032c0.43,0,0.838,0.045,0.838,0.589c0,0.498-0.408,0.566-0.838,0.566c0,0-0.045,0-0.091,0
		c0-0.068,0-1.087,0-1.155C222.698,30.032,222.744,30.032,222.744,30.032z"/>
	<path fill="#231F20" d="M227.658,29.647h0.521l-1.608,1.585l1.653,1.812h-0.521l-1.404-1.563l-0.091,0.091v1.472h-0.385v-3.42
		h0.385v1.472L227.658,29.647z"/>
	<path fill="#231F20" d="M228.179,29.601h-0.521c0,0-1.291,1.291-1.404,1.404c0-0.159,0-1.404,0-1.404h-0.453v3.488h0.453v-1.495
		c0,0,0.023-0.023,0.045-0.045c0.045,0.045,1.382,1.54,1.382,1.54l0.544,0.023h0.091c0,0-1.653-1.812-1.699-1.857
		c0.045-0.045,1.631-1.631,1.631-1.631L228.179,29.601L228.179,29.601z M228.089,29.669c-0.113,0.113-1.563,1.563-1.563,1.563
		s1.517,1.676,1.631,1.789c-0.113,0-0.453,0-0.453,0l0,0c0-0.023-1.382-1.563-1.382-1.563l-0.023-0.023l-0.113,0.113
		c0,0,0,1.404,0,1.472c-0.045,0-0.249,0-0.317,0c0-0.068,0-3.261,0-3.352c0.045,0,0.249,0,0.317,0c0,0.068,0,1.517,0,1.517
		s1.472-1.495,1.495-1.517C227.704,29.669,227.975,29.669,228.089,29.669z"/>
</g>
</svg>
