<?xml version="1.0" encoding="utf-8"?>
<!-- Generator: Adobe Illustrator 17.0.0, SVG Export Plug-In . SVG Version: 6.00 Build 0)  -->
<!DOCTYPE svg PUBLIC "-//W3C//DTD SVG 1.1//EN" "http://www.w3.org/Graphics/SVG/1.1/DTD/svg11.dtd">
<svg version="1.1" id="Layer_1" xmlns="http://www.w3.org/2000/svg" xmlns:xlink="http://www.w3.org/1999/xlink" x="0px" y="0px"
	 viewBox="88.636 0 72.727 50" enable-background="new 88.636 0 72.727 50" xml:space="preserve">
<path fill="#A8000D" d="M161.364,46.97c0,1.674-1.357,3.03-3.03,3.03H91.667c-1.674,0-3.03-1.357-3.03-3.03V5.303
	c0-1.674,1.357-3.03,3.03-3.03h66.667c1.674,0,3.03,1.357,3.03,3.03V46.97z"/>
<path fill="#EB1C24" d="M161.364,44.697c0,1.674-1.357,3.03-3.03,3.03H91.667c-1.674,0-3.03-1.357-3.03-3.03V3.03
	c0-1.674,1.357-3.03,3.03-3.03h66.667c1.674,0,3.03,1.357,3.03,3.03V44.697z"/>
<path id="hipercard_2_" fill="#FFFFFF" d="M107.056,19.525c0.343-0.252,0.786-1.389,0.281-1.859
	c-0.16-0.152-0.428-0.196-0.802-0.128c-0.347,0.062-0.546,0.182-0.682,0.378c-0.218,0.313-0.415,1.26-0.081,1.609
	C106.101,19.867,106.839,19.684,107.056,19.525z M102.166,17.665c-0.248,1.666-0.515,3.33-0.8,4.99
	c-1.786,0.023-3.608,0.092-5.331-0.041c0.326-1.619,0.559-3.331,0.881-4.949h-1.923c-0.689,4.123-1.315,8.316-2.085,12.356h1.966
	c0.308-2.071,0.596-4.165,1-6.135c1.675-0.042,3.682-0.12,5.29,0.042c-0.331,2.05-0.733,4.025-1.041,6.093h1.965
	c0.63-4.187,1.294-8.337,2.083-12.356h-2.005V17.665z M129.94,21.22c-1.528-0.653-2.728,0.448-3.287,1.484
	c0.126-0.462,0.178-1.002,0.28-1.484h-1.521c-0.374,3.048-0.922,5.912-1.444,8.8h1.724c0.241-1.715,0.346-4.028,0.881-5.668
	c0.429-1.312,1.55-2.43,3.166-1.819C129.763,22.049,129.893,21.678,129.94,21.22z M130.903,27.948
	c-0.158-0.433-0.201-1.151-0.16-1.693c0.088-1.222,0.511-2.71,1.161-3.389c0.898-0.93,2.672-0.773,4.086-0.253
	c0.046-0.502,0.14-0.951,0.203-1.436c-2.321-0.401-4.524-0.153-5.693,1.142c-1.141,1.264-1.892,4.179-1.362,6.01
	c0.621,2.145,3.4,2.261,5.651,1.439c0.1-0.431,0.152-0.912,0.242-1.355C133.801,29.092,131.448,29.439,130.903,27.948z
	 M150.259,21.263c-1.522-0.808-2.791,0.544-3.286,1.351c0.141-0.411,0.15-0.97,0.281-1.394h-1.523
	c-0.399,2.949-0.893,5.884-1.483,8.8h1.763c0.011-1.165,0.227-2.029,0.4-3.173c0.369-2.444,0.911-5.123,3.609-4.315
	C150.108,22.118,150.146,21.649,150.259,21.263z M105.293,21.22c-0.047,0.006-0.044,0.064-0.04,0.124
	c-0.379,3.002-0.894,5.855-1.442,8.676h1.723c0.414-3.018,0.889-5.972,1.481-8.8C107.015,21.22,105.293,21.22,105.293,21.22z
	 M120.442,21.049c-1.244,0.105-2.297,0.481-3.046,1.313c-0.917,1.021-1.66,3.279-1.443,5.334c0.31,2.932,3.768,2.828,6.533,2.117
	c0.047-0.515,0.165-0.955,0.24-1.437c-1.138,0.447-3.115,1.074-4.288,0.295c-0.884-0.59-0.89-2.087-0.602-3.386
	c1.883-0.058,3.768-0.058,5.651,0c0.117-0.922,0.455-1.928,0.16-2.84C123.259,21.242,121.862,20.935,120.442,21.049z
	 M122.086,24.269h-4.048c0.127-0.984,0.965-2.066,2.285-2.119C121.564,22.101,122.453,22.63,122.086,24.269z M113.91,21.22
	c-1.46-0.579-3.236,0.11-4.007,0.768c0.003,0.029-0.019,0.034-0.042,0.037c0.013-0.014,0.027-0.026,0.042-0.037l-0.001-0.005
	c0.014-0.283,0.108-0.482,0.119-0.762h-1.48c-0.62,4.343-1.351,8.562-2.124,12.74h1.723c0.249-1.626,0.414-3.346,0.76-4.869
	c0.394,1.603,2.965,1.298,4.046,0.677C115.186,28.493,116.912,22.41,113.91,21.22z M112.548,28.375
	c-0.923,1.031-3.19,1.014-3.367-0.721c-0.079-0.758,0.188-1.548,0.32-2.329c0.135-0.793,0.23-1.548,0.361-2.245
	c0.909-1.174,3.579-1.312,3.847,0.639C113.944,25.409,113.31,27.52,112.548,28.375z M156.672,17.406
	c-0.139,1.322-0.339,2.636-0.602,3.939c-4.226-1.412-6.819,1.871-6.772,5.929c0.011,0.787,0.138,1.562,0.601,2.116
	c0.8,0.954,3.093,1.185,4.249,0.379c0.224-0.156,0.453-0.436,0.602-0.634c0.111-0.148,0.288-0.536,0.32-0.424
	c-0.058,0.43-0.151,0.827-0.159,1.308h1.563c0.299-4.561,1.232-8.459,1.923-12.615h-1.723V17.406z M152.824,29.051
	c-1.161,0.023-1.737-0.731-1.762-1.991c-0.046-2.203,0.868-4.646,2.725-4.869c0.864-0.102,1.491,0.11,2.124,0.341
	C155.329,25.004,155.54,28.99,152.824,29.051z M137.956,21.22c-0.087,0.502-0.214,0.954-0.321,1.434
	c1.016-0.264,4.184-1.091,4.489,0.34c0.101,0.478-0.074,0.984-0.202,1.357c-2.862-0.29-5.196,0.214-5.812,2.37
	c-0.41,1.445,0.048,2.865,0.923,3.259c1.688,0.764,3.738-0.11,4.447-1.311c-0.072,0.415-0.143,0.834-0.12,1.35h1.484
	c0.016-1.496,0.222-2.711,0.441-4.06c0.186-1.148,0.536-2.29,0.481-3.305C143.638,20.334,139.995,21.158,137.956,21.22z
	 M140.761,28.33c-0.89,0.922-3.381,1.178-3.126-1.017c0.212-1.823,2.091-2.211,4.126-1.945
	C141.611,26.363,141.437,27.631,140.761,28.33z"/>
</svg>
