<?xml version="1.0" encoding="utf-8"?>
<!-- Generator: Adobe Illustrator 17.0.0, SVG Export Plug-In . SVG Version: 6.00 Build 0)  -->
<!DOCTYPE svg PUBLIC "-//W3C//DTD SVG 1.1//EN" "http://www.w3.org/Graphics/SVG/1.1/DTD/svg11.dtd">
<svg version="1.1" id="Camada_1" xmlns="http://www.w3.org/2000/svg" xmlns:xlink="http://www.w3.org/1999/xlink" x="0px" y="0px"
	 viewBox="177.168 0 72.832 50" enable-background="new 177.168 0 72.832 50" xml:space="preserve">
<path fill="#8C8C8C" d="M249.999,46.97c0,1.673-1.357,3.03-3.03,3.03h-66.667c-1.673,0-3.03-1.357-3.03-3.03V5.303
	c0-1.673,1.357-3.03,3.03-3.03h66.667c1.673,0,3.03,1.357,3.03,3.03V46.97z"/>
<path fill="#FFFFFF" d="M249.999,44.697c0,1.673-1.357,3.03-3.03,3.03h-66.667c-1.673,0-3.03-1.357-3.03-3.03V3.03
	c0-1.673,1.357-3.03,3.03-3.03h66.667c1.673,0,3.03,1.357,3.03,3.03V44.697z"/>
<linearGradient id="SVGID_1_" gradientUnits="userSpaceOnUse" x1="183.8812" y1="-53.8741" x2="189.9458" y2="-53.8741" gradientTransform="matrix(2.8346 0 0 -2.8346 -296.9173 -128.8504)">
	<stop  offset="0" style="stop-color:#007B40"/>
	<stop  offset="1" style="stop-color:#55B330"/>
</linearGradient>
<path fill="url(#SVGID_1_)" d="M227.728,24.711h0.035h0.067h0.067h0.067h0.067h0.067h0.067h0.067h0.067h0.067h0.067h0.067h0.067
	h0.067h0.067h0.067h0.067h0.067h0.067h0.067h0.067h0.067h0.067h0.067h0.067h0.067h0.067h0.067h0.067h0.067h0.067h0.067h0.067h0.067
	h0.067h0.067h0.067h0.067h0.067h0.067h0.067h0.067h0.067h0.067h0.067h0.067h0.067h0.067h0.067h0.067h0.067h0.067h0.067h0.067h0.067
	h0.067h0.067h0.067h0.067h0.067h0.056l0.011,0c0.021,0.001,0.043,0.001,0.067,0.003c0.022,0.001,0.044,0.003,0.067,0.004
	c0.022,0.002,0.045,0.004,0.067,0.006c0.023,0.002,0.045,0.004,0.067,0.007c0.023,0.003,0.046,0.005,0.067,0.008
	c0.024,0.003,0.047,0.007,0.067,0.01c0.015,0.003,0.028,0.005,0.041,0.008l0.027,0.006c0.023,0.005,0.045,0.011,0.067,0.017
	c0.023,0.006,0.045,0.013,0.067,0.02c0.023,0.007,0.045,0.015,0.067,0.023c0.023,0.008,0.045,0.017,0.067,0.026
	c0.023,0.009,0.045,0.019,0.067,0.029c0.023,0.01,0.045,0.021,0.067,0.032c0.023,0.011,0.045,0.024,0.067,0.036
	c0.023,0.013,0.045,0.026,0.067,0.04c0.023,0.014,0.045,0.029,0.067,0.044c0.023,0.016,0.045,0.032,0.067,0.048
	c0.023,0.017,0.045,0.035,0.067,0.053c0.023,0.019,0.045,0.039,0.067,0.059c0.023,0.021,0.045,0.043,0.067,0.065
	c0.023,0.023,0.045,0.048,0.067,0.073c0.023,0.026,0.046,0.053,0.067,0.081c0.023,0.03,0.046,0.061,0.067,0.092
	c0.024,0.035,0.046,0.07,0.067,0.106c0.024,0.041,0.046,0.083,0.067,0.127c0.025,0.051,0.047,0.104,0.067,0.159
	c0.027,0.073,0.049,0.149,0.067,0.227c0.031,0.136,0.047,0.279,0.047,0.428c0,0.15-0.017,0.294-0.047,0.43
	c-0.018,0.079-0.04,0.155-0.067,0.228c-0.02,0.055-0.043,0.108-0.067,0.159c-0.021,0.043-0.043,0.086-0.067,0.127
	c-0.021,0.036-0.044,0.072-0.067,0.106c-0.022,0.032-0.044,0.062-0.067,0.092c-0.022,0.028-0.044,0.055-0.067,0.081
	c-0.022,0.025-0.044,0.049-0.067,0.072c-0.022,0.022-0.044,0.044-0.067,0.065c-0.022,0.02-0.044,0.04-0.067,0.059
	c-0.022,0.018-0.044,0.036-0.067,0.053c-0.022,0.017-0.044,0.033-0.067,0.048c-0.022,0.015-0.045,0.03-0.067,0.044
	c-0.022,0.014-0.045,0.027-0.067,0.04c-0.022,0.012-0.045,0.024-0.067,0.036c-0.022,0.011-0.045,0.022-0.067,0.032
	c-0.022,0.01-0.045,0.02-0.067,0.029c-0.022,0.009-0.045,0.018-0.067,0.026c-0.022,0.008-0.045,0.015-0.067,0.023
	c-0.022,0.007-0.045,0.014-0.067,0.02c-0.022,0.006-0.045,0.012-0.067,0.017l-0.027,0.006c-0.012,0.003-0.026,0.006-0.041,0.008
	c-0.021,0.004-0.043,0.007-0.067,0.01c-0.021,0.003-0.044,0.006-0.067,0.008c-0.022,0.002-0.045,0.005-0.067,0.007
	c-0.023,0.002-0.045,0.004-0.067,0.005c-0.023,0.002-0.046,0.003-0.067,0.004c-0.024,0.001-0.046,0.002-0.067,0.003l-0.036,0h-0.031
	h-0.067h-0.067h-0.067h-0.067h-0.067h-0.067h-0.067h-0.067h-0.067h-0.067h-0.067h-0.067h-0.067h-0.067h-0.067h-0.067h-0.067h-0.067
	h-0.067h-0.067h-0.067h-0.067h-0.067h-0.067h-0.067h-0.067h-0.067h-0.067h-0.067h-0.067h-0.067h-0.067h-0.067h-0.067h-0.067h-0.067
	h-0.067h-0.067h-0.067h-0.067h-0.067h-0.067h-0.067h-0.067h-0.067h-0.067h-0.067h-0.067h-0.067h-0.067h-0.067h-0.067h-0.067h-0.067
	h-0.067h-0.067h-0.067h-0.067h-0.067h-0.035V24.711L227.728,24.711z M233.143,20.549c0.027,0.123,0.042,0.254,0.042,0.392
	c0,0.137-0.014,0.268-0.042,0.391c-0.017,0.079-0.04,0.155-0.067,0.228c-0.02,0.053-0.042,0.105-0.067,0.155
	c-0.021,0.042-0.043,0.082-0.067,0.121c-0.021,0.035-0.044,0.068-0.067,0.101c-0.022,0.03-0.044,0.059-0.067,0.087
	c-0.022,0.026-0.044,0.051-0.067,0.076c-0.022,0.023-0.044,0.045-0.067,0.067c-0.022,0.021-0.044,0.041-0.067,0.06
	c-0.022,0.019-0.044,0.036-0.067,0.054c-0.022,0.017-0.044,0.033-0.067,0.048c-0.022,0.015-0.045,0.03-0.067,0.044
	c-0.022,0.014-0.045,0.027-0.067,0.039c-0.022,0.012-0.045,0.024-0.067,0.035c-0.022,0.011-0.045,0.022-0.067,0.032
	c-0.022,0.01-0.045,0.019-0.067,0.028c-0.022,0.009-0.045,0.017-0.067,0.025c-0.022,0.008-0.045,0.015-0.067,0.022
	c-0.022,0.007-0.045,0.013-0.067,0.019c-0.022,0.006-0.045,0.011-0.067,0.016c-0.022,0.005-0.045,0.009-0.067,0.013l-0.016,0.003
	c-0.013,0.002-0.031,0.005-0.051,0.007c-0.02,0.003-0.043,0.005-0.067,0.008c-0.021,0.002-0.044,0.004-0.067,0.006
	c-0.022,0.002-0.045,0.003-0.067,0.005c-0.023,0.001-0.045,0.003-0.067,0.004c-0.023,0.001-0.046,0.002-0.067,0.002l-0.011,0h-0.057
	h-0.067h-0.067h-0.067h-0.067h-0.067h-0.067h-0.067h-0.067h-0.067h-0.067h-0.067h-0.067h-0.067h-0.067h-0.067h-0.067h-0.067h-0.067
	h-0.067h-0.067h-0.067h-0.067h-0.067h-0.067h-0.067h-0.067h-0.067h-0.067h-0.067h-0.067h-0.067h-0.067h-0.067h-0.067h-0.067h-0.067
	h-0.067h-0.067h-0.067h-0.067h-0.067h-0.067h-0.067h-0.067h-0.067h-0.067h-0.067h-0.067h-0.067h-0.067h-0.067h-0.067h-0.067h-0.035
	v-3.393h0.035h0.067h0.067h0.067h0.067h0.067h0.067h0.067h0.067h0.067h0.067h0.067h0.067h0.067h0.067h0.067h0.067h0.067h0.067h0.067
	h0.067h0.067h0.067h0.067h0.067h0.067h0.067h0.067h0.067h0.067h0.067h0.067h0.067h0.067h0.067h0.067h0.067h0.067h0.067h0.067h0.067
	h0.067h0.067h0.067h0.067h0.067h0.067h0.067h0.067h0.067h0.067h0.067h0.067h0.067h0.067h0.028l0.039,0.001
	c0.022,0.001,0.045,0.002,0.067,0.004c0.023,0.001,0.045,0.003,0.067,0.005c0.023,0.002,0.046,0.004,0.067,0.006
	c0.025,0.002,0.047,0.005,0.067,0.007c0.02,0.002,0.038,0.005,0.051,0.006l0.016,0.003c0.023,0.004,0.045,0.009,0.067,0.014
	c0.023,0.005,0.045,0.01,0.067,0.016c0.023,0.006,0.045,0.012,0.067,0.019c0.023,0.007,0.045,0.014,0.067,0.022
	c0.023,0.008,0.045,0.016,0.067,0.025c0.023,0.009,0.045,0.018,0.067,0.028c0.023,0.01,0.045,0.021,0.067,0.032
	c0.023,0.011,0.045,0.023,0.067,0.035c0.023,0.013,0.045,0.026,0.067,0.039c0.023,0.014,0.045,0.028,0.067,0.044
	c0.023,0.016,0.045,0.032,0.067,0.049c0.023,0.017,0.045,0.035,0.067,0.054c0.023,0.019,0.045,0.039,0.067,0.06
	c0.023,0.022,0.045,0.044,0.067,0.067c0.023,0.025,0.046,0.05,0.067,0.076c0.023,0.028,0.046,0.057,0.067,0.087
	c0.024,0.033,0.046,0.066,0.067,0.101c0.024,0.039,0.046,0.08,0.067,0.121c0.025,0.05,0.047,0.101,0.067,0.155
	C233.103,20.394,233.126,20.47,233.143,20.549L233.143,20.549z M241.484,2.956h0.028l0,34.846c0,0.208-0.01,0.414-0.028,0.618
	c-0.016,0.179-0.038,0.356-0.067,0.531c-0.02,0.118-0.042,0.234-0.067,0.35c-0.021,0.094-0.043,0.187-0.067,0.28
	c-0.021,0.08-0.043,0.159-0.067,0.238c-0.021,0.071-0.044,0.142-0.067,0.212c-0.021,0.064-0.044,0.127-0.067,0.19
	c-0.022,0.058-0.044,0.117-0.067,0.174c-0.022,0.054-0.044,0.108-0.067,0.162c-0.022,0.051-0.044,0.101-0.067,0.151
	c-0.022,0.048-0.044,0.095-0.067,0.142c-0.022,0.045-0.044,0.09-0.067,0.135c-0.022,0.043-0.044,0.085-0.067,0.128
	c-0.022,0.041-0.045,0.081-0.067,0.121c-0.022,0.039-0.044,0.077-0.067,0.116c-0.022,0.037-0.045,0.074-0.067,0.111
	c-0.022,0.036-0.044,0.072-0.067,0.107c-0.022,0.034-0.045,0.068-0.067,0.102c-0.022,0.033-0.045,0.066-0.067,0.098
	c-0.022,0.032-0.045,0.064-0.067,0.096c-0.022,0.031-0.045,0.062-0.067,0.092c-0.022,0.03-0.045,0.059-0.067,0.089
	c-0.022,0.029-0.045,0.058-0.067,0.086c-0.022,0.028-0.045,0.056-0.067,0.084c-0.022,0.027-0.045,0.054-0.067,0.081
	c-0.022,0.026-0.045,0.053-0.067,0.079c-0.022,0.025-0.045,0.051-0.067,0.076c-0.022,0.025-0.045,0.05-0.067,0.074
	c-0.022,0.024-0.045,0.048-0.067,0.072c-0.022,0.023-0.045,0.046-0.067,0.07c-0.022,0.023-0.045,0.046-0.067,0.069
	c-0.022,0.022-0.045,0.044-0.067,0.066c-0.022,0.022-0.045,0.043-0.067,0.065c-0.022,0.021-0.045,0.042-0.067,0.063
	c-0.022,0.021-0.045,0.041-0.067,0.061c-0.022,0.02-0.045,0.04-0.067,0.06c-0.022,0.02-0.045,0.039-0.067,0.058
	c-0.022,0.019-0.045,0.038-0.067,0.057c-0.022,0.019-0.045,0.037-0.067,0.055c-0.022,0.018-0.045,0.036-0.067,0.054
	c-0.022,0.018-0.045,0.035-0.067,0.052c-0.022,0.017-0.045,0.035-0.067,0.052c-0.022,0.017-0.045,0.033-0.067,0.05
	c-0.022,0.016-0.045,0.033-0.067,0.049c-0.022,0.016-0.045,0.031-0.067,0.047c-0.022,0.016-0.045,0.031-0.067,0.047
	c-0.022,0.015-0.045,0.03-0.067,0.045c-0.022,0.015-0.045,0.03-0.067,0.044c-0.022,0.014-0.045,0.029-0.067,0.043
	c-0.022,0.014-0.045,0.028-0.067,0.042c-0.022,0.014-0.045,0.027-0.067,0.041l-0.067,0.04c-0.022,0.013-0.045,0.026-0.067,0.039
	c-0.022,0.013-0.045,0.025-0.067,0.038c-0.022,0.012-0.045,0.025-0.067,0.037c-0.022,0.012-0.045,0.024-0.067,0.036
	c-0.022,0.012-0.045,0.024-0.067,0.036c-0.022,0.011-0.045,0.022-0.067,0.034c-0.022,0.011-0.045,0.022-0.067,0.033
	c-0.022,0.011-0.045,0.021-0.067,0.032l-0.067,0.031l-0.067,0.03c-0.022,0.01-0.045,0.02-0.067,0.029
	c-0.022,0.01-0.045,0.02-0.067,0.029c-0.022,0.009-0.045,0.018-0.067,0.027c-0.022,0.009-0.045,0.019-0.067,0.027
	c-0.022,0.009-0.045,0.017-0.067,0.026c-0.022,0.009-0.045,0.017-0.067,0.026l-0.067,0.025c-0.022,0.008-0.045,0.016-0.067,0.024
	c-0.022,0.008-0.045,0.016-0.067,0.024c-0.022,0.008-0.045,0.015-0.067,0.022l-0.067,0.022c-0.022,0.007-0.045,0.014-0.067,0.021
	l-0.067,0.02c-0.022,0.007-0.045,0.013-0.067,0.02c-0.022,0.006-0.045,0.012-0.067,0.018c-0.022,0.006-0.045,0.012-0.067,0.018
	l-0.067,0.017l-0.067,0.016l-0.067,0.016c-0.022,0.005-0.045,0.01-0.067,0.015c-0.022,0.005-0.045,0.01-0.067,0.015l-0.067,0.013
	l-0.067,0.013c-0.022,0.004-0.045,0.009-0.067,0.013c-0.022,0.004-0.045,0.007-0.067,0.011l-0.067,0.011l-0.067,0.01l-0.067,0.009
	c-0.022,0.003-0.045,0.007-0.067,0.009c-0.022,0.003-0.045,0.005-0.067,0.008c-0.022,0.003-0.045,0.005-0.067,0.008
	c-0.022,0.002-0.045,0.005-0.067,0.007c-0.022,0.002-0.045,0.004-0.067,0.006c-0.022,0.002-0.045,0.004-0.067,0.006
	c-0.022,0.002-0.045,0.003-0.067,0.005l-0.067,0.004c-0.022,0.001-0.045,0.003-0.067,0.004c-0.022,0.001-0.045,0.002-0.067,0.003
	l-0.067,0.003l-0.067,0.002c-0.022,0-0.045,0.001-0.067,0.001l-0.067,0.001l-0.014,0h-0.053h-0.067h-0.067h-0.067h-0.067h-0.067
	h-0.067h-0.067h-0.067h-0.067h-0.067h-0.067h-0.067h-0.067h-0.067h-0.067h-0.067h-0.067h-0.067h-0.067h-0.067h-0.067h-0.067h-0.067
	h-0.067h-0.067h-0.067h-0.067h-0.067h-0.067h-0.067h-0.067h-0.067h-0.067h-0.067h-0.067h-0.067H232h-0.067h-0.067h-0.067h-0.067
	h-0.067h-0.067h-0.067h-0.067h-0.067h-0.067h-0.067h-0.067h-0.067h-0.067h-0.067h-0.067h-0.067h-0.067h-0.067h-0.067h-0.067h-0.067
	h-0.067h-0.067h-0.067h-0.067h-0.067h-0.067h-0.067h-0.067h-0.067h-0.067h-0.067h-0.067h-0.067h-0.067h-0.067h-0.067h-0.067h-0.067
	h-0.067h-0.067h-0.067h-0.067h-0.067h-0.067h-0.067h-0.067h-0.067h-0.067h-0.067h-0.067h-0.067h-0.067H228.3h-0.067h-0.067h-0.067
	h-0.067h-0.067h-0.067h-0.067h-0.067h-0.067h-0.067h-0.067h-0.067h-0.067h-0.067h-0.067h-0.067h-0.067h-0.067h-0.067h-0.067h-0.067
	h-0.067h-0.067h-0.067h-0.067h-0.067h-0.067h-0.067h-0.067h-0.067h-0.067h-0.067h-0.067h-0.067h-0.067h-0.067h-0.067h-0.067h-0.067
	h-0.067h-0.067h-0.067h-0.067h-0.067h-0.067h-0.067h-0.067h-0.067h-0.067h-0.067h-0.067h-0.067h-0.067h-0.067H224.6h-0.067h-0.067
	h-0.145V30.563h0.145h0.067h0.067h0.067h0.067h0.067h0.067h0.067h0.067h0.067h0.067h0.067h0.067h0.067h0.067h0.067h0.067h0.067
	h0.067h0.067h0.067h0.067h0.067h0.067h0.067h0.067h0.067h0.067h0.067h0.067h0.067h0.067h0.067h0.067h0.067h0.067h0.067h0.067h0.067
	h0.067h0.067h0.067h0.067h0.067h0.067h0.067h0.067h0.067h0.067h0.067h0.067h0.067h0.067h0.067h0.067h0.067h0.067h0.067h0.067h0.067
	h0.067h0.067h0.067h0.067h0.067h0.067h0.067h0.067h0.067h0.067h0.067h0.067h0.067h0.067h0.067h0.067h0.067h0.067h0.067h0.067h0.067
	h0.067h0.067h0.067h0.067h0.067h0.067h0.067h0.067h0.067h0.067h0.067h0.067h0.067h0.067h0.067h0.067h0.067h0.067h0.067h0.067h0.067
	h0.067h0.067h0.067h0.067h0.067h0.067h0.067h0.067h0.067h0.067H232h0.067h0.067h0.067h0.067h0.067h0.067h0.067h0.067h0.067h0.067
	h0.067h0.067h0.067h0.067h0.067h0.067h0.067h0.067h0.067h0.067h0.067h0.067h0.067h0.067h0.067h0.067h0.067h0.067h0.067h0.067h0.067
	h0.067h0.067h0.067h0.067h0.067h0.067h0.067h0.067h0.067h0.067h0.067h0.067h0.067h0.067h0.067h0.036l0.032,0l0.067-0.001
	l0.067-0.001c0.022-0.001,0.045-0.001,0.067-0.002c0.023-0.001,0.045-0.002,0.067-0.003l0.067-0.003l0.067-0.004l0.067-0.005
	l0.067-0.005l0.067-0.006c0.022-0.002,0.045-0.004,0.067-0.007c0.023-0.002,0.045-0.005,0.067-0.008l0.067-0.008
	c0.023-0.003,0.045-0.006,0.067-0.009c0.023-0.003,0.045-0.007,0.067-0.01c0.022-0.003,0.045-0.007,0.067-0.01l0.067-0.011
	l0.067-0.012c0.022-0.004,0.045-0.008,0.067-0.013c0.023-0.004,0.045-0.009,0.067-0.014l0.067-0.015
	c0.022-0.005,0.045-0.01,0.067-0.015c0.023-0.005,0.045-0.011,0.067-0.017c0.022-0.006,0.045-0.011,0.067-0.017
	c0.022-0.006,0.045-0.012,0.067-0.018c0.023-0.006,0.045-0.013,0.067-0.019c0.023-0.007,0.045-0.013,0.067-0.02l0.067-0.021
	c0.023-0.007,0.045-0.015,0.067-0.022c0.023-0.008,0.045-0.015,0.067-0.023c0.023-0.008,0.045-0.016,0.067-0.024
	c0.023-0.008,0.045-0.017,0.067-0.026c0.023-0.009,0.045-0.018,0.067-0.026c0.023-0.009,0.045-0.018,0.067-0.027
	c0.023-0.009,0.045-0.019,0.067-0.029c0.023-0.01,0.045-0.02,0.067-0.03c0.023-0.01,0.045-0.021,0.067-0.031
	c0.023-0.011,0.045-0.022,0.067-0.033c0.023-0.011,0.045-0.023,0.067-0.034c0.023-0.012,0.045-0.024,0.067-0.036
	c0.023-0.012,0.045-0.025,0.067-0.037c0.023-0.013,0.045-0.026,0.067-0.039c0.023-0.013,0.045-0.027,0.067-0.041
	c0.023-0.014,0.045-0.028,0.067-0.043c0.023-0.015,0.045-0.03,0.067-0.045c0.023-0.015,0.045-0.031,0.067-0.047
	c0.023-0.016,0.045-0.032,0.067-0.049c0.023-0.017,0.045-0.034,0.067-0.051c0.023-0.018,0.045-0.036,0.067-0.054
	c0.023-0.019,0.045-0.037,0.067-0.056c0.023-0.02,0.045-0.039,0.067-0.059c0.023-0.021,0.045-0.041,0.067-0.063
	c0.023-0.022,0.045-0.044,0.067-0.066c0.023-0.023,0.045-0.046,0.067-0.07c0.023-0.024,0.045-0.049,0.067-0.074
	c0.023-0.026,0.045-0.052,0.067-0.079c0.023-0.028,0.045-0.056,0.067-0.084c0.023-0.03,0.045-0.06,0.067-0.091
	c0.023-0.033,0.045-0.066,0.067-0.099c0.023-0.035,0.046-0.071,0.067-0.107c0.023-0.039,0.046-0.079,0.067-0.119
	c0.023-0.044,0.046-0.088,0.067-0.132c0.024-0.05,0.046-0.101,0.067-0.152c0.024-0.059,0.047-0.119,0.067-0.18
	c0.025-0.075,0.048-0.152,0.067-0.23c0.029-0.114,0.051-0.231,0.067-0.351c0.02-0.145,0.03-0.295,0.03-0.449
	c0-0.15-0.01-0.295-0.03-0.436c-0.016-0.116-0.039-0.229-0.067-0.339c-0.02-0.075-0.042-0.149-0.067-0.221
	c-0.021-0.059-0.043-0.117-0.067-0.175c-0.021-0.05-0.043-0.098-0.067-0.146c-0.021-0.043-0.044-0.086-0.067-0.128
	c-0.022-0.039-0.044-0.077-0.067-0.115c-0.022-0.035-0.044-0.069-0.067-0.103c-0.022-0.032-0.044-0.064-0.067-0.095
	c-0.022-0.03-0.044-0.059-0.067-0.087c-0.022-0.028-0.044-0.055-0.067-0.082c-0.022-0.026-0.044-0.051-0.067-0.076
	c-0.022-0.024-0.044-0.048-0.067-0.072c-0.022-0.023-0.044-0.045-0.067-0.067c-0.022-0.022-0.045-0.043-0.067-0.064
	c-0.022-0.02-0.045-0.04-0.067-0.06c-0.022-0.019-0.045-0.038-0.067-0.057c-0.022-0.018-0.045-0.037-0.067-0.055
	c-0.022-0.018-0.045-0.035-0.067-0.052c-0.022-0.017-0.045-0.033-0.067-0.05c-0.022-0.016-0.045-0.032-0.067-0.047
	c-0.022-0.015-0.045-0.03-0.067-0.045c-0.022-0.015-0.045-0.029-0.067-0.043c-0.022-0.014-0.045-0.028-0.067-0.041
	c-0.022-0.013-0.045-0.026-0.067-0.039c-0.022-0.013-0.045-0.025-0.067-0.038c-0.022-0.012-0.045-0.024-0.067-0.036
	c-0.022-0.012-0.045-0.023-0.067-0.035c-0.022-0.011-0.045-0.022-0.067-0.033c-0.022-0.011-0.045-0.022-0.067-0.032
	c-0.022-0.01-0.045-0.02-0.067-0.03c-0.022-0.01-0.045-0.02-0.067-0.029c-0.022-0.01-0.045-0.019-0.067-0.028
	c-0.022-0.009-0.045-0.018-0.067-0.027c-0.022-0.009-0.045-0.017-0.067-0.026c-0.022-0.008-0.045-0.016-0.067-0.025
	c-0.022-0.008-0.045-0.016-0.067-0.024c-0.022-0.008-0.045-0.015-0.067-0.023c-0.022-0.007-0.045-0.015-0.067-0.022
	c-0.022-0.007-0.045-0.014-0.067-0.021l-0.067-0.02c-0.022-0.006-0.045-0.013-0.067-0.019c-0.022-0.006-0.045-0.012-0.067-0.018
	c-0.022-0.006-0.045-0.011-0.067-0.017c-0.022-0.006-0.045-0.011-0.067-0.016c-0.022-0.005-0.045-0.01-0.067-0.015
	c-0.022-0.005-0.045-0.01-0.067-0.014c-0.022-0.005-0.045-0.009-0.067-0.014l-0.067-0.013l-0.067-0.012
	c-0.022-0.004-0.045-0.008-0.067-0.011l-0.067-0.011c-0.022-0.003-0.045-0.007-0.067-0.01l-0.067-0.009l-0.067-0.008l-0.067-0.008
	l-0.067-0.007l-0.067-0.006l-0.067-0.006l-0.062-0.005l0-0.081l0.062-0.01l0.067-0.011c0.023-0.004,0.045-0.008,0.067-0.012
	l0.067-0.013c0.023-0.004,0.045-0.009,0.067-0.014l0.067-0.015c0.023-0.005,0.045-0.01,0.067-0.016
	c0.023-0.005,0.045-0.011,0.067-0.017c0.023-0.006,0.045-0.012,0.067-0.018c0.023-0.006,0.045-0.012,0.067-0.019
	c0.023-0.006,0.045-0.013,0.067-0.02c0.023-0.007,0.045-0.014,0.067-0.021c0.023-0.007,0.045-0.015,0.067-0.022
	c0.023-0.008,0.045-0.016,0.067-0.023c0.023-0.008,0.045-0.016,0.067-0.025c0.023-0.008,0.045-0.017,0.067-0.026
	c0.023-0.009,0.045-0.018,0.067-0.027c0.023-0.009,0.045-0.019,0.067-0.029c0.023-0.01,0.045-0.02,0.067-0.03
	c0.023-0.01,0.045-0.021,0.067-0.032c0.023-0.011,0.045-0.022,0.067-0.033c0.023-0.011,0.045-0.023,0.067-0.035
	c0.023-0.012,0.045-0.024,0.067-0.037c0.023-0.013,0.045-0.025,0.067-0.038c0.023-0.013,0.045-0.027,0.067-0.04
	c0.023-0.014,0.045-0.028,0.067-0.042c0.023-0.015,0.045-0.029,0.067-0.044c0.023-0.015,0.045-0.031,0.067-0.047
	c0.023-0.016,0.045-0.033,0.067-0.049c0.023-0.017,0.045-0.034,0.067-0.052c0.023-0.018,0.045-0.036,0.067-0.054
	c0.023-0.019,0.045-0.038,0.067-0.058c0.023-0.02,0.045-0.04,0.067-0.061c0.023-0.021,0.045-0.043,0.067-0.065
	c0.023-0.023,0.045-0.045,0.067-0.068c0.023-0.024,0.045-0.048,0.067-0.073c0.023-0.026,0.045-0.052,0.067-0.078
	c0.023-0.027,0.045-0.055,0.067-0.084c0.023-0.03,0.045-0.06,0.067-0.09c0.023-0.032,0.046-0.065,0.067-0.098
	c0.023-0.035,0.046-0.071,0.067-0.107c0.023-0.039,0.046-0.079,0.067-0.119c0.024-0.044,0.046-0.088,0.067-0.133
	c0.024-0.051,0.046-0.102,0.067-0.154c0.024-0.06,0.047-0.122,0.067-0.184c0.026-0.078,0.048-0.157,0.067-0.238
	c0.031-0.13,0.053-0.263,0.067-0.398c0.011-0.107,0.017-0.215,0.017-0.324c0-0.115-0.006-0.228-0.017-0.337
	c-0.014-0.14-0.036-0.276-0.067-0.406c-0.019-0.082-0.042-0.161-0.067-0.239c-0.02-0.062-0.043-0.123-0.067-0.183
	c-0.021-0.052-0.043-0.102-0.067-0.152c-0.021-0.044-0.044-0.088-0.067-0.131c-0.022-0.039-0.044-0.078-0.067-0.116
	c-0.022-0.035-0.044-0.07-0.067-0.105c-0.022-0.032-0.044-0.064-0.067-0.095c-0.022-0.03-0.044-0.059-0.067-0.087
	c-0.022-0.027-0.044-0.055-0.067-0.081c-0.022-0.025-0.044-0.05-0.067-0.075c-0.022-0.024-0.044-0.047-0.067-0.07
	c-0.022-0.022-0.044-0.044-0.067-0.066c-0.022-0.021-0.044-0.042-0.067-0.062c-0.022-0.02-0.045-0.039-0.067-0.059
	c-0.022-0.019-0.044-0.037-0.067-0.055c-0.022-0.018-0.045-0.035-0.067-0.053c-0.022-0.017-0.045-0.033-0.067-0.05
	c-0.022-0.016-0.045-0.032-0.067-0.047c-0.022-0.015-0.045-0.03-0.067-0.045c-0.022-0.014-0.045-0.029-0.067-0.043
	c-0.022-0.014-0.045-0.027-0.067-0.041c-0.022-0.013-0.045-0.026-0.067-0.039c-0.022-0.013-0.045-0.025-0.067-0.037
	c-0.022-0.012-0.045-0.024-0.067-0.035c-0.022-0.011-0.045-0.023-0.067-0.034c-0.022-0.011-0.045-0.022-0.067-0.032
	c-0.022-0.01-0.045-0.021-0.067-0.031c-0.022-0.01-0.045-0.02-0.067-0.029c-0.022-0.009-0.045-0.019-0.067-0.028
	c-0.022-0.009-0.045-0.018-0.067-0.027c-0.022-0.009-0.045-0.017-0.067-0.026c-0.022-0.008-0.045-0.016-0.067-0.024
	c-0.022-0.008-0.045-0.015-0.067-0.023c-0.022-0.007-0.045-0.015-0.067-0.022c-0.022-0.007-0.045-0.014-0.067-0.021
	c-0.022-0.007-0.045-0.014-0.067-0.02c-0.022-0.006-0.045-0.013-0.067-0.019c-0.022-0.006-0.045-0.012-0.067-0.018l-0.067-0.017
	c-0.022-0.006-0.045-0.011-0.067-0.016c-0.022-0.005-0.045-0.01-0.067-0.015l-0.067-0.014c-0.022-0.005-0.045-0.009-0.067-0.014
	c-0.022-0.004-0.045-0.008-0.067-0.012l-0.067-0.012c-0.022-0.004-0.045-0.008-0.067-0.011l-0.067-0.01l-0.067-0.009l-0.067-0.009
	l-0.067-0.008l-0.067-0.007l-0.067-0.007l-0.067-0.006l-0.067-0.005l-0.067-0.005l-0.067-0.004l-0.027-0.002l-0.041-0.003
	l-0.067-0.004l-0.067-0.004l-0.067-0.004l-0.067-0.003l-0.067-0.003l-0.067-0.002l-0.067-0.002l-0.067-0.002l-0.067-0.001l-0.037,0
	h-0.03h-0.067h-0.067h-0.067h-0.067h-0.067h-0.067h-0.067h-0.067h-0.067h-0.067h-0.067h-0.067h-0.067h-0.067h-0.067h-0.067h-0.067
	h-0.067h-0.067h-0.067h-0.067h-0.067h-0.067h-0.067h-0.067h-0.067h-0.067h-0.067h-0.067h-0.067h-0.067H232h-0.067h-0.067h-0.067
	h-0.067h-0.067h-0.067h-0.067h-0.067h-0.067h-0.067h-0.067h-0.067h-0.067h-0.067h-0.067h-0.067h-0.067h-0.067h-0.067h-0.067h-0.067
	h-0.067h-0.067h-0.067h-0.067h-0.067h-0.067h-0.067h-0.067h-0.067h-0.067h-0.067h-0.067h-0.067h-0.067h-0.067h-0.067h-0.067h-0.067
	h-0.067h-0.067h-0.067h-0.067h-0.067h-0.067h-0.067h-0.067h-0.067h-0.067h-0.067h-0.067h-0.067h-0.067h-0.067H228.3h-0.067h-0.067
	h-0.067h-0.067h-0.067h-0.067h-0.067h-0.067h-0.067h-0.067h-0.067h-0.067h-0.067h-0.067h-0.067h-0.067h-0.067h-0.067h-0.067h-0.067
	h-0.067h-0.067h-0.067h-0.067h-0.067h-0.067h-0.067h-0.067h-0.067h-0.067h-0.067h-0.067h-0.067h-0.067h-0.067h-0.067h-0.067h-0.067
	h-0.067h-0.067h-0.067h-0.067h-0.067h-0.067h-0.067h-0.067h-0.067h-0.067h-0.067h-0.067h-0.067h-0.067h-0.067h-0.067H224.6h-0.067
	h-0.067h-0.145V9.926c0-0.487,0.05-0.962,0.145-1.421c0.02-0.098,0.043-0.196,0.067-0.292c0.021-0.083,0.043-0.165,0.067-0.246
	c0.021-0.073,0.044-0.145,0.067-0.217c0.022-0.066,0.044-0.131,0.067-0.195c0.022-0.06,0.044-0.12,0.067-0.179
	c0.022-0.055,0.044-0.11,0.067-0.165c0.022-0.052,0.044-0.103,0.067-0.154c0.022-0.048,0.044-0.096,0.067-0.144
	c0.022-0.046,0.044-0.091,0.067-0.136c0.022-0.043,0.044-0.086,0.067-0.129c0.022-0.041,0.044-0.082,0.067-0.123
	c0.022-0.039,0.044-0.079,0.067-0.118c0.022-0.038,0.044-0.075,0.067-0.113c0.022-0.036,0.045-0.072,0.067-0.108
	c0.022-0.035,0.045-0.069,0.067-0.103c0.022-0.033,0.045-0.067,0.067-0.1c0.022-0.032,0.044-0.065,0.067-0.097
	c0.022-0.031,0.045-0.062,0.067-0.092c0.022-0.03,0.045-0.06,0.067-0.09c0.022-0.029,0.044-0.059,0.067-0.088
	c0.022-0.028,0.045-0.056,0.067-0.084c0.022-0.027,0.045-0.055,0.067-0.082c0.022-0.027,0.045-0.053,0.067-0.08
	c0.022-0.026,0.045-0.051,0.067-0.076c0.022-0.025,0.045-0.05,0.067-0.075c0.022-0.024,0.045-0.048,0.067-0.072
	c0.022-0.024,0.045-0.047,0.067-0.07c0.022-0.023,0.045-0.046,0.067-0.069c0.022-0.022,0.045-0.044,0.067-0.066
	c0.022-0.022,0.045-0.044,0.067-0.066c0.022-0.021,0.045-0.042,0.067-0.063c0.022-0.021,0.045-0.042,0.067-0.062
	c0.022-0.02,0.045-0.04,0.067-0.06c0.022-0.02,0.045-0.039,0.067-0.059c0.022-0.019,0.045-0.038,0.067-0.057
	c0.022-0.019,0.045-0.037,0.067-0.056c0.022-0.018,0.045-0.036,0.067-0.054l0.067-0.053l0.067-0.052
	c0.022-0.017,0.045-0.034,0.067-0.05c0.022-0.016,0.045-0.033,0.067-0.049l0.067-0.048c0.022-0.016,0.045-0.031,0.067-0.047
	l0.067-0.046l0.067-0.044c0.022-0.015,0.045-0.029,0.067-0.043l0.067-0.042c0.022-0.014,0.045-0.028,0.067-0.041
	c0.022-0.013,0.045-0.027,0.067-0.04c0.022-0.013,0.045-0.027,0.067-0.039c0.022-0.013,0.045-0.025,0.067-0.038
	c0.022-0.013,0.045-0.025,0.067-0.038c0.022-0.012,0.045-0.024,0.067-0.036c0.022-0.012,0.045-0.024,0.067-0.035
	c0.022-0.012,0.045-0.023,0.067-0.034c0.022-0.011,0.045-0.022,0.067-0.033l0.067-0.033c0.022-0.011,0.045-0.021,0.067-0.031
	c0.022-0.01,0.045-0.021,0.067-0.031c0.022-0.01,0.045-0.02,0.067-0.029c0.022-0.01,0.045-0.02,0.067-0.029
	c0.022-0.009,0.045-0.019,0.067-0.028c0.022-0.009,0.045-0.019,0.067-0.027l0.067-0.026l0.067-0.026
	c0.022-0.008,0.045-0.017,0.067-0.025c0.022-0.008,0.045-0.016,0.067-0.024c0.022-0.008,0.045-0.016,0.067-0.024
	c0.022-0.008,0.045-0.015,0.067-0.022l0.067-0.022c0.022-0.007,0.045-0.014,0.067-0.021c0.022-0.007,0.045-0.013,0.067-0.02
	c0.022-0.007,0.045-0.014,0.067-0.02c0.022-0.006,0.045-0.012,0.067-0.018c0.022-0.006,0.045-0.012,0.067-0.018l0.067-0.017
	c0.022-0.006,0.045-0.011,0.067-0.016c0.022-0.005,0.045-0.011,0.067-0.016c0.022-0.005,0.045-0.01,0.067-0.015l0.067-0.015
	l0.067-0.014c0.022-0.004,0.045-0.009,0.067-0.013c0.022-0.004,0.045-0.009,0.067-0.013c0.022-0.004,0.045-0.008,0.067-0.011
	l0.067-0.011c0.022-0.004,0.045-0.007,0.067-0.011c0.022-0.003,0.045-0.006,0.067-0.009c0.022-0.003,0.045-0.007,0.067-0.009
	c0.022-0.003,0.045-0.005,0.067-0.008l0.067-0.008c0.022-0.002,0.045-0.005,0.067-0.007c0.022-0.002,0.045-0.004,0.067-0.006
	l0.067-0.006l0.067-0.005c0.022-0.002,0.045-0.003,0.067-0.004c0.022-0.001,0.045-0.003,0.067-0.004
	c0.022-0.001,0.045-0.002,0.067-0.003l0.067-0.003c0.022-0.001,0.045-0.002,0.067-0.002c0.022-0.001,0.045-0.001,0.067-0.001
	c0.022,0,0.045-0.001,0.067-0.001l0.017,0h0.05h0.067h0.067h0.067h0.067h0.067h0.067h0.067h0.067h0.067H232h0.067h0.067h0.067h0.067
	h0.067h0.067h0.067h0.067h0.067h0.067h0.067h0.067h0.067h0.067h0.067h0.067h0.067h0.067h0.067h0.067h0.067h0.067h0.067h0.067h0.067
	h0.067h0.067h0.067h0.067h0.067h0.067h0.067h0.067h0.067h0.067h0.067h0.067h0.067h0.067h0.067h0.067h0.067h0.067h0.067h0.067h0.067
	h0.067h0.067h0.067h0.067h0.067h0.067h0.067h0.067h0.067h0.067h0.067h0.067h0.067h0.067h0.067h0.067h0.067h0.067h0.067h0.067h0.067
	h0.067h0.067h0.067h0.067h0.067h0.067h0.067h0.067h0.067h0.067h0.067h0.067h0.067h0.067h0.067h0.067h0.067h0.067h0.067h0.067h0.067
	h0.067h0.067h0.067h0.067h0.067h0.067h0.067h0.067h0.067h0.067h0.067h0.067h0.067h0.067h0.067h0.067h0.067h0.067h0.067h0.067h0.067
	h0.067h0.067h0.067h0.067h0.067h0.067h0.067h0.067h0.067h0.067h0.067h0.067h0.067h0.067h0.067h0.067h0.067h0.067h0.067h0.067h0.067
	h0.067h0.067h0.067h0.067h0.067h0.067h0.067h0.067h0.067h0.067L241.484,2.956L241.484,2.956L241.484,2.956z"/>
<linearGradient id="SVGID_2_" gradientUnits="userSpaceOnUse" x1="170.2775" y1="-53.8741" x2="176.3417" y2="-53.8741" gradientTransform="matrix(2.8346 0 0 -2.8346 -296.9173 -128.8504)">
	<stop  offset="0" style="stop-color:#1D2970"/>
	<stop  offset="1" style="stop-color:#006DBA"/>
</linearGradient>
<path fill="url(#SVGID_2_)" d="M185.903,27.206c-0.048-0.023-0.096-0.046-0.144-0.069V9.925c0-0.485,0.05-0.959,0.144-1.417
	c0.02-0.098,0.043-0.196,0.067-0.292c0.021-0.083,0.043-0.165,0.067-0.246c0.021-0.073,0.044-0.145,0.067-0.217
	c0.022-0.066,0.044-0.131,0.067-0.196c0.022-0.06,0.044-0.12,0.067-0.179c0.022-0.055,0.044-0.11,0.067-0.165
	c0.022-0.052,0.044-0.103,0.067-0.154c0.022-0.048,0.044-0.096,0.067-0.144c0.022-0.046,0.044-0.091,0.067-0.136
	c0.022-0.043,0.044-0.086,0.067-0.129c0.022-0.041,0.044-0.082,0.067-0.123c0.022-0.039,0.044-0.079,0.067-0.118
	c0.022-0.038,0.044-0.075,0.067-0.113c0.022-0.036,0.044-0.072,0.067-0.108c0.022-0.035,0.045-0.069,0.067-0.103
	c0.022-0.033,0.044-0.067,0.067-0.1c0.022-0.032,0.044-0.065,0.067-0.097c0.022-0.031,0.045-0.061,0.067-0.092
	c0.022-0.03,0.045-0.06,0.067-0.09c0.022-0.029,0.044-0.059,0.067-0.088c0.022-0.028,0.045-0.056,0.067-0.083
	c0.022-0.027,0.045-0.055,0.067-0.082c0.022-0.027,0.044-0.053,0.067-0.079c0.022-0.026,0.045-0.051,0.067-0.076
	c0.022-0.025,0.044-0.05,0.067-0.075c0.022-0.024,0.045-0.048,0.067-0.072c0.022-0.024,0.045-0.047,0.067-0.071
	c0.022-0.023,0.045-0.046,0.067-0.069c0.022-0.022,0.045-0.044,0.067-0.066c0.022-0.022,0.044-0.044,0.067-0.066
	c0.022-0.021,0.045-0.042,0.067-0.063c0.022-0.021,0.045-0.042,0.067-0.062c0.022-0.02,0.045-0.04,0.067-0.06
	c0.022-0.02,0.045-0.039,0.067-0.059c0.022-0.019,0.045-0.038,0.067-0.057c0.022-0.019,0.045-0.037,0.067-0.056
	c0.022-0.018,0.045-0.036,0.067-0.054c0.022-0.018,0.045-0.035,0.067-0.053c0.022-0.017,0.045-0.034,0.067-0.052
	c0.022-0.017,0.045-0.034,0.067-0.05l0.067-0.049c0.022-0.016,0.045-0.032,0.067-0.048c0.022-0.016,0.045-0.031,0.067-0.047
	c0.022-0.015,0.045-0.031,0.067-0.046c0.022-0.015,0.045-0.03,0.067-0.044c0.022-0.015,0.045-0.029,0.067-0.044
	c0.022-0.014,0.045-0.028,0.067-0.042c0.022-0.014,0.045-0.028,0.067-0.042c0.022-0.013,0.045-0.026,0.067-0.04
	c0.022-0.013,0.045-0.027,0.067-0.04c0.022-0.013,0.045-0.025,0.067-0.038c0.022-0.013,0.045-0.025,0.067-0.038
	c0.022-0.012,0.045-0.024,0.067-0.036c0.022-0.012,0.045-0.024,0.067-0.035c0.022-0.012,0.045-0.023,0.067-0.034l0.067-0.033
	c0.022-0.011,0.045-0.022,0.067-0.033c0.022-0.011,0.045-0.021,0.067-0.031c0.022-0.01,0.045-0.021,0.067-0.031
	c0.022-0.01,0.045-0.02,0.067-0.029c0.022-0.01,0.045-0.02,0.067-0.029c0.022-0.009,0.045-0.019,0.067-0.028l0.067-0.027
	l0.067-0.027l0.067-0.026c0.022-0.008,0.045-0.017,0.067-0.025c0.022-0.008,0.045-0.016,0.067-0.024
	c0.022-0.008,0.045-0.016,0.067-0.024l0.067-0.022l0.067-0.022c0.022-0.007,0.045-0.014,0.067-0.021
	c0.022-0.007,0.045-0.013,0.067-0.02c0.022-0.007,0.045-0.013,0.067-0.02c0.022-0.006,0.045-0.012,0.067-0.019l0.067-0.018
	c0.022-0.006,0.045-0.012,0.067-0.018c0.022-0.006,0.045-0.011,0.067-0.016c0.022-0.005,0.045-0.011,0.067-0.016
	c0.022-0.005,0.045-0.01,0.067-0.015l0.067-0.015c0.022-0.005,0.045-0.01,0.067-0.014c0.022-0.004,0.045-0.009,0.067-0.013
	c0.022-0.004,0.045-0.009,0.067-0.013c0.022-0.004,0.045-0.008,0.067-0.012l0.067-0.011c0.022-0.004,0.045-0.007,0.067-0.011
	c0.022-0.003,0.045-0.006,0.067-0.009c0.022-0.003,0.045-0.006,0.067-0.009l0.067-0.008l0.067-0.008
	c0.022-0.003,0.045-0.005,0.067-0.008c0.022-0.002,0.045-0.004,0.067-0.006l0.067-0.006c0.022-0.002,0.045-0.004,0.067-0.005
	c0.022-0.002,0.045-0.003,0.067-0.004c0.022-0.001,0.045-0.003,0.067-0.004c0.022-0.001,0.045-0.002,0.067-0.003l0.067-0.003
	c0.022-0.001,0.045-0.002,0.067-0.003c0.022-0.001,0.045-0.001,0.067-0.001c0.022,0,0.045-0.001,0.067-0.001l0.03,0h0.037h0.067
	h0.067h0.067h0.067h0.067h0.067h0.067h0.067h0.067h0.067h0.067h0.067h0.067h0.067h0.067h0.067h0.067h0.067h0.067h0.067h0.067h0.067
	h0.067h0.067h0.067h0.067h0.067h0.067h0.067h0.067h0.067h0.067h0.067h0.067h0.067h0.067h0.067h0.067h0.067h0.067h0.067h0.067h0.067
	h0.067h0.067h0.067h0.067h0.067h0.067h0.067h0.067h0.067h0.067h0.067h0.067h0.067h0.067h0.067h0.067h0.067h0.067h0.067h0.067h0.067
	h0.067h0.067h0.067h0.067h0.067h0.067h0.067h0.067h0.067h0.067h0.067h0.067h0.067h0.067h0.067h0.067h0.067h0.067h0.067h0.067h0.067
	h0.067h0.067h0.067h0.067h0.067h0.067h0.067h0.067h0.067h0.067h0.067h0.067h0.067h0.067h0.067h0.067h0.067h0.067h0.067h0.067h0.067
	h0.067h0.067h0.067h0.067h0.067h0.067h0.067h0.067h0.067h0.067h0.067h0.067h0.067h0.067h0.067h0.067h0.067h0.067h0.067h0.067h0.067
	h0.067h0.067h0.067h0.067h0.067h0.067h0.067h0.067h0.067h0.067h0.067h0.067h0.067h0.067h0.067h0.067h0.067h0.067h0.067h0.067h0.067
	h0.067h0.067h0.067h0.057v34.846c0,0.303-0.019,0.602-0.057,0.895c-0.018,0.141-0.041,0.281-0.067,0.419
	c-0.02,0.105-0.042,0.21-0.067,0.313c-0.021,0.087-0.043,0.174-0.067,0.26c-0.021,0.075-0.044,0.15-0.067,0.224
	c-0.021,0.067-0.044,0.134-0.067,0.2c-0.022,0.061-0.044,0.122-0.067,0.183c-0.022,0.057-0.044,0.113-0.067,0.169
	c-0.022,0.053-0.044,0.105-0.067,0.157c-0.022,0.049-0.044,0.098-0.067,0.147c-0.022,0.046-0.044,0.093-0.067,0.138
	c-0.022,0.044-0.044,0.088-0.067,0.131c-0.022,0.042-0.044,0.084-0.067,0.125c-0.022,0.04-0.044,0.08-0.067,0.119
	c-0.022,0.038-0.044,0.076-0.067,0.114c-0.022,0.036-0.044,0.073-0.067,0.109c-0.022,0.035-0.044,0.07-0.067,0.105
	c-0.022,0.034-0.044,0.068-0.067,0.101c-0.022,0.033-0.045,0.065-0.067,0.097c-0.022,0.031-0.045,0.062-0.067,0.094
	c-0.022,0.03-0.044,0.061-0.067,0.091c-0.022,0.029-0.045,0.059-0.067,0.088c-0.022,0.028-0.045,0.056-0.067,0.085
	c-0.022,0.028-0.044,0.055-0.067,0.083c-0.022,0.027-0.045,0.053-0.067,0.079c-0.022,0.026-0.045,0.052-0.067,0.077
	c-0.022,0.025-0.044,0.051-0.067,0.076c-0.022,0.024-0.045,0.048-0.067,0.073c-0.022,0.024-0.044,0.048-0.067,0.071
	c-0.022,0.023-0.045,0.046-0.067,0.069c-0.022,0.023-0.045,0.045-0.067,0.067c-0.022,0.022-0.045,0.044-0.067,0.066
	c-0.022,0.021-0.045,0.042-0.067,0.064c-0.022,0.021-0.045,0.042-0.067,0.062c-0.022,0.02-0.045,0.04-0.067,0.06
	c-0.022,0.02-0.044,0.04-0.067,0.06c-0.022,0.019-0.045,0.038-0.067,0.057c-0.022,0.019-0.045,0.038-0.067,0.057
	c-0.022,0.018-0.045,0.036-0.067,0.054c-0.022,0.018-0.045,0.036-0.067,0.054c-0.022,0.017-0.045,0.034-0.067,0.051
	c-0.022,0.017-0.045,0.034-0.067,0.051c-0.022,0.017-0.045,0.033-0.067,0.049c-0.022,0.016-0.045,0.033-0.067,0.049
	c-0.022,0.016-0.045,0.031-0.067,0.047c-0.022,0.015-0.045,0.031-0.067,0.046c-0.022,0.015-0.045,0.029-0.067,0.044
	c-0.022,0.015-0.045,0.03-0.067,0.044c-0.022,0.014-0.045,0.028-0.067,0.042c-0.022,0.014-0.045,0.028-0.067,0.042
	c-0.022,0.014-0.045,0.027-0.067,0.04c-0.022,0.013-0.045,0.027-0.067,0.04c-0.022,0.013-0.045,0.025-0.067,0.038
	c-0.022,0.013-0.045,0.025-0.067,0.038c-0.022,0.012-0.045,0.024-0.067,0.036l-0.067,0.035c-0.022,0.012-0.045,0.023-0.067,0.035
	c-0.022,0.011-0.045,0.022-0.067,0.033c-0.022,0.011-0.045,0.022-0.067,0.033c-0.022,0.011-0.045,0.021-0.067,0.031
	c-0.022,0.01-0.045,0.021-0.067,0.031c-0.022,0.01-0.045,0.02-0.067,0.03l-0.067,0.029l-0.067,0.028
	c-0.022,0.009-0.045,0.018-0.067,0.027c-0.022,0.009-0.045,0.018-0.067,0.027c-0.022,0.009-0.045,0.017-0.067,0.025
	c-0.022,0.009-0.045,0.017-0.067,0.026c-0.022,0.008-0.045,0.016-0.067,0.024l-0.067,0.024l-0.067,0.023
	c-0.022,0.007-0.045,0.015-0.067,0.022c-0.022,0.007-0.045,0.015-0.067,0.022c-0.022,0.007-0.045,0.013-0.067,0.02l-0.067,0.02
	l-0.067,0.019c-0.022,0.006-0.045,0.012-0.067,0.018c-0.022,0.006-0.045,0.012-0.067,0.018c-0.022,0.006-0.045,0.011-0.067,0.016
	c-0.022,0.006-0.045,0.011-0.067,0.016L197.52,44.6l-0.067,0.015c-0.022,0.005-0.045,0.01-0.067,0.015
	c-0.022,0.005-0.045,0.008-0.067,0.013c-0.022,0.004-0.045,0.009-0.067,0.013l-0.067,0.012c-0.022,0.004-0.045,0.007-0.067,0.011
	c-0.022,0.004-0.045,0.008-0.067,0.011c-0.022,0.003-0.045,0.006-0.067,0.01l-0.067,0.009c-0.022,0.003-0.045,0.006-0.067,0.009
	c-0.022,0.003-0.045,0.005-0.067,0.008c-0.022,0.003-0.045,0.005-0.067,0.008c-0.022,0.002-0.045,0.004-0.067,0.006l-0.067,0.006
	c-0.022,0.002-0.045,0.004-0.067,0.006c-0.022,0.002-0.045,0.003-0.067,0.004l-0.067,0.004l-0.067,0.004
	c-0.022,0.001-0.045,0.002-0.067,0.003c-0.022,0.001-0.045,0.002-0.067,0.003c-0.022,0.001-0.045,0.001-0.067,0.001l-0.067,0.001
	c-0.021,0-0.041,0.001-0.062,0.001h-0.005h-0.067h-0.067h-0.067h-0.067h-0.067h-0.067h-0.067h-0.067h-0.067h-0.067h-0.067h-0.067
	h-0.067h-0.067h-0.067h-0.067h-0.067h-0.067H194.7h-0.067h-0.067h-0.067h-0.067h-0.067h-0.067h-0.067h-0.067h-0.067h-0.067h-0.067
	h-0.067h-0.067h-0.067h-0.067h-0.067h-0.067h-0.067h-0.067h-0.067h-0.067h-0.067h-0.067h-0.067h-0.067h-0.067h-0.067h-0.067h-0.067
	h-0.067h-0.067h-0.067h-0.067h-0.067h-0.067h-0.067h-0.067h-0.067h-0.067h-0.067h-0.067h-0.067h-0.067h-0.067h-0.067h-0.067h-0.067
	h-0.067h-0.067h-0.067h-0.067h-0.067h-0.067h-0.067h-0.067h-0.067h-0.067h-0.067h-0.067h-0.067h-0.067h-0.067h-0.067h-0.067h-0.067
	h-0.067h-0.067h-0.067h-0.067h-0.067h-0.067h-0.067h-0.067h-0.067h-0.067h-0.067h-0.067h-0.067h-0.067h-0.067h-0.067h-0.067h-0.067
	h-0.067h-0.067h-0.067h-0.067h-0.067h-0.067h-0.067h-0.067h-0.067h-0.067h-0.067h-0.067h-0.067h-0.067h-0.067h-0.067h-0.067h-0.067
	h-0.067h-0.067h-0.067h-0.067h-0.067h-0.067h-0.067h-0.067h-0.067h-0.067h-0.067h-0.067h-0.067h-0.067h-0.067h-0.067h-0.067h-0.067
	h-0.067h-0.067h-0.067h-0.067h-0.067h-0.067h-0.067h-0.067h-0.067h-0.067h-0.067h-0.067h-0.144V30.084c0,0,0.05,0.014,0.144,0.038
	l0.067,0.017l0.067,0.016l0.067,0.016l0.067,0.016l0.067,0.016l0.067,0.015l0.067,0.015l0.067,0.015l0.067,0.015l0.067,0.015
	l0.067,0.014l0.067,0.014l0.067,0.014l0.067,0.014l0.067,0.014l0.067,0.013l0.067,0.013l0.067,0.013l0.067,0.013l0.067,0.013
	l0.067,0.013l0.067,0.012l0.067,0.012l0.067,0.012l0.067,0.012l0.067,0.012l0.067,0.012l0.067,0.011l0.067,0.011l0.067,0.011
	l0.067,0.011l0.067,0.011l0.067,0.011l0.067,0.011l0.067,0.01l0.067,0.01l0.067,0.01l0.067,0.01l0.067,0.01l0.067,0.01l0.067,0.01
	l0.067,0.009l0.067,0.009l0.067,0.009l0.067,0.009l0.067,0.009l0.067,0.009l0.067,0.008l0.067,0.008l0.067,0.008l0.067,0.008
	l0.067,0.008l0.067,0.008l0.067,0.008l0.067,0.008l0.067,0.007l0.067,0.007l0.067,0.007l0.067,0.007l0.067,0.007l0.067,0.007
	l0.067,0.007l0.067,0.006l0.067,0.006l0.067,0.006l0.067,0.006l0.067,0.006l0.067,0.006l0.067,0.005l0.067,0.005l0.067,0.005
	l0.067,0.005l0.067,0.005l0.067,0.005l0.067,0.005l0.067,0.004l0.067,0.004l0.067,0.004l0.067,0.004l0.067,0.004l0.067,0.004
	l0.067,0.004l0.067,0.003l0.067,0.003l0.067,0.003l0.067,0.003l0.067,0.003l0.067,0.003l0.067,0.002l0.067,0.002l0.067,0.002
	l0.067,0.002l0.067,0.002l0.067,0.002l0.067,0.002l0.067,0.002l0.067,0.001l0.067,0.001l0.067,0.001l0.067,0.001l0.067,0.001
	l0.067,0.001l0.067,0l0.067,0l0.026,0l0.041,0l0.067,0l0.067,0l0.067,0l0.067,0l0.067-0.001l0.067-0.001l0.067-0.001l0.067-0.001
	l0.067-0.002l0.067-0.002l0.067-0.002l0.067-0.002l0.067-0.002l0.067-0.003l0.067-0.003l0.067-0.003l0.067-0.003l0.067-0.004
	l0.067-0.004l0.067-0.004l0.067-0.004l0.067-0.004l0.067-0.005l0.067-0.005l0.067-0.005l0.067-0.005l0.067-0.006l0.067-0.006
	l0.067-0.006l0.067-0.006l0.067-0.007l0.067-0.007l0.067-0.007l0.067-0.007l0.067-0.008l0.067-0.008l0.067-0.008l0.067-0.009
	l0.067-0.009l0.067-0.009l0.067-0.009c0.023-0.003,0.045-0.007,0.067-0.01l0.067-0.01l0.067-0.01l0.067-0.011
	c0.023-0.004,0.045-0.008,0.067-0.011l0.067-0.011c0.022-0.004,0.045-0.007,0.067-0.011c0.023-0.004,0.045-0.008,0.067-0.012
	l0.067-0.013l0.067-0.013l0.067-0.013c0.023-0.004,0.045-0.009,0.067-0.014l0.067-0.014l0.067-0.014
	c0.023-0.005,0.045-0.01,0.067-0.015l0.067-0.015c0.022-0.005,0.045-0.01,0.067-0.015c0.023-0.005,0.045-0.011,0.067-0.016
	l0.067-0.017c0.022-0.006,0.045-0.011,0.067-0.017c0.023-0.006,0.045-0.012,0.067-0.018l0.067-0.018
	c0.022-0.006,0.045-0.012,0.067-0.018c0.023-0.006,0.045-0.013,0.067-0.019l0.067-0.019c0.022-0.007,0.045-0.013,0.067-0.02
	l0.067-0.021l0.067-0.021c0.022-0.007,0.045-0.014,0.067-0.021l0.067-0.022l0.067-0.023c0.022-0.008,0.045-0.015,0.067-0.023
	c0.023-0.008,0.045-0.016,0.067-0.024l0.067-0.024c0.022-0.008,0.045-0.016,0.067-0.025c0.023-0.009,0.045-0.018,0.067-0.026
	c0.022-0.009,0.045-0.017,0.067-0.026l0.067-0.027l0.067-0.028c0.022-0.009,0.045-0.019,0.067-0.028
	c0.023-0.01,0.045-0.02,0.067-0.03l0.067-0.03l0.067-0.031c0.023-0.011,0.045-0.022,0.067-0.032
	c0.022-0.011,0.045-0.022,0.067-0.033c0.023-0.011,0.045-0.023,0.067-0.035s0.045-0.023,0.067-0.035
	c0.023-0.012,0.045-0.024,0.067-0.036c0.023-0.012,0.045-0.024,0.067-0.037c0.023-0.013,0.045-0.025,0.067-0.038
	c0.023-0.013,0.045-0.026,0.067-0.039c0.022-0.013,0.045-0.027,0.067-0.04c0.023-0.014,0.045-0.028,0.067-0.042
	c0.022-0.014,0.045-0.028,0.067-0.043c0.023-0.015,0.045-0.03,0.067-0.045c0.022-0.015,0.045-0.03,0.067-0.045
	c0.023-0.016,0.045-0.032,0.067-0.048c0.022-0.016,0.045-0.032,0.067-0.048c0.023-0.017,0.045-0.034,0.067-0.051
	c0.023-0.017,0.045-0.035,0.067-0.052c0.023-0.018,0.045-0.036,0.067-0.054c0.023-0.019,0.045-0.037,0.067-0.056
	c0.023-0.019,0.045-0.038,0.067-0.058c0.023-0.02,0.045-0.041,0.067-0.061c0.023-0.021,0.045-0.041,0.067-0.062
	c0.023-0.022,0.045-0.044,0.067-0.066c0.023-0.023,0.045-0.045,0.067-0.068c0.023-0.023,0.045-0.047,0.067-0.07
	c0.023-0.025,0.045-0.05,0.067-0.075c0.023-0.026,0.045-0.052,0.067-0.078c0.023-0.027,0.045-0.054,0.067-0.081
	c0.023-0.028,0.045-0.057,0.067-0.085c0.023-0.03,0.045-0.06,0.067-0.09c0.023-0.032,0.045-0.063,0.067-0.095
	c0.023-0.033,0.045-0.067,0.067-0.101c0.023-0.035,0.045-0.071,0.067-0.107c0.023-0.038,0.045-0.076,0.067-0.115
	c0.023-0.041,0.045-0.082,0.067-0.123c0.023-0.044,0.046-0.089,0.067-0.134c0.023-0.048,0.046-0.097,0.067-0.146
	c0.023-0.053,0.046-0.107,0.067-0.161c0.024-0.06,0.046-0.12,0.067-0.181c0.024-0.069,0.046-0.139,0.067-0.209
	c0.024-0.082,0.047-0.165,0.067-0.249c0.025-0.104,0.048-0.209,0.067-0.315c0.029-0.158,0.051-0.319,0.067-0.482
	c0.023-0.227,0.034-0.458,0.034-0.693v-8.086h-0.034h-0.067h-0.067h-0.067h-0.067h-0.067h-0.067h-0.067h-0.067h-0.067h-0.067h-0.067
	h-0.067h-0.067h-0.067h-0.067h-0.067h-0.067h-0.067h-0.067h-0.067h-0.067h-0.067h-0.067h-0.067h-0.067h-0.067h-0.067h-0.067h-0.067
	h-0.067H199.4h-0.067h-0.067h-0.067h-0.067h-0.067h-0.067h-0.067h-0.067h-0.067h-0.067h-0.067h-0.067h-0.067h-0.067h-0.067h-0.067
	h-0.067h-0.067h-0.067h-0.067h-0.067h-0.067h-0.067h-0.067h-0.067h-0.067h-0.067h-0.067h-0.067h-0.067h-0.067h-0.067h-0.067h-0.067
	h-0.067h-0.067h-0.067h-0.067h-0.067h-0.067h-0.067h-0.067h-0.067h-0.067h-0.067h-0.067h-0.067h-0.067h-0.067h-0.067h-0.067h-0.067
	h-0.067h-0.067h-0.067h-0.067h-0.067h-0.051v8.086c0,0.127-0.006,0.251-0.016,0.373c-0.014,0.156-0.036,0.307-0.067,0.455
	c-0.019,0.091-0.042,0.181-0.067,0.268c-0.02,0.07-0.043,0.139-0.067,0.206c-0.021,0.058-0.043,0.114-0.067,0.17
	c-0.021,0.05-0.044,0.099-0.067,0.147c-0.021,0.044-0.044,0.088-0.067,0.13c-0.022,0.039-0.044,0.078-0.067,0.116
	c-0.022,0.036-0.044,0.071-0.067,0.106c-0.022,0.033-0.044,0.065-0.067,0.097c-0.022,0.03-0.044,0.061-0.067,0.09
	c-0.022,0.028-0.044,0.056-0.067,0.083c-0.022,0.026-0.044,0.052-0.067,0.077c-0.022,0.025-0.044,0.049-0.067,0.073
	c-0.022,0.023-0.044,0.046-0.067,0.068c-0.022,0.022-0.044,0.043-0.067,0.064c-0.022,0.02-0.044,0.04-0.067,0.06
	c-0.022,0.019-0.044,0.038-0.067,0.057c-0.022,0.018-0.045,0.036-0.067,0.053c-0.022,0.017-0.044,0.034-0.067,0.051
	c-0.022,0.016-0.044,0.032-0.067,0.048c-0.022,0.015-0.044,0.03-0.067,0.045c-0.022,0.014-0.044,0.029-0.067,0.043
	c-0.022,0.014-0.045,0.027-0.067,0.04c-0.022,0.013-0.045,0.026-0.067,0.038c-0.022,0.012-0.045,0.024-0.067,0.036
	c-0.022,0.012-0.045,0.023-0.067,0.034c-0.022,0.011-0.045,0.022-0.067,0.033c-0.022,0.01-0.045,0.021-0.067,0.031
	c-0.022,0.01-0.045,0.02-0.067,0.029c-0.022,0.009-0.045,0.018-0.067,0.027c-0.022,0.009-0.045,0.018-0.067,0.026
	c-0.022,0.008-0.045,0.017-0.067,0.025c-0.022,0.008-0.045,0.016-0.067,0.023c-0.022,0.007-0.045,0.015-0.067,0.022
	c-0.022,0.007-0.045,0.014-0.067,0.02c-0.022,0.007-0.045,0.013-0.067,0.019c-0.022,0.006-0.045,0.012-0.067,0.018
	c-0.022,0.006-0.045,0.011-0.067,0.017c-0.022,0.005-0.045,0.01-0.067,0.016c-0.022,0.005-0.045,0.01-0.067,0.015
	c-0.022,0.005-0.045,0.009-0.067,0.013c-0.022,0.004-0.045,0.008-0.067,0.012c-0.022,0.004-0.045,0.008-0.067,0.011l-0.067,0.01
	c-0.022,0.003-0.045,0.006-0.067,0.009c-0.022,0.003-0.045,0.006-0.067,0.008l-0.067,0.007c-0.022,0.002-0.045,0.004-0.067,0.006
	c-0.022,0.002-0.045,0.004-0.067,0.006c-0.022,0.002-0.045,0.003-0.067,0.005c-0.022,0.001-0.045,0.003-0.067,0.004
	c-0.022,0.001-0.045,0.002-0.067,0.003c-0.022,0.001-0.045,0.001-0.067,0.002L191.88,28.7c-0.022,0-0.045,0.001-0.067,0.001
	l-0.025,0l-0.042,0l-0.067,0l-0.067-0.001l-0.067-0.001l-0.067-0.002l-0.067-0.002l-0.067-0.003l-0.067-0.003l-0.067-0.003
	l-0.067-0.004l-0.067-0.004l-0.067-0.005l-0.067-0.005l-0.067-0.006l-0.067-0.006l-0.067-0.006l-0.067-0.007l-0.067-0.007
	l-0.067-0.008l-0.067-0.008l-0.067-0.009l-0.067-0.009l-0.067-0.009l-0.067-0.01l-0.067-0.01l-0.067-0.01l-0.067-0.011l-0.067-0.011
	l-0.067-0.012l-0.067-0.012l-0.067-0.012l-0.067-0.013l-0.067-0.013l-0.067-0.014l-0.067-0.014l-0.067-0.014l-0.067-0.015
	l-0.067-0.015l-0.067-0.015l-0.067-0.016l-0.067-0.016l-0.067-0.017l-0.067-0.017l-0.067-0.018l-0.067-0.018l-0.067-0.018
	l-0.067-0.018l-0.067-0.019l-0.067-0.019l-0.067-0.019l-0.067-0.02l-0.067-0.02l-0.067-0.021l-0.067-0.021l-0.067-0.021
	l-0.067-0.022l-0.067-0.022l-0.067-0.022l-0.067-0.023l-0.067-0.023l-0.067-0.023l-0.067-0.024l-0.067-0.024l-0.067-0.024
	l-0.067-0.025l-0.067-0.025l-0.067-0.025l-0.067-0.026l-0.067-0.026l-0.067-0.026l-0.067-0.027l-0.067-0.027l-0.067-0.027
	l-0.067-0.028l-0.067-0.028l-0.067-0.028l-0.067-0.028l-0.067-0.029l-0.067-0.029l-0.067-0.029l-0.067-0.03l-0.067-0.03l-0.067-0.03
	l-0.067-0.031l-0.067-0.031l-0.067-0.031l-0.067-0.031L185.903,27.206L185.903,27.206L185.903,27.206z"/>
<linearGradient id="SVGID_3_" gradientUnits="userSpaceOnUse" x1="177.0795" y1="-53.8741" x2="183.1438" y2="-53.8741" gradientTransform="matrix(2.8346 0 0 -2.8346 -296.9173 -128.8504)">
	<stop  offset="0" style="stop-color:#6E2B2F"/>
	<stop  offset="1" style="stop-color:#E30138"/>
</linearGradient>
<path fill="url(#SVGID_3_)" d="M205.184,18.93c-0.049,0.04-0.097,0.08-0.144,0.12V9.926c0-0.485,0.05-0.959,0.144-1.416
	c0.02-0.098,0.043-0.195,0.067-0.292c0.021-0.083,0.043-0.165,0.067-0.247c0.021-0.073,0.044-0.145,0.067-0.217
	c0.021-0.066,0.044-0.131,0.067-0.195c0.022-0.06,0.044-0.12,0.067-0.179c0.022-0.055,0.044-0.11,0.067-0.165
	c0.022-0.052,0.044-0.103,0.067-0.154c0.022-0.048,0.044-0.096,0.067-0.144c0.022-0.046,0.044-0.091,0.067-0.136
	c0.022-0.043,0.044-0.086,0.067-0.129c0.022-0.041,0.044-0.082,0.067-0.123c0.022-0.039,0.044-0.079,0.067-0.118
	c0.022-0.038,0.044-0.075,0.067-0.113c0.022-0.036,0.044-0.072,0.067-0.108c0.022-0.035,0.045-0.069,0.067-0.103
	c0.022-0.034,0.044-0.067,0.067-0.1c0.022-0.032,0.044-0.065,0.067-0.097c0.022-0.031,0.045-0.061,0.067-0.092
	c0.022-0.03,0.045-0.06,0.067-0.09c0.022-0.029,0.044-0.059,0.067-0.087c0.022-0.028,0.045-0.056,0.067-0.083
	c0.022-0.027,0.045-0.055,0.067-0.082c0.022-0.027,0.045-0.053,0.067-0.079c0.022-0.026,0.045-0.051,0.067-0.076
	c0.022-0.025,0.045-0.05,0.067-0.075c0.022-0.024,0.045-0.048,0.067-0.072c0.022-0.024,0.045-0.047,0.067-0.07
	c0.022-0.023,0.045-0.046,0.067-0.069c0.022-0.022,0.045-0.044,0.067-0.066c0.022-0.022,0.045-0.044,0.067-0.066
	c0.022-0.021,0.045-0.042,0.067-0.063c0.022-0.021,0.045-0.042,0.067-0.062c0.022-0.02,0.045-0.04,0.067-0.06
	c0.022-0.02,0.045-0.039,0.067-0.059c0.022-0.019,0.045-0.038,0.067-0.057c0.022-0.019,0.045-0.037,0.067-0.056
	c0.022-0.018,0.045-0.036,0.067-0.054c0.022-0.018,0.045-0.035,0.067-0.053c0.022-0.017,0.045-0.034,0.067-0.051
	c0.022-0.017,0.045-0.034,0.067-0.05c0.022-0.017,0.045-0.033,0.067-0.049c0.022-0.016,0.045-0.032,0.067-0.048
	c0.022-0.016,0.045-0.031,0.067-0.047c0.022-0.015,0.045-0.031,0.067-0.046c0.022-0.015,0.045-0.03,0.067-0.044
	c0.022-0.015,0.045-0.029,0.067-0.044c0.022-0.014,0.045-0.028,0.067-0.042c0.022-0.014,0.045-0.028,0.067-0.042
	c0.022-0.013,0.045-0.027,0.067-0.04s0.045-0.027,0.067-0.04c0.022-0.013,0.045-0.025,0.067-0.038
	c0.022-0.013,0.045-0.025,0.067-0.037c0.022-0.012,0.045-0.024,0.067-0.036c0.022-0.012,0.045-0.024,0.067-0.035l0.067-0.034
	l0.067-0.033c0.022-0.011,0.045-0.022,0.067-0.033c0.022-0.011,0.045-0.021,0.067-0.031c0.022-0.01,0.045-0.021,0.067-0.031
	c0.022-0.01,0.045-0.02,0.067-0.029c0.022-0.01,0.045-0.02,0.067-0.029c0.022-0.009,0.045-0.019,0.067-0.028l0.067-0.027
	c0.022-0.009,0.045-0.018,0.067-0.027c0.022-0.009,0.045-0.017,0.067-0.026c0.022-0.008,0.045-0.017,0.067-0.025
	c0.022-0.008,0.045-0.016,0.067-0.024c0.022-0.008,0.045-0.016,0.067-0.024c0.022-0.008,0.045-0.015,0.067-0.022l0.067-0.022
	c0.022-0.007,0.045-0.014,0.067-0.021c0.022-0.007,0.045-0.013,0.067-0.02c0.022-0.007,0.045-0.014,0.067-0.02
	c0.022-0.006,0.045-0.012,0.067-0.019l0.067-0.018c0.022-0.006,0.045-0.012,0.067-0.018c0.022-0.006,0.045-0.011,0.067-0.016
	c0.022-0.005,0.045-0.011,0.067-0.016c0.022-0.005,0.045-0.01,0.067-0.015l0.067-0.015c0.022-0.005,0.045-0.01,0.067-0.014
	c0.022-0.005,0.045-0.009,0.067-0.013c0.022-0.004,0.045-0.009,0.067-0.013l0.067-0.012l0.067-0.011
	c0.022-0.004,0.045-0.007,0.067-0.011c0.022-0.003,0.045-0.006,0.067-0.009c0.022-0.003,0.045-0.006,0.067-0.009l0.067-0.008
	l0.067-0.008c0.022-0.003,0.045-0.005,0.067-0.008c0.022-0.002,0.045-0.004,0.067-0.006l0.067-0.006
	c0.022-0.002,0.045-0.004,0.067-0.005c0.022-0.002,0.045-0.003,0.067-0.004c0.022-0.001,0.045-0.003,0.067-0.004
	c0.022-0.001,0.045-0.002,0.067-0.003l0.067-0.003c0.022-0.001,0.045-0.002,0.067-0.003c0.022-0.001,0.045-0.001,0.067-0.001
	c0.022,0,0.045-0.001,0.067-0.001l0.03,0h0.038h0.067h0.067h0.067h0.067h0.067h0.067h0.067h0.067h0.067h0.067h0.067h0.067h0.067
	h0.067h0.067h0.067h0.067h0.067h0.067h0.067h0.067h0.067h0.067h0.067h0.067h0.067h0.067h0.067h0.067h0.067h0.067h0.067h0.067h0.067
	h0.067h0.067h0.067h0.067h0.067h0.067h0.067h0.067h0.067h0.067h0.067h0.067h0.067h0.067h0.067h0.067h0.067h0.067h0.067h0.067h0.067
	h0.067h0.067h0.067h0.067h0.067h0.067h0.067h0.067h0.067h0.067h0.067h0.067h0.067h0.067h0.067h0.067h0.067h0.067h0.067h0.067h0.067
	h0.067h0.067h0.067h0.067h0.067h0.067h0.067h0.067h0.067h0.067h0.067h0.067h0.067h0.067h0.067h0.067h0.067h0.067h0.067h0.067h0.067
	h0.067h0.067h0.067h0.067h0.067h0.067h0.067h0.067h0.067h0.067h0.067h0.067h0.067h0.067h0.067h0.067h0.067h0.067h0.067h0.067h0.067
	h0.067h0.067h0.067h0.067h0.067h0.067h0.067h0.067h0.067h0.067h0.067h0.067h0.067h0.067h0.067h0.067h0.067h0.067h0.067h0.067h0.067
	h0.067h0.067h0.067h0.067h0.067h0.067h0.067h0.067h0.067h0.067h0.067h0.067h0.057v34.846c0,0.303-0.019,0.601-0.057,0.894
	c-0.018,0.141-0.041,0.28-0.067,0.419c-0.02,0.105-0.042,0.21-0.067,0.313c-0.021,0.087-0.043,0.174-0.067,0.26
	c-0.021,0.075-0.044,0.15-0.067,0.224c-0.021,0.067-0.044,0.134-0.067,0.2c-0.022,0.061-0.044,0.122-0.067,0.183
	c-0.022,0.057-0.044,0.113-0.067,0.169c-0.022,0.053-0.044,0.105-0.067,0.157c-0.022,0.049-0.044,0.098-0.067,0.147
	c-0.022,0.046-0.044,0.093-0.067,0.139c-0.022,0.044-0.044,0.088-0.067,0.131c-0.022,0.042-0.044,0.084-0.067,0.125
	c-0.022,0.04-0.044,0.08-0.067,0.119c-0.022,0.038-0.044,0.076-0.067,0.114c-0.022,0.037-0.044,0.073-0.067,0.109
	c-0.022,0.035-0.044,0.07-0.067,0.105c-0.022,0.034-0.044,0.068-0.067,0.101c-0.022,0.033-0.045,0.065-0.067,0.097
	c-0.022,0.031-0.045,0.062-0.067,0.094c-0.022,0.03-0.044,0.061-0.067,0.091c-0.022,0.029-0.045,0.058-0.067,0.088
	c-0.022,0.028-0.045,0.057-0.067,0.085c-0.022,0.028-0.044,0.055-0.067,0.083c-0.022,0.027-0.045,0.053-0.067,0.08
	c-0.022,0.026-0.045,0.052-0.067,0.077c-0.022,0.025-0.045,0.051-0.067,0.076c-0.022,0.024-0.045,0.048-0.067,0.073
	c-0.022,0.024-0.045,0.048-0.067,0.072c-0.022,0.023-0.045,0.046-0.067,0.069c-0.022,0.023-0.045,0.045-0.067,0.067
	c-0.022,0.022-0.045,0.044-0.067,0.066c-0.022,0.021-0.045,0.042-0.067,0.063c-0.022,0.021-0.045,0.042-0.067,0.063
	c-0.022,0.02-0.045,0.04-0.067,0.06c-0.022,0.02-0.044,0.04-0.067,0.06c-0.022,0.019-0.045,0.038-0.067,0.057
	c-0.022,0.019-0.045,0.038-0.067,0.057c-0.022,0.018-0.045,0.036-0.067,0.054c-0.022,0.018-0.045,0.036-0.067,0.054
	c-0.022,0.017-0.045,0.034-0.067,0.051c-0.022,0.017-0.045,0.034-0.067,0.051c-0.022,0.017-0.045,0.033-0.067,0.049
	c-0.022,0.016-0.045,0.033-0.067,0.049c-0.022,0.016-0.045,0.031-0.067,0.047c-0.022,0.015-0.045,0.031-0.067,0.046
	c-0.022,0.015-0.045,0.029-0.067,0.044c-0.022,0.015-0.045,0.03-0.067,0.044c-0.022,0.014-0.045,0.028-0.067,0.042
	c-0.022,0.014-0.045,0.028-0.067,0.042c-0.022,0.014-0.045,0.027-0.067,0.04c-0.022,0.013-0.045,0.027-0.067,0.04
	c-0.022,0.013-0.045,0.026-0.067,0.038l-0.067,0.038l-0.067,0.036l-0.067,0.035c-0.022,0.012-0.045,0.023-0.067,0.035
	c-0.022,0.011-0.045,0.022-0.067,0.033c-0.022,0.011-0.045,0.022-0.067,0.033c-0.022,0.011-0.045,0.021-0.067,0.031
	c-0.022,0.01-0.045,0.021-0.067,0.031c-0.022,0.01-0.045,0.02-0.067,0.03l-0.067,0.029l-0.067,0.028l-0.067,0.027
	c-0.022,0.009-0.045,0.018-0.067,0.027c-0.022,0.009-0.045,0.017-0.067,0.025c-0.022,0.009-0.045,0.017-0.067,0.026
	c-0.022,0.008-0.045,0.016-0.067,0.024l-0.067,0.024l-0.067,0.023c-0.022,0.007-0.045,0.015-0.067,0.022
	c-0.022,0.007-0.045,0.015-0.067,0.022c-0.022,0.007-0.045,0.013-0.067,0.02l-0.067,0.02l-0.067,0.019
	c-0.022,0.006-0.045,0.012-0.067,0.018c-0.022,0.006-0.045,0.012-0.067,0.018c-0.022,0.006-0.045,0.011-0.067,0.016
	c-0.022,0.006-0.045,0.011-0.067,0.016l-0.067,0.015l-0.067,0.015c-0.022,0.005-0.045,0.01-0.067,0.015
	c-0.022,0.005-0.045,0.009-0.067,0.013l-0.067,0.013l-0.067,0.012c-0.022,0.004-0.045,0.007-0.067,0.011
	c-0.022,0.004-0.045,0.008-0.067,0.011c-0.022,0.003-0.045,0.006-0.067,0.01l-0.067,0.009c-0.022,0.003-0.045,0.006-0.067,0.009
	c-0.022,0.003-0.045,0.005-0.067,0.008c-0.022,0.003-0.045,0.005-0.067,0.008c-0.022,0.002-0.045,0.004-0.067,0.006l-0.067,0.006
	c-0.022,0.002-0.045,0.004-0.067,0.006c-0.022,0.002-0.045,0.003-0.067,0.004l-0.067,0.004l-0.067,0.004
	c-0.022,0.001-0.045,0.002-0.067,0.003c-0.022,0.001-0.045,0.002-0.067,0.003c-0.022,0.001-0.045,0.001-0.067,0.001l-0.067,0.001
	c-0.021,0-0.042,0.001-0.063,0.001h-0.004h-0.067h-0.067h-0.067h-0.067h-0.067h-0.067h-0.067h-0.067h-0.067h-0.067h-0.067h-0.067
	h-0.067h-0.067h-0.067h-0.067h-0.067h-0.067h-0.067h-0.067h-0.067h-0.067h-0.067h-0.067h-0.067h-0.067h-0.067h-0.067h-0.067h-0.067
	h-0.067h-0.067h-0.067h-0.067h-0.067h-0.067h-0.067h-0.067h-0.067h-0.067h-0.067h-0.067h-0.067h-0.067h-0.067h-0.067h-0.067h-0.067
	h-0.067h-0.067h-0.067h-0.067h-0.067h-0.067h-0.067h-0.067h-0.067h-0.067h-0.067h-0.067h-0.067h-0.067h-0.067h-0.067h-0.067h-0.067
	h-0.067h-0.067h-0.067h-0.067h-0.067h-0.067h-0.067h-0.067h-0.067h-0.067h-0.067h-0.067h-0.067h-0.067h-0.067h-0.067h-0.067h-0.067
	h-0.067h-0.067h-0.067h-0.067h-0.067h-0.067h-0.067h-0.067h-0.067h-0.067h-0.067h-0.067h-0.067h-0.067h-0.067h-0.067h-0.067h-0.067
	h-0.067h-0.067h-0.067h-0.067h-0.067h-0.067h-0.067h-0.067h-0.067h-0.067h-0.067h-0.067h-0.067h-0.067H207.4h-0.067h-0.067h-0.067
	h-0.067h-0.067h-0.067h-0.067h-0.067h-0.067h-0.067h-0.067h-0.067h-0.067h-0.067h-0.067h-0.067h-0.067h-0.067h-0.067h-0.067h-0.067
	h-0.067h-0.067h-0.067h-0.067h-0.067h-0.067h-0.067h-0.067h-0.067h-0.067h-0.067h-0.067h-0.144V28.68
	c0.047,0.04,0.095,0.08,0.144,0.12c0.022,0.018,0.045,0.036,0.067,0.054c0.022,0.018,0.045,0.035,0.067,0.052
	c0.022,0.017,0.045,0.034,0.067,0.051c0.022,0.017,0.045,0.033,0.067,0.049c0.022,0.016,0.045,0.032,0.067,0.048
	c0.022,0.016,0.045,0.032,0.067,0.047l0.067,0.046c0.022,0.015,0.045,0.03,0.067,0.045l0.067,0.044
	c0.022,0.014,0.045,0.029,0.067,0.043c0.022,0.014,0.045,0.028,0.067,0.042l0.067,0.041c0.022,0.013,0.045,0.027,0.067,0.04
	c0.022,0.013,0.045,0.026,0.067,0.039l0.067,0.038l0.067,0.037l0.067,0.036c0.022,0.012,0.045,0.024,0.067,0.036
	c0.022,0.012,0.045,0.023,0.067,0.035l0.067,0.034l0.067,0.033l0.067,0.032c0.022,0.011,0.045,0.022,0.067,0.032l0.067,0.031
	l0.067,0.031l0.067,0.03l0.067,0.029l0.067,0.029l0.067,0.028l0.067,0.028l0.067,0.027l0.067,0.027l0.067,0.026
	c0.022,0.008,0.045,0.017,0.067,0.025l0.067,0.024c0.022,0.008,0.045,0.016,0.067,0.024c0.022,0.008,0.045,0.016,0.067,0.023
	l0.067,0.023l0.067,0.022c0.022,0.007,0.045,0.015,0.067,0.022c0.022,0.007,0.045,0.014,0.067,0.022l0.067,0.022l0.067,0.021
	l0.067,0.021l0.067,0.02l0.067,0.02l0.067,0.019l0.067,0.019l0.067,0.018l0.067,0.018l0.067,0.018l0.067,0.017l0.067,0.017
	l0.067,0.016l0.067,0.016l0.067,0.016l0.067,0.015l0.067,0.015l0.067,0.015l0.067,0.014l0.067,0.014l0.067,0.014l0.067,0.013
	l0.067,0.013l0.067,0.013l0.067,0.012l0.067,0.012l0.067,0.012l0.067,0.012l0.067,0.011l0.067,0.011l0.067,0.011l0.067,0.01
	l0.067,0.01l0.067,0.01l0.067,0.01l0.067,0.009l0.067,0.009l0.067,0.009l0.067,0.009l0.067,0.008l0.067,0.008l0.067,0.008
	l0.067,0.008l0.067,0.008l0.067,0.007l0.067,0.007l0.067,0.007l0.067,0.006l0.067,0.006l0.067,0.006l0.067,0.006l0.067,0.006
	l0.067,0.005l0.067,0.005l0.067,0.005l0.067,0.005l0.067,0.005l0.067,0.004l0.067,0.004l0.067,0.004l0.067,0.004l0.067,0.003
	l0.067,0.003l0.067,0.003l0.067,0.003l0.067,0.003l0.067,0.003l0.067,0.002l0.067,0.002l0.067,0.002l0.067,0.002l0.067,0.002
	l0.067,0.002l0.067,0.001l0.067,0.001l0.067,0.001l0.067,0.001l0.067,0.001l0.067,0.001l0.067,0l0.067,0l0.067,0l0.067,0l0.067,0
	l0.067,0l0.067-0.001l0.067-0.001l0.067-0.001l0.067-0.001l0.067-0.001l0.067-0.001l0.067-0.001l0.067-0.002l0.067-0.002
	l0.067-0.002l0.067-0.002l0.067-0.002l0.067-0.002l0.067-0.002l0.067-0.003l0.067-0.003l0.067-0.003l0.033-0.001l0.034-0.002
	l0.067-0.003l0.067-0.004l0.067-0.004l0.067-0.004l0.067-0.004l0.067-0.005l0.067-0.005l0.067-0.005l0.067-0.005l0.067-0.005
	l0.067-0.005l0.067-0.006l0.067-0.006l0.067-0.006l0.067-0.006l0.067-0.006l0.067-0.007l0.067-0.007l0.067-0.007l0.067-0.007
	l0.067-0.007l0.067-0.008l0.067-0.008l0.067-0.008l0.067-0.008l0.067-0.008l0.067-0.008l0.067-0.009l0.067-0.009l0.067-0.009
	l0.067-0.009l0.067-0.009l0.067-0.009l0.067-0.009l0.067-0.01l0.067-0.01l0.067-0.01l0.067-0.01l0.067-0.01l0.067-0.01l0.067-0.011
	l0.067-0.011l0.067-0.011l0.067-0.011l0.067-0.011l0.067-0.011l0.067-0.011l0.067-0.011l0.067-0.012l0.067-0.012l0.067-0.012
	l0.067-0.012l0.067-0.012l0.067-0.012l0.067-0.012l0.067-0.013l0.067-0.013l0.067-0.013l0.067-0.013l0.067-0.013l0.067-0.013
	l0.067-0.013l0.067-0.013l0.067-0.014l0.067-0.014l0.067-0.014l0.067-0.014l0.067-0.014l0.067-0.014l0.067-0.014l0.067-0.015
	l0.067-0.015l0.067-0.015l0.067-0.015l0.067-0.015l0.067-0.015l0.067-0.016l0.067-0.016l0.067-0.016l0.067-0.016l0.067-0.017v-2.948
	l-0.067,0.033l-0.067,0.033l-0.067,0.033l-0.067,0.033l-0.067,0.032l-0.067,0.032l-0.067,0.032l-0.067,0.031l-0.067,0.031
	l-0.067,0.031l-0.067,0.03l-0.067,0.03l-0.067,0.03l-0.067,0.029l-0.067,0.029l-0.067,0.029l-0.067,0.028l-0.067,0.028l-0.067,0.027
	l-0.067,0.027l-0.067,0.027l-0.067,0.026l-0.067,0.026l-0.067,0.026l-0.067,0.025l-0.067,0.025l-0.067,0.024l-0.067,0.024
	l-0.067,0.024l-0.067,0.023l-0.067,0.023l-0.067,0.023l-0.067,0.022l-0.067,0.022l-0.067,0.021l-0.067,0.021l-0.067,0.021
	l-0.067,0.02l-0.067,0.02l-0.067,0.02l-0.067,0.019l-0.067,0.019l-0.067,0.018l-0.067,0.018l-0.067,0.018l-0.067,0.017l-0.067,0.017
	l-0.067,0.016l-0.067,0.016l-0.067,0.016l-0.067,0.015l-0.067,0.015l-0.067,0.015l-0.067,0.014l-0.067,0.014l-0.067,0.013
	l-0.067,0.013l-0.067,0.013l-0.067,0.012l-0.067,0.012l-0.067,0.012l-0.067,0.011l-0.067,0.011l-0.067,0.011l-0.067,0.01
	l-0.067,0.01l-0.067,0.009l-0.067,0.009l-0.067,0.009l-0.067,0.008l-0.067,0.008l-0.067,0.008l-0.067,0.007l-0.067,0.007
	l-0.067,0.006l-0.067,0.006l-0.067,0.006l-0.067,0.005l-0.041,0.003l-0.026,0.002l-0.067,0.005l-0.067,0.004l-0.067,0.004
	l-0.067,0.003l-0.067,0.003l-0.067,0.002l-0.067,0.002l-0.067,0.001l-0.067,0.001l-0.067,0.001c-0.023,0-0.045,0-0.067,0l-0.067,0
	l-0.067-0.001l-0.067-0.001l-0.067-0.002c-0.023-0.001-0.045-0.002-0.067-0.003c-0.022-0.001-0.045-0.002-0.067-0.003l-0.067-0.004
	l-0.067-0.004l-0.067-0.005l-0.067-0.005c-0.022-0.002-0.045-0.003-0.067-0.005c-0.023-0.002-0.045-0.005-0.067-0.007l-0.067-0.007
	l-0.067-0.008l-0.067-0.008l-0.067-0.009l-0.067-0.01c-0.022-0.003-0.045-0.006-0.067-0.01c-0.023-0.004-0.045-0.007-0.067-0.011
	c-0.022-0.004-0.045-0.007-0.067-0.011c-0.023-0.004-0.045-0.008-0.067-0.013c-0.022-0.004-0.045-0.008-0.067-0.013
	c-0.023-0.004-0.045-0.009-0.067-0.014c-0.022-0.005-0.045-0.009-0.067-0.014c-0.023-0.005-0.045-0.01-0.067-0.015l-0.067-0.016
	c-0.023-0.005-0.045-0.011-0.067-0.017c-0.022-0.006-0.045-0.011-0.067-0.017c-0.023-0.006-0.045-0.012-0.067-0.019
	c-0.022-0.006-0.045-0.013-0.067-0.019c-0.023-0.007-0.045-0.013-0.067-0.02c-0.022-0.007-0.045-0.014-0.067-0.021
	c-0.023-0.007-0.045-0.015-0.067-0.022c-0.022-0.008-0.045-0.015-0.067-0.023c-0.023-0.008-0.045-0.016-0.067-0.024
	c-0.022-0.008-0.045-0.016-0.067-0.025c-0.023-0.009-0.045-0.018-0.067-0.026c-0.022-0.009-0.045-0.018-0.067-0.027
	c-0.023-0.009-0.045-0.019-0.067-0.029c-0.022-0.01-0.045-0.019-0.067-0.029c-0.023-0.01-0.045-0.021-0.067-0.031
	c-0.022-0.01-0.045-0.021-0.067-0.032c-0.023-0.011-0.045-0.022-0.067-0.033c-0.023-0.011-0.045-0.023-0.067-0.035
	c-0.022-0.012-0.045-0.023-0.067-0.036c-0.023-0.012-0.045-0.025-0.067-0.038c-0.022-0.013-0.045-0.025-0.067-0.039
	c-0.023-0.013-0.045-0.027-0.067-0.041c-0.023-0.014-0.045-0.028-0.067-0.042c-0.022-0.014-0.045-0.029-0.067-0.043
	c-0.023-0.015-0.045-0.031-0.067-0.046c-0.023-0.016-0.045-0.031-0.067-0.047c-0.023-0.016-0.045-0.032-0.067-0.049
	c-0.023-0.017-0.045-0.035-0.067-0.052c-0.023-0.018-0.045-0.036-0.067-0.054c-0.023-0.018-0.045-0.037-0.067-0.056
	c-0.023-0.019-0.045-0.039-0.067-0.059c-0.023-0.02-0.045-0.041-0.067-0.061c-0.023-0.021-0.045-0.042-0.067-0.064
	c-0.023-0.022-0.045-0.044-0.067-0.067c-0.023-0.023-0.045-0.047-0.067-0.071c-0.023-0.024-0.045-0.049-0.067-0.074
	c-0.023-0.026-0.045-0.052-0.067-0.078c-0.023-0.027-0.045-0.054-0.067-0.082c-0.023-0.029-0.045-0.058-0.067-0.087
	c-0.023-0.03-0.045-0.061-0.067-0.092c-0.023-0.032-0.045-0.065-0.067-0.098c-0.023-0.035-0.045-0.069-0.067-0.105
	c-0.023-0.037-0.045-0.075-0.067-0.112c-0.023-0.04-0.045-0.08-0.067-0.121c-0.023-0.043-0.045-0.087-0.067-0.132
	c-0.023-0.047-0.046-0.095-0.067-0.144c-0.023-0.052-0.046-0.105-0.067-0.158c-0.024-0.059-0.046-0.119-0.067-0.18
	c-0.024-0.068-0.046-0.136-0.067-0.205c-0.024-0.081-0.047-0.163-0.067-0.246c-0.025-0.104-0.048-0.21-0.067-0.318
	c-0.029-0.16-0.051-0.324-0.067-0.493c-0.018-0.195-0.027-0.396-0.027-0.603c0-0.207,0.009-0.408,0.027-0.603
	c0.016-0.169,0.038-0.334,0.067-0.494c0.02-0.108,0.042-0.214,0.067-0.318c0.02-0.083,0.043-0.165,0.067-0.246
	c0.021-0.07,0.043-0.138,0.067-0.206c0.021-0.061,0.043-0.121,0.067-0.18c0.021-0.054,0.044-0.106,0.067-0.158
	c0.022-0.049,0.044-0.096,0.067-0.144c0.022-0.044,0.044-0.088,0.067-0.132c0.022-0.041,0.044-0.081,0.067-0.121
	c0.022-0.038,0.044-0.075,0.067-0.112c0.022-0.035,0.044-0.07,0.067-0.105c0.022-0.033,0.044-0.066,0.067-0.098
	c0.022-0.031,0.044-0.062,0.067-0.092c0.022-0.029,0.044-0.058,0.067-0.087c0.022-0.028,0.044-0.055,0.067-0.082
	c0.022-0.026,0.044-0.052,0.067-0.078c0.022-0.025,0.044-0.05,0.067-0.074c0.022-0.024,0.044-0.048,0.067-0.071
	c0.022-0.023,0.045-0.045,0.067-0.067c0.022-0.022,0.045-0.043,0.067-0.064c0.022-0.021,0.044-0.041,0.067-0.062
	c0.022-0.02,0.044-0.04,0.067-0.059c0.022-0.019,0.045-0.037,0.067-0.056c0.022-0.018,0.045-0.036,0.067-0.054
	c0.022-0.018,0.044-0.035,0.067-0.052c0.022-0.017,0.045-0.033,0.067-0.049c0.022-0.016,0.045-0.032,0.067-0.047
	c0.022-0.015,0.044-0.031,0.067-0.046c0.022-0.015,0.045-0.029,0.067-0.043c0.022-0.014,0.045-0.028,0.067-0.042
	c0.022-0.014,0.045-0.027,0.067-0.041c0.022-0.013,0.045-0.026,0.067-0.039c0.022-0.013,0.044-0.025,0.067-0.038
	c0.022-0.012,0.045-0.024,0.067-0.036c0.022-0.012,0.045-0.023,0.067-0.035c0.022-0.011,0.045-0.022,0.067-0.033
	c0.022-0.011,0.045-0.021,0.067-0.032c0.022-0.01,0.045-0.021,0.067-0.031c0.022-0.01,0.045-0.019,0.067-0.029
	c0.022-0.01,0.045-0.019,0.067-0.029c0.022-0.009,0.045-0.018,0.067-0.027c0.022-0.009,0.045-0.018,0.067-0.026
	c0.022-0.008,0.045-0.017,0.067-0.025c0.022-0.008,0.045-0.016,0.067-0.024c0.022-0.008,0.045-0.015,0.067-0.023
	c0.022-0.007,0.045-0.015,0.067-0.022c0.022-0.007,0.045-0.014,0.067-0.021c0.022-0.007,0.045-0.014,0.067-0.02l0.067-0.019
	c0.022-0.006,0.045-0.013,0.067-0.019c0.022-0.006,0.045-0.012,0.067-0.017c0.022-0.006,0.045-0.011,0.067-0.017l0.067-0.016
	c0.022-0.005,0.045-0.01,0.067-0.015c0.022-0.005,0.045-0.009,0.067-0.014s0.045-0.01,0.067-0.014
	c0.022-0.004,0.045-0.008,0.067-0.013c0.022-0.004,0.045-0.009,0.067-0.013c0.022-0.004,0.045-0.007,0.067-0.011
	c0.022-0.004,0.045-0.008,0.067-0.011l0.067-0.01l0.067-0.01l0.067-0.009l0.067-0.008l0.067-0.008l0.067-0.007
	c0.022-0.002,0.045-0.005,0.067-0.007c0.022-0.002,0.045-0.004,0.067-0.005l0.067-0.005l0.067-0.005l0.067-0.004l0.067-0.004
	c0.022-0.001,0.045-0.002,0.067-0.003c0.022-0.001,0.045-0.002,0.067-0.003l0.067-0.002l0.067-0.001l0.067-0.001l0.067,0
	c0.022,0,0.045,0,0.067,0l0.067,0.001l0.067,0.001l0.067,0.001l0.067,0.002l0.067,0.002l0.067,0.003l0.067,0.003l0.067,0.004
	l0.067,0.004l0.067,0.005l0.026,0.002l0.041,0.003l0.067,0.005l0.067,0.006l0.067,0.006l0.067,0.006l0.067,0.007l0.067,0.007
	l0.067,0.007l0.067,0.008l0.067,0.008l0.067,0.009l0.067,0.009l0.067,0.009l0.067,0.01l0.067,0.01l0.067,0.01l0.067,0.011
	l0.067,0.011l0.067,0.012l0.067,0.012l0.067,0.012l0.067,0.013l0.067,0.013l0.067,0.013l0.067,0.014l0.067,0.014l0.067,0.014
	l0.067,0.015l0.067,0.015l0.067,0.016l0.067,0.016l0.067,0.016l0.067,0.017l0.067,0.017l0.067,0.018l0.067,0.018l0.067,0.018
	l0.067,0.019l0.067,0.019l0.067,0.02l0.067,0.02l0.067,0.02l0.067,0.021l0.067,0.021l0.067,0.021l0.067,0.022l0.067,0.022
	l0.067,0.023l0.067,0.023l0.067,0.023l0.067,0.024l0.067,0.024l0.067,0.025l0.067,0.025l0.067,0.025l0.067,0.026l0.067,0.026
	l0.067,0.026l0.067,0.027l0.067,0.027l0.067,0.028l0.067,0.028l0.067,0.028l0.067,0.029l0.067,0.029l0.067,0.029l0.067,0.03
	l0.067,0.03l0.067,0.031l0.067,0.031l0.067,0.031l0.067,0.032l0.067,0.032l0.067,0.032l0.067,0.033l0.067,0.033l0.067,0.033
	l0.067,0.034l0.067,0.034v-2.95l-0.067-0.017l-0.067-0.016l-0.067-0.016l-0.067-0.016l-0.067-0.016l-0.067-0.015l-0.067-0.015
	l-0.067-0.015l-0.067-0.015l-0.067-0.015l-0.067-0.015l-0.067-0.014l-0.067-0.014l-0.067-0.014l-0.067-0.014l-0.067-0.014
	l-0.067-0.014l-0.067-0.014l-0.067-0.013l-0.067-0.013l-0.067-0.013l-0.067-0.013l-0.067-0.013l-0.067-0.013l-0.067-0.013
	l-0.067-0.013l-0.067-0.012l-0.067-0.012l-0.067-0.012l-0.067-0.012l-0.067-0.012l-0.067-0.012l-0.067-0.012l-0.067-0.011
	l-0.067-0.011l-0.067-0.011l-0.067-0.011l-0.067-0.011l-0.067-0.011l-0.067-0.011l-0.067-0.01l-0.067-0.01l-0.067-0.01l-0.067-0.01
	l-0.067-0.01l-0.067-0.01l-0.067-0.01l-0.067-0.009l-0.067-0.009l-0.067-0.009L216.869,17l-0.067-0.009l-0.067-0.009l-0.067-0.009
	l-0.067-0.008l-0.067-0.008l-0.067-0.008l-0.067-0.008l-0.067-0.008l-0.067-0.008l-0.067-0.007l-0.067-0.007l-0.067-0.007
	l-0.067-0.007l-0.067-0.007l-0.067-0.006l-0.067-0.006l-0.067-0.006l-0.067-0.006l-0.067-0.006l-0.067-0.005l-0.067-0.005
	l-0.067-0.005l-0.067-0.005l-0.067-0.005l-0.067-0.005l-0.067-0.004l-0.067-0.004l-0.067-0.004l-0.067-0.004l-0.067-0.003
	l-0.034-0.002l-0.033-0.001l-0.067-0.003l-0.067-0.003l-0.067-0.003l-0.067-0.002l-0.067-0.002l-0.067-0.002l-0.067-0.002
	l-0.067-0.002l-0.067-0.002l-0.067-0.002l-0.067-0.001l-0.067-0.001l-0.067-0.001l-0.067-0.001l-0.067-0.001l-0.067-0.001
	l-0.067-0.001l-0.067,0l-0.067,0l-0.067,0l-0.067,0l-0.067,0l-0.067,0l-0.067,0.001l-0.067,0.001l-0.067,0.001l-0.067,0.001
	l-0.067,0.001l-0.067,0.001l-0.067,0.002l-0.067,0.002l-0.067,0.002l-0.067,0.002l-0.067,0.002l-0.067,0.002l-0.067,0.003
	l-0.067,0.003l-0.067,0.003l-0.067,0.003l-0.067,0.003l-0.067,0.003l-0.067,0.004l-0.067,0.004l-0.067,0.004l-0.067,0.004
	l-0.067,0.005l-0.067,0.005l-0.067,0.005l-0.067,0.005l-0.067,0.005l-0.067,0.006l-0.067,0.006l-0.067,0.006l-0.067,0.006
	l-0.067,0.006l-0.067,0.007l-0.067,0.007l-0.067,0.007l-0.067,0.008l-0.067,0.008l-0.067,0.008l-0.067,0.008l-0.067,0.008
	l-0.067,0.009l-0.067,0.009l-0.067,0.009l-0.067,0.009l-0.067,0.01L210.153,17l-0.067,0.01l-0.067,0.01l-0.067,0.011l-0.067,0.011
	l-0.067,0.011l-0.067,0.012l-0.067,0.012l-0.067,0.012l-0.067,0.012l-0.067,0.013l-0.067,0.013l-0.067,0.013l-0.067,0.014
	l-0.067,0.014l-0.067,0.014l-0.067,0.015l-0.067,0.015l-0.067,0.015l-0.067,0.015l-0.067,0.016l-0.067,0.016l-0.067,0.017
	l-0.067,0.017l-0.067,0.018l-0.067,0.018l-0.067,0.018l-0.067,0.019l-0.067,0.019l-0.067,0.02l-0.067,0.02l-0.067,0.021
	l-0.067,0.021l-0.067,0.022c-0.022,0.007-0.045,0.014-0.067,0.022l-0.067,0.022c-0.022,0.007-0.045,0.015-0.067,0.022l-0.067,0.023
	l-0.067,0.023c-0.023,0.008-0.045,0.016-0.067,0.024c-0.022,0.008-0.045,0.016-0.067,0.024l-0.067,0.025
	c-0.022,0.009-0.045,0.017-0.067,0.026l-0.067,0.027l-0.067,0.027l-0.067,0.028l-0.067,0.028l-0.067,0.029l-0.067,0.029l-0.067,0.03
	l-0.067,0.031l-0.067,0.031c-0.023,0.011-0.045,0.021-0.067,0.032l-0.067,0.033l-0.067,0.033l-0.067,0.034
	c-0.022,0.012-0.045,0.023-0.067,0.035c-0.023,0.012-0.045,0.024-0.067,0.036l-0.067,0.036l-0.067,0.037
	c-0.023,0.013-0.045,0.025-0.067,0.038c-0.022,0.013-0.045,0.026-0.067,0.039c-0.023,0.013-0.045,0.027-0.067,0.04
	c-0.023,0.014-0.045,0.027-0.067,0.041c-0.022,0.014-0.045,0.028-0.067,0.042c-0.023,0.014-0.045,0.029-0.067,0.043l-0.067,0.044
	c-0.023,0.015-0.045,0.03-0.067,0.045l-0.067,0.046c-0.023,0.016-0.045,0.031-0.067,0.047c-0.023,0.016-0.045,0.032-0.067,0.048
	c-0.022,0.016-0.045,0.033-0.067,0.049c-0.023,0.017-0.045,0.034-0.067,0.051c-0.023,0.017-0.045,0.035-0.067,0.052
	C205.229,18.894,205.207,18.912,205.184,18.93L205.184,18.93L205.184,18.93z"/>
</svg>
