<?xml version="1.0" encoding="utf-8"?>
<!-- Generator: Adobe Illustrator 17.0.0, SVG Export Plug-In . SVG Version: 6.00 Build 0)  -->
<!DOCTYPE svg PUBLIC "-//W3C//DTD SVG 1.1//EN" "http://www.w3.org/Graphics/SVG/1.1/DTD/svg11.dtd">
<svg version="1.1" id="Camada_1" xmlns="http://www.w3.org/2000/svg" xmlns:xlink="http://www.w3.org/1999/xlink" x="0px" y="0px"
	 viewBox="177.273 0 72.727 50" enable-background="new 177.273 0 72.727 50" xml:space="preserve">
<path d="M250,46.97c0,1.673-1.357,3.03-3.03,3.03h-66.667c-1.673,0-3.03-1.357-3.03-3.03V5.303c0-1.673,1.357-3.03,3.03-3.03h66.667
	c1.673,0,3.03,1.357,3.03,3.03V46.97z"/>
<path fill="#333333" d="M250.063,44.697c0,1.673-1.357,3.03-3.03,3.03h-66.667c-1.673,0-3.03-1.357-3.03-3.03V3.03
	c0-1.673,1.357-3.03,3.03-3.03h66.667c1.673,0,3.03,1.357,3.03,3.03V44.697z"/>
<line id="line2997" fill="none" x1="206.603" y1="31.856" x2="208.383" y2="29.009"/>
<g>
	<path id="path3019" fill="#FFFFFF" d="M217.042,28.958c-1.501,1.449-3.27,1.636-5.309,0.562l-1.561,2.498
		c3.51,1.747,5.831,1.57,9.025-0.906L217.042,28.958z"/>
	<g>
		<path id="path3017" fill="#FFFFFF" d="M210.939,19.246c-3.55,1.582-5.636,6.377-2.953,10.586l13.21-5.621
			C219.8,19.116,214.706,17.567,210.939,19.246z M209.719,26.381c-0.05-4.959,5.186-6.26,7.557-3.248L209.719,26.381z"/>
		<path id="path3021" fill="#FFFFFF" d="M222.569,15.28l0.031,14.271c-0.008,2.645,2.725,3.005,4.06,3.623l1.093-2.717l-2.373-1.062
			l-0.062-14.115L222.569,15.28L222.569,15.28z"/>
		<g>
			<path id="path3019_2_" fill="#FFFFFF" d="M235.393,21.825c2.08-0.16,3.608,1.199,4.494,3.326l2.906-0.729
				c-0.837-3.682-4.477-6.01-8.054-5.512L235.393,21.825z"/>
			<path id="path3019_4_" fill="#FFFFFF" d="M239.587,28.005c-0.9,1.882-2.841,2.527-5.126,2.233l-0.82,2.881
				c3.608,1.114,7.443-0.877,8.798-4.224L239.587,28.005z"/>
			<path id="path3019_1_" fill="#FFFFFF" d="M232.19,28.661c-1.249-1.671-0.921-3.689,0.4-5.577l-2.172-2.063
				c-2.661,2.679-2.676,7.001-0.339,9.754L232.19,28.661z"/>
		</g>
	</g>
</g>
<g>
	<path id="path3019_6_" fill="#FFDE00" d="M192.675,19.614c2.856-0.219,4.955,1.647,6.172,4.567l3.99-1.001
		c-1.149-5.056-6.148-8.253-11.059-7.569L192.675,19.614z"/>
	<path id="path3019_5_" fill="#EF4023" d="M198.435,28.1c-1.236,2.584-3.901,3.47-7.039,3.066l-1.126,3.957
		c4.954,1.53,10.221-1.204,12.081-5.8L198.435,28.1z"/>
	<path id="path3019_3_" fill="#1D9AD6" d="M188.278,29.001c-1.716-2.294-1.265-5.066,0.55-7.658l-2.983-2.833
		c-3.654,3.679-3.675,9.613-0.466,13.393L188.278,29.001z"/>
</g>
</svg>
