<svg id="Layer_1" xmlns="http://www.w3.org/2000/svg" viewBox="0 0 96 66"><style>.st0{fill:#000030}.st1{fill:#006}.st2{fill:#f3c600}.st3{fill:#e30b13}.st4{fill:#1d1d1b}.st5{fill:#fff}</style><path class="st0" d="M96 62a4 4 0 0 1-4 4H4a4 4 0 0 1-4-4V7a4 4 0 0 1 4-4h88a4 4 0 0 1 4 4v55z"/><path class="st1" d="M96 59a4 4 0 0 1-4 4H4a4 4 0 0 1-4-4V4a4 4 0 0 1 4-4h88a4 4 0 0 1 4 4v55z"/><path class="st2" d="M48.005 46.603a20.208 20.208 0 0 0 13.632 5.265c11.216 0 20.31-9.116 20.31-20.364 0-11.251-9.094-20.371-20.31-20.371a20.186 20.186 0 0 0-13.632 5.273 20.335 20.335 0 0 0-6.682 15.098 20.352 20.352 0 0 0 6.682 15.099z"/><path class="st3" d="M54.563 29.344a18.316 18.316 0 0 0-.342-2.157H41.783c.158-.734.359-1.453.593-2.156h11.257a20.683 20.683 0 0 0-.859-2.159H43.24c.348-.746.737-1.462 1.17-2.154h7.192a20.241 20.241 0 0 0-1.549-2.154h-4.097a20.605 20.605 0 0 1 2.049-2.159 20.219 20.219 0 0 0-13.636-5.273c-11.218 0-20.317 9.12-20.317 20.371 0 11.249 9.098 20.364 20.317 20.364a20.236 20.236 0 0 0 13.636-5.265 21.115 21.115 0 0 0 2.048-2.161h-4.097a19.786 19.786 0 0 1-1.546-2.159h7.192a19.64 19.64 0 0 0 1.172-2.157H43.24a19.795 19.795 0 0 1-.864-2.152h11.257c.235-.702.428-1.425.588-2.158.155-.706.269-1.422.342-2.158a19.64 19.64 0 0 0 0-4.313z"/><path class="st4" d="M39.966 34.984c0-.08.013-.196.039-.349l.573-3.432h1.328l.315-2.118h-1.328l.247-1.247h-2.113l-.956 5.733-.101.663-.133.823a4.55 4.55 0 0 0-.069.757c0 1.191.64 1.841 1.669 1.841.509 0 .983-.077 1.662-.273l.292-1.859a2.666 2.666 0 0 1-.672.085c-.521.003-.753-.194-.753-.624zm-7.903-3.624c0-1.612-.998-2.462-2.893-2.462-.815 0-1.537.132-2.563.446l-.308 1.886.13-.033.298-.088a7.131 7.131 0 0 1 1.837-.253c1.022 0 1.482.176 1.482.727 0 .155-.022.272-.091.547a7.922 7.922 0 0 0-.97-.032c-2 .028-3.302.854-3.649 2.144a4.102 4.102 0 0 0-.166 1.095c0 1.357.897 2.296 1.961 2.296 1.171 0 1.824-.359 2.31-1.018l-.043.871h1.909l.019-.225.04-.293.059-.425.074-.536.459-2.98c.147-.933.105-1.251.105-1.667zm-4.022 4.487c-.484 0-.792-.333-.792-.858 0-.797.63-1.281 1.88-1.281.161 0 .2.011.434.04-.037 1.241-.457 2.099-1.522 2.099zm-5.566-8.689l-2.139 6.394-.09-6.394h-3.173l-1.724 10.328h2.143l1.329-7.895.185 7.895h1.5l2.816-7.943-1.26 7.943h2.207l1.694-10.328h-3.488zm54.662 0l-.484 2.952c-.528-.798-1.159-1.18-2.016-1.18-1.166 0-2.218.666-2.895 1.905l.007-.012-1.402-.838.109-.899h-2.338l-1.345 8.4h2.209l.724-4.52s.569-.628.713-.827a1.25 1.25 0 0 1 .983-.523c-.255.707-.407 1.543-.407 2.495 0 2.1 1.091 3.488 2.696 3.488.808 0 1.436-.282 2.037-.932l-.103.82h2.082l1.679-10.328h-2.249zm-2.684 8.352c-.749 0-1.126-.556-1.126-1.656 0-1.651.705-2.821 1.71-2.821.757 0 1.164.574 1.164 1.644 0 1.664-.719 2.833-1.748 2.833zm-25.995-1.506c.19-.853.265-1.454.265-2.07 0-1.864-1.154-3.057-2.973-3.057-2.216 0-3.848 2.119-3.848 5.012 0 2.463 1.39 3.758 3.747 3.758a7.65 7.65 0 0 0 2.254-.34l.368-2.1c-.788.37-1.505.535-2.286.535-1.281 0-1.934-.499-1.934-1.476 0-.075.005-.133.026-.262h4.381zm-2.891-3.207c.657 0 1.047.401 1.047 1.081 0 .112-.007.254-.021.434l-2.432-.005c.21-.972.71-1.51 1.406-1.51zm10.142 2.236c0-2.274 1.157-3.871 2.807-3.871.609 0 1.177.164 1.967.559l.357-2.242a7.804 7.804 0 0 0-.531-.202l-.905-.228a3.906 3.906 0 0 0-.986-.107c-1.099 0-1.734.015-2.401.419a5.948 5.948 0 0 0-1.309 1.102l-.262-.074-2.25 1.596.111-.899H49.97l-1.35 8.4h2.206l.811-4.52s.312-.619.46-.815c.403-.546.765-.55 1.224-.535.054.004.129.004.152.004a12.379 12.379 0 0 0-.098 1.594c0 2.752 1.557 4.464 3.929 4.464.61 0 1.131-.079 1.947-.3l.387-2.36c-.734.361-1.333.533-1.873.533-1.281 0-2.056-.95-2.056-2.518zm11.092-1.673c0-1.612-1.002-2.462-2.9-2.462-.806 0-1.53.132-2.564.446l-.3 1.886.129-.033.305-.088a7.011 7.011 0 0 1 1.825-.253c1.032 0 1.487.176 1.487.727 0 .155-.017.272-.088.547-.328-.037-.718-.032-.968-.032-2.389 0-3.872 1.231-3.886 3.231-.011 1.387.962 2.303 2.029 2.303 1.175 0 1.824-.359 2.312-1.018l-.048.871h1.911l.015-.225.045-.293.054-.425.076-.536.461-2.98c.147-.932.105-1.25.105-1.666zm-4.021 4.487c-.485 0-.795-.333-.795-.858 0-.797.633-1.281 1.879-1.281.165 0 .206.011.443.04-.043 1.241-.463 2.099-1.527 2.099zm-30.308-4.075c0 .999.485 1.746 1.647 2.298.897.424 1.045.497 1.045.878 0 .522-.456.82-1.326.82a6.051 6.051 0 0 1-1.969-.332l-.257 1.934.05.009.396.089c.131.019.326.057.587.078.522.046.962.078 1.248.078 2.445 0 3.457-.948 3.457-2.803 0-1.149-.547-1.833-1.65-2.337-.926-.427-1.034-.486-1.032-.878.002-.387.406-.72 1.081-.721.428-.004 1.022.041 1.656.125l.308-1.936a14.682 14.682 0 0 0-1.964-.173c-2.468-.001-3.277 1.318-3.277 2.871z"/><path class="st5" d="M41.222 30.479h1.132l.298-2.045H41.53l.251-1.246h-2.192l-.954 5.735-.102.666-.134.82a5.03 5.03 0 0 0-.066.754c0 1.197.616 1.845 1.743 1.845.506 0 .979-.081 1.584-.27l.29-1.862c-.151.055-.348.08-.59.08-.526 0-.753-.191-.753-.623 0-.076.007-.192.034-.346l.581-3.508zm7.724 2.876c.187-.851.263-1.459.263-2.075 0-1.867-1.153-3.055-2.966-3.055-2.225 0-3.851 2.125-3.851 5.009 0 2.47 1.277 3.761 3.743 3.761a7.342 7.342 0 0 0 2.256-.343l.369-2.095c-.793.367-1.5.529-2.29.529-1.283 0-1.933-.492-1.933-1.469 0-.075.006-.131.02-.262h4.389zm-2.81-3.207c.652 0 1.039.396 1.039 1.081 0 .112-.008.255-.015.429l-2.435-.006c.205-.971.705-1.504 1.411-1.504zM23.109 26.51l-2.137 6.393-.092-6.393h-3.175l-1.718 10.326h2.065l1.33-7.894.184 7.894h1.506l2.818-7.938-1.265 7.938h2.206l1.706-10.326h-3.428zm13.427 3.722c.436 0 1.027.046 1.587.129l.311-1.946a14.821 14.821 0 0 0-1.938-.168c-2.462 0-3.313 1.295-3.309 2.844 0 1.061.515 1.794 1.675 2.342.899.421 1.036.546 1.036.927 0 .523-.391.759-1.266.759-.659 0-1.267-.1-1.974-.332l-.302 1.938.1.019.4.085c.133.028.318.046.579.076.518.045.927.065 1.211.065 2.321 0 3.398-.881 3.398-2.8 0-1.155-.448-1.832-1.552-2.339-.92-.426-1.031-.52-1.031-.912-.001-.453.364-.687 1.075-.687zm-3.837.481c0-1.612-1.001-2.468-2.894-2.468-.813 0-1.539.125-2.632.448l-.313 1.883.2-.049.308-.087c.489-.146 1.201-.24 1.828-.24 1.03 0 1.412.21 1.412.764 0 .154-.018.275-.086.548a7.072 7.072 0 0 0-.899-.064c-2.442 0-3.868 1.192-3.868 3.237 0 1.362.82 2.293 2.015 2.293 1.01 0 1.752-.329 2.307-1.011l-.039.866h1.827l.027-.227.037-.289.058-.429.072-.534.468-2.975c.141-.938.172-1.253.172-1.666zm-4.021 4.48c-.48 0-.794-.332-.794-.855 0-.847.635-1.279 1.884-1.279.161 0 .264.008.489.036-.036 1.243-.685 2.098-1.579 2.098zm49.096-8.683l-.485 2.948c-.6-.791-1.253-1.152-2.107-1.152-1.947 0-3.59 2.358-3.59 5.153 0 2.102 1.059 3.488 2.666 3.488.803 0 1.431-.284 2.035-.929l-.107.817h2.087l1.678-10.326h-2.177zm-2.753 8.351c-.759 0-1.133-.558-1.133-1.653 0-1.656.709-2.83 1.709-2.83.753 0 1.172.584 1.172 1.648 0 1.665-.723 2.835-1.748 2.835zm-10.48-6.615c-.814 0-1.541.125-2.644.448l-.299 1.883.199-.049.303-.087c.492-.146 1.206-.24 1.835-.24 1.021 0 1.41.21 1.41.764 0 .154-.02.275-.091.548a6.896 6.896 0 0 0-.891-.064c-2.45 0-3.871 1.192-3.871 3.237 0 1.362.818 2.293 2.01 2.293 1.012 0 1.752-.329 2.313-1.011l-.044.866h1.823l.026-.227.047-.289.054-.429.077-.534.454-2.975c.15-.941.184-1.255.184-1.668.002-1.611-1.004-2.466-2.895-2.466zm-1.128 6.947c-.485 0-.79-.332-.79-.855 0-.847.633-1.279 1.883-1.279.156 0 .259.008.488.036-.038 1.243-.682 2.098-1.581 2.098zm8.337-4.37c.197-1.012.467-1.757.841-2.433l-.075-.024a1.196 1.196 0 0 0-.227-.019c-.718 0-1.134.368-1.804 1.367l.187-1.28h-1.99l-1.344 8.403h2.206c.788-5.137.997-6.022 2.052-6.022.069-.001.064-.003.154.008zm-15.44 1.561c0-2.274 1.153-3.871 2.797-3.871.613 0 1.18.163 1.97.56l.359-2.244a10.243 10.243 0 0 0-.531-.205l-.903-.227a4.15 4.15 0 0 0-.991-.106c-2.919 0-4.96 2.58-4.96 6.274 0 2.75 1.482 4.463 3.853 4.463.613 0 1.137-.084 1.946-.304l.388-2.354c-.725.361-1.331.528-1.868.528-1.288.001-2.06-.946-2.06-2.514zm-1.951-4.018a1.16 1.16 0 0 0-.221-.019c-.722 0-1.135.368-1.808 1.367l.19-1.28h-1.994l-1.34 8.403h2.205c.789-5.137.996-6.022 2.055-6.022.064 0 .069-.002.164.008.195-1.012.464-1.757.835-2.433l-.086-.024zm25.545 7.228a.656.656 0 0 0-.66.66c0 .362.288.662.66.662.357 0 .658-.3.658-.662a.664.664 0 0 0-.658-.66zm0 1.161a.502.502 0 0 1 0-1.005c.273 0 .495.222.495.503s-.222.502-.495.502zm.241-.62c0-.056-.03-.11-.081-.142-.037-.026-.088-.031-.139-.031h-.245v.585h.128v-.233h.101l.091.233h.154l-.107-.256a.17.17 0 0 0 .098-.156zm-.177.069c-.022.012-.053.008-.083.008h-.077v-.148h.077c.025 0 .063 0 .083.015a.062.062 0 0 1 .037.056c0 .026-.007.056-.037.069z"/></svg>