<?xml version="1.0" encoding="utf-8"?>
<!-- Generator: Adobe Illustrator 17.0.0, SVG Export Plug-In . SVG Version: 6.00 Build 0)  -->
<!DOCTYPE svg PUBLIC "-//W3C//DTD SVG 1.1//EN" "http://www.w3.org/Graphics/SVG/1.1/DTD/svg11.dtd">
<svg version="1.1" id="Layer_1" xmlns="http://www.w3.org/2000/svg" xmlns:xlink="http://www.w3.org/1999/xlink" x="0px" y="0px"
	 viewBox="88.636 0 72.727 50" enable-background="new 88.636 0 72.727 50" xml:space="preserve">
<path fill="#002452" d="M161.364,46.97c0,1.674-1.357,3.03-3.03,3.03H91.667c-1.674,0-3.03-1.357-3.03-3.03V5.303
	c0-1.674,1.357-3.03,3.03-3.03h66.667c1.674,0,3.03,1.357,3.03,3.03V46.97z"/>
<path fill="#114D97" d="M161.364,44.697c0,1.674-1.357,3.03-3.03,3.03H91.667c-1.674,0-3.03-1.357-3.03-3.03V3.03
	c0-1.674,1.357-3.03,3.03-3.03h66.667c1.674,0,3.03,1.357,3.03,3.03V44.697z"/>
<path fill="#FFFFFF" d="M99.978,33.967c0,0.91,0.65,1.016,1.229,1.016c2.552,0,3.39-1.925,3.39-3.685
	c0-2.209-1.418-3.804-3.697-3.804c-0.486,0-0.709,0.035-0.922,0.048C99.978,27.541,99.978,33.967,99.978,33.967z M98.821,28.426
	c0-1.062-0.555-0.993-1.085-1.004v-0.307c0.46,0.023,0.933,0.023,1.394,0.023c0.496,0,1.169-0.023,2.044-0.023
	c3.059,0,4.725,2.043,4.725,4.134c0,1.17-0.685,4.111-4.867,4.111c-0.602,0-1.158-0.024-1.713-0.024
	c-0.531,0-1.051,0.011-1.583,0.024v-0.307c0.708-0.072,1.051-0.095,1.085-0.898L98.821,28.426L98.821,28.426z M107.575,28.143
	c-0.307,0-0.579-0.283-0.579-0.591c0-0.296,0.284-0.568,0.579-0.568c0.316-0.001,0.574,0.252,0.58,0.568
	C108.155,27.874,107.897,28.137,107.575,28.143 M106.312,35.054h0.223c0.331,0,0.568,0,0.568-0.391v-3.2
	c0-0.52-0.177-0.591-0.615-0.827v-0.189c0.556-0.167,1.218-0.39,1.264-0.426c0.064-0.039,0.138-0.059,0.213-0.06
	c0.058,0,0.083,0.071,0.083,0.167v4.535c0,0.391,0.26,0.391,0.592,0.391h0.2v0.307c-0.402,0-0.816-0.024-1.24-0.024
	c-0.425,0-0.851,0.011-1.288,0.024C106.312,35.361,106.312,35.054,106.312,35.054z M109.962,31.534c0-0.436-0.131-0.555-0.684-0.779
	V30.53c0.507-0.166,0.991-0.319,1.558-0.568c0.036,0,0.07,0.024,0.07,0.118v0.768c0.674-0.484,1.253-0.886,2.046-0.886
	c1.003,0,1.357,0.732,1.357,1.654v3.047c0,0.391,0.26,0.391,0.591,0.391h0.213v0.307c-0.415,0-0.828-0.024-1.252-0.024
	c-0.426,0-0.851,0.011-1.277,0.024v-0.307h0.212c0.331,0,0.567,0,0.567-0.391v-3.058c0-0.674-0.411-1.005-1.085-1.005
	c-0.378,0-0.981,0.306-1.372,0.568v3.496c0,0.391,0.261,0.391,0.592,0.391h0.212v0.307c-0.413,0-0.827-0.024-1.253-0.024
	c-0.424,0-0.85,0.011-1.275,0.024v-0.307h0.212c0.33,0,0.567,0,0.567-0.391L109.962,31.534L109.962,31.534z M118.102,31.723
	c0.294,0,0.329-0.154,0.329-0.296c0-0.602-0.366-1.085-1.028-1.085c-0.72,0-1.216,0.531-1.358,1.382
	C116.046,31.723,118.102,31.723,118.102,31.723z M116.01,32.101c-0.024,0.107-0.024,0.283,0,0.685
	c0.07,1.122,0.792,2.043,1.736,2.043c0.65,0,1.159-0.354,1.595-0.79l0.165,0.166c-0.544,0.72-1.216,1.335-2.185,1.335
	c-1.878,0-2.257-1.821-2.257-2.576c0-2.315,1.559-3.001,2.385-3.001c0.958,0,1.986,0.603,1.997,1.855c0,0.072,0,0.142-0.011,0.212
	l-0.107,0.072L116.01,32.101L116.01,32.101z M119.719,35.054h0.319c0.329,0,0.567,0,0.567-0.391v-3.319
	c0-0.365-0.437-0.438-0.615-0.532v-0.177c0.862-0.366,1.335-0.673,1.444-0.673c0.069,0,0.105,0.035,0.105,0.154v1.063h0.025
	c0.294-0.461,0.791-1.218,1.511-1.218c0.295,0,0.672,0.201,0.672,0.626c0,0.319-0.223,0.604-0.554,0.604
	c-0.367,0-0.367-0.285-0.781-0.285c-0.201,0-0.862,0.272-0.862,0.982v2.774c0,0.391,0.235,0.391,0.567,0.391h0.661v0.307
	c-0.649-0.013-1.144-0.024-1.653-0.024c-0.485,0-0.981,0.011-1.406,0.024L119.719,35.054L119.719,35.054z M124.267,33.718
	c0.155,0.78,0.625,1.442,1.489,1.442c0.696,0,0.956-0.426,0.956-0.839c0-1.395-2.575-0.946-2.575-2.847
	c0-0.662,0.532-1.512,1.832-1.512c0.378,0,0.886,0.107,1.346,0.343l0.083,1.204h-0.271c-0.118-0.743-0.531-1.169-1.288-1.169
	c-0.473,0-0.921,0.271-0.921,0.779c0,1.383,2.739,0.957,2.739,2.811c0,0.779-0.625,1.607-2.032,1.607
	c-0.472,0-1.028-0.166-1.441-0.402l-0.131-1.359C124.054,33.776,124.267,33.718,124.267,33.718z M138.324,29.253h-0.295
	c-0.224-1.381-1.205-1.936-2.527-1.936c-1.361,0-3.332,0.909-3.332,3.744c0,2.387,1.702,4.1,3.52,4.1
	c1.168,0,2.139-0.803,2.375-2.044l0.271,0.071l-0.271,1.725c-0.496,0.307-1.832,0.627-2.612,0.627c-2.763,0-4.511-1.785-4.511-4.442
	c0-2.422,2.162-4.159,4.477-4.159c0.956,0,1.877,0.308,2.787,0.627C138.207,27.566,138.324,29.253,138.324,29.253z M138.75,35.054
	h0.223c0.331,0,0.568,0,0.568-0.391v-6.578c0-0.768-0.177-0.792-0.626-0.923v-0.189c0.472-0.154,0.969-0.365,1.217-0.509
	c0.129-0.07,0.223-0.13,0.258-0.13c0.073,0,0.096,0.072,0.096,0.167v8.161c0,0.391,0.26,0.391,0.591,0.391h0.2v0.307
	c-0.4,0-0.814-0.024-1.239-0.024s-0.85,0.011-1.288,0.024L138.75,35.054L138.75,35.054z M146.335,34.711
	c0,0.213,0.13,0.224,0.329,0.224c0.143,0,0.319-0.011,0.474-0.011v0.249c-0.508,0.046-1.477,0.294-1.702,0.366l-0.059-0.036v-0.957
	c-0.708,0.579-1.252,0.993-2.092,0.993c-0.637,0-1.299-0.414-1.299-1.406V31.11c0-0.307-0.047-0.604-0.707-0.661v-0.225
	c0.426-0.012,1.369-0.082,1.522-0.082c0.131,0,0.131,0.082,0.131,0.342v3.048c0,0.354,0,1.37,1.028,1.37
	c0.401,0,0.932-0.306,1.429-0.719v-3.178c0-0.235-0.567-0.366-0.992-0.484v-0.212c1.062-0.072,1.724-0.166,1.843-0.166
	c0.096,0,0.096,0.082,0.096,0.212C146.335,30.354,146.335,34.711,146.335,34.711z M148.685,34.026c0,0.449,0.426,1.205,1.217,1.205
	c1.264,0,1.795-1.241,1.795-2.292c0-1.276-0.968-2.338-1.889-2.338c-0.439,0-0.804,0.284-1.123,0.556L148.685,34.026L148.685,34.026
	z M148.685,30.812c0.473-0.4,1.11-0.85,1.761-0.85c1.371,0,2.198,1.194,2.198,2.482c0,1.547-1.134,3.096-2.824,3.096
	c-0.873,0-1.335-0.284-1.642-0.414l-0.353,0.271l-0.247-0.129c0.106-0.697,0.166-1.383,0.166-2.103v-5.079
	c0-0.768-0.179-0.792-0.627-0.923v-0.189c0.473-0.154,0.969-0.365,1.217-0.509c0.131-0.07,0.224-0.13,0.26-0.13
	c0.071,0,0.094,0.072,0.094,0.167v4.309L148.685,30.812z M97.721,42.23h0.09c0.231,0,0.476-0.031,0.476-0.366v-3.367
	c0-0.335-0.244-0.367-0.476-0.367h-0.09v-0.194c0.25,0,0.636,0.026,0.952,0.026c0.321,0,0.706-0.026,1.009-0.026v0.194h-0.091
	c-0.23,0-0.475,0.032-0.475,0.367v3.367c0,0.335,0.245,0.366,0.475,0.366h0.091v0.194c-0.308,0-0.694-0.025-1.015-0.025
	c-0.315,0-0.695,0.025-0.946,0.025V42.23z"/>
<path fill="#FFFFFF" d="M99.655,42.395v-0.137h-0.062c-0.23,0-0.504-0.04-0.505-0.395v-3.367c0.001-0.355,0.274-0.395,0.505-0.395
	h0.062v-0.138c-0.296,0-0.668,0.026-0.981,0.026c-0.305,0-0.674-0.024-0.924-0.026v0.137h0.062c0.228,0,0.503,0.04,0.503,0.395
	v3.367c0,0.355-0.274,0.395-0.503,0.395H97.75v0.137c0.249-0.002,0.613-0.026,0.917-0.026C98.979,42.37,99.351,42.394,99.655,42.395
	 M99.682,42.45c-0.31,0-0.695-0.026-1.016-0.026c-0.314,0-0.692,0.026-0.945,0.026h-0.028v-0.247h0.118
	c0.233-0.006,0.445-0.025,0.447-0.338v-3.367c-0.002-0.314-0.214-0.335-0.447-0.339h-0.118V37.91h0.028
	c0.252,0,0.637,0.025,0.952,0.025c0.32,0,0.704-0.025,1.009-0.025h0.029v0.249h-0.118c-0.233,0.004-0.447,0.024-0.448,0.339v3.367
	c0.002,0.314,0.214,0.333,0.448,0.338h0.118v0.248h-0.029V42.45z M104.098,41.156l0.013-0.013v-2.409
	c0-0.528-0.367-0.605-0.56-0.605h-0.142v-0.193c0.302,0,0.599,0.026,0.9,0.026c0.263,0,0.529-0.026,0.791-0.026v0.193h-0.096
	c-0.27,0-0.573,0.052-0.573,0.816v2.925c0,0.225,0.006,0.45,0.038,0.649h-0.244l-3.31-3.69v2.649c0,0.56,0.109,0.751,0.604,0.751
	h0.109v0.194c-0.276,0-0.553-0.025-0.829-0.025c-0.288,0-0.585,0.025-0.874,0.025V42.23h0.09c0.443,0,0.579-0.302,0.579-0.815
	v-2.708c0.001-0.318-0.257-0.577-0.576-0.578c-0.003,0-0.006,0-0.009,0h-0.084v-0.193c0.244,0,0.495,0.026,0.738,0.026
	c0.194,0,0.38-0.026,0.573-0.026C101.236,37.936,104.098,41.156,104.098,41.156z"/>
<path fill="#FFFFFF" d="M104.083,41.143v-0.002l-0.005-0.005L104.083,41.143z M104.098,41.156l0.02-0.019L104.098,41.156z
	 M104.226,42.49h0.212c-0.026-0.206-0.038-0.413-0.034-0.621v-2.925c0-0.771,0.323-0.844,0.601-0.845h0.068v-0.136
	c-0.253,0.002-0.507,0.025-0.763,0.025c-0.294,0-0.581-0.024-0.871-0.025l-0.001,0.137h0.114c0.198,0,0.588,0.089,0.588,0.633
	l-0.009,2.43l-0.012,0.012l-0.022,0.021l-2.859-3.233c-0.192,0-0.377,0.025-0.573,0.025c-0.235,0-0.477-0.024-0.71-0.025
	l-0.002,0.137h0.057c0.301,0,0.612,0.23,0.612,0.608v2.707c0,0.515-0.143,0.843-0.606,0.844l-0.062-0.002v0.138
	c0.278-0.002,0.566-0.026,0.846-0.026c0.268,0,0.536,0.024,0.801,0.026V42.26h-0.081c-0.506-0.002-0.631-0.221-0.631-0.781v-2.721
	C100.888,38.757,104.226,42.49,104.226,42.49z M104.47,42.547l-0.264-0.009l-3.262-3.635v2.577c0.008,0.559,0.093,0.717,0.577,0.724
	h0.138v0.248h-0.028c-0.278,0-0.555-0.026-0.829-0.026c-0.288,0-0.584,0.026-0.874,0.026h-0.028v-0.25h0.119
	c0.425-0.002,0.547-0.275,0.551-0.787v-2.707c0-0.304-0.247-0.551-0.551-0.551c-0.002,0-0.004,0-0.006,0h-0.113v-0.249h0.028
	c0.245,0,0.497,0.025,0.738,0.025c0.192,0,0.377-0.025,0.595-0.015l2.825,3.18v-2.364c-0.003-0.511-0.344-0.573-0.532-0.577h-0.17
	v-0.249h0.028c0.303,0,0.6,0.025,0.9,0.025c0.261,0,0.525-0.025,0.791-0.025h0.028v0.249h-0.124
	c-0.265,0.007-0.538,0.03-0.546,0.788v2.925c0,0.225,0.007,0.449,0.038,0.644l0.006,0.032L104.47,42.547L104.47,42.547z
	 M106.063,38.257c-0.483,0-0.501,0.117-0.598,0.585h-0.194c0.025-0.18,0.058-0.359,0.078-0.546c0.026-0.182,0.039-0.36,0.039-0.546
	h0.155c0.052,0.193,0.212,0.186,0.387,0.186h3.315c0.175,0,0.335-0.007,0.348-0.2l0.154,0.027c-0.025,0.173-0.051,0.346-0.07,0.521
	c-0.013,0.173-0.013,0.346-0.013,0.52l-0.194,0.072c-0.013-0.237-0.045-0.618-0.476-0.618h-1.054v3.42
	c0,0.496,0.225,0.553,0.533,0.553h0.123v0.194c-0.25,0-0.701-0.025-1.047-0.025c-0.386,0-0.837,0.025-1.087,0.025v-0.194h0.123
	c0.354,0,0.534-0.031,0.534-0.54v-3.433L106.063,38.257L106.063,38.257z"/>
<path fill="#FFFFFF" d="M108.597,42.45c-0.253,0-0.703-0.026-1.048-0.026c-0.385,0-0.835,0.026-1.087,0.026h-0.027v-0.248h0.15
	c0.354-0.008,0.497-0.013,0.505-0.512v-3.405h-1.026v-0.057h1.081v3.462c0,0.517-0.208,0.569-0.561,0.569h-0.096v0.136
	c0.253-0.002,0.686-0.025,1.06-0.025c0.335,0,0.764,0.024,1.019,0.025v-0.136h-0.094c-0.31,0-0.561-0.077-0.561-0.583v-3.449h1.082
	c0.431,0.002,0.489,0.368,0.502,0.608l0.139-0.051c0-0.168,0.001-0.336,0.012-0.505c0.019-0.167,0.042-0.329,0.067-0.495
	l-0.098-0.016c-0.03,0.187-0.211,0.198-0.372,0.195h-3.349c-0.152,0-0.316-0.007-0.374-0.187h-0.106
	c0,0.175-0.013,0.349-0.038,0.522c-0.019,0.177-0.049,0.346-0.072,0.517h0.137c0.085-0.449,0.14-0.594,0.62-0.587v0.057
	c-0.476,0.009-0.466,0.089-0.571,0.564l-0.004,0.022h-0.248l0.003-0.033c0.026-0.18,0.059-0.36,0.078-0.547
	c0.026-0.179,0.039-0.356,0.039-0.541v-0.029h0.205l0.005,0.02c0.044,0.163,0.163,0.164,0.326,0.167h3.349
	c0.18-0.003,0.31-0.005,0.32-0.174l0.002-0.03l0.029,0.006l0.182,0.029l-0.005,0.028c-0.027,0.172-0.05,0.345-0.07,0.518
	c-0.012,0.173-0.012,0.345-0.012,0.519v0.019l-0.019,0.007l-0.227,0.084l-0.002-0.037c-0.018-0.241-0.043-0.592-0.449-0.592h-1.025
	v3.392c0.006,0.485,0.199,0.519,0.505,0.525h0.151v0.248C108.624,42.45,108.597,42.45,108.597,42.45z M109.952,42.23h0.091
	c0.23,0,0.476-0.031,0.476-0.366v-3.367c0-0.335-0.244-0.367-0.476-0.367h-0.091v-0.194c0.391,0,1.061,0.026,1.6,0.026
	c0.541,0,1.208-0.026,1.646-0.026c-0.011,0.276-0.005,0.701,0.014,0.984l-0.194,0.051c-0.031-0.418-0.108-0.751-0.783-0.751h-0.892
	v1.683h0.763c0.385,0,0.47-0.217,0.508-0.566h0.193c-0.025,0.494-0.025,0.99,0,1.484l-0.193,0.039
	c-0.038-0.385-0.057-0.636-0.501-0.636h-0.77v1.496c0,0.419,0.371,0.419,0.783,0.419c0.771,0,1.111-0.052,1.305-0.783l0.18,0.044
	c-0.084,0.341-0.161,0.681-0.217,1.023c-0.412,0-1.151-0.025-1.729-0.025c-0.58,0-1.344,0.025-1.711,0.025V42.23L109.952,42.23z"/>
<path fill="#FFFFFF" d="M113.367,42.395c0.056-0.325,0.13-0.649,0.208-0.974l-0.127-0.032c-0.193,0.719-0.566,0.783-1.324,0.778
	c-0.405,0-0.81,0-0.812-0.447v-1.525h0.799c0.449-0.004,0.494,0.266,0.527,0.631l0.139-0.028c-0.024-0.478-0.024-0.957,0-1.436
	h-0.14c-0.036,0.335-0.142,0.57-0.533,0.566h-0.793v-1.74h0.922c0.668-0.005,0.779,0.34,0.808,0.745l0.139-0.038
	c-0.012-0.21-0.019-0.42-0.019-0.629c0-0.11,0.003-0.214,0.007-0.305c-0.437,0.002-1.088,0.025-1.617,0.025
	c-0.528,0-1.178-0.024-1.572-0.025v0.137h0.062c0.228,0,0.503,0.04,0.504,0.396v3.367c-0.002,0.355-0.275,0.394-0.504,0.396h-0.062
	v0.136c0.374-0.001,1.117-0.025,1.682-0.025C112.229,42.37,112.953,42.394,113.367,42.395 M113.39,42.45
	c-0.412,0-1.152-0.027-1.729-0.027c-0.58,0-1.343,0.027-1.71,0.027h-0.027v-0.248h0.118c0.232-0.004,0.445-0.025,0.447-0.338v-3.367
	c-0.003-0.314-0.214-0.335-0.447-0.339h-0.118v-0.248h0.027c0.392,0,1.061,0.025,1.6,0.025c0.541,0,1.208-0.025,1.646-0.025h0.028
	l-0.001,0.03c-0.012,0.327-0.008,0.653,0.013,0.98l0.001,0.023l-0.022,0.007l-0.225,0.059l-0.001-0.033
	c-0.038-0.417-0.094-0.72-0.756-0.727h-0.866l-0.001,1.628h0.738c0.37-0.004,0.437-0.194,0.481-0.54l0.001-0.026h0.247l-0.001,0.029
	c-0.012,0.251-0.02,0.501-0.02,0.751c0,0.243,0.008,0.487,0.02,0.731l0.001,0.023l-0.023,0.005l-0.223,0.045l-0.001-0.03
	c-0.045-0.392-0.047-0.608-0.474-0.612h-0.743v1.469c0.001,0.391,0.337,0.389,0.756,0.391c0.774-0.005,1.084-0.043,1.278-0.763
	l0.007-0.026l0.027,0.004l0.207,0.054l-0.006,0.026c-0.084,0.34-0.161,0.68-0.218,1.021l-0.005,0.023L113.39,42.45L113.39,42.45z
	 M115.299,40.108h0.314c0.643,0,0.99-0.243,0.99-1.003c0-0.572-0.366-0.938-0.939-0.938c-0.193,0-0.275,0.02-0.365,0.026V40.108z
	 M114.477,38.617c0-0.469-0.257-0.488-0.457-0.488h-0.117v-0.193c0.206,0,0.605,0.026,0.997,0.026c0.385,0,0.694-0.026,1.035-0.026
	c0.809,0,1.53,0.218,1.53,1.131c0,0.579-0.386,0.932-0.894,1.131l1.098,1.645c0.181,0.271,0.308,0.348,0.623,0.386v0.194
	c-0.212,0-0.418-0.025-0.629-0.025c-0.2,0-0.406,0.025-0.605,0.025c-0.495-0.649-0.92-1.343-1.338-2.083h-0.424v1.377
	c0,0.495,0.231,0.514,0.526,0.514h0.117v0.194c-0.367,0-0.739-0.025-1.105-0.025c-0.308,0-0.611,0.025-0.933,0.025v-0.194h0.117
	c0.238,0,0.457-0.109,0.457-0.346v-3.268L114.477,38.617z"/>
<path fill="#FFFFFF" d="M115.613,40.081c0.636-0.006,0.957-0.227,0.964-0.974c-0.004-0.562-0.352-0.91-0.913-0.913
	c-0.174,0-0.255,0.016-0.337,0.024v1.862C115.327,40.081,115.613,40.081,115.613,40.081z M115.299,40.136h-0.028v-1.968l0.025-0.002
	c0.089-0.007,0.175-0.025,0.369-0.025c0.586,0,0.967,0.38,0.967,0.967c-0.002,0.767-0.369,1.029-1.018,1.029H115.299z
	 M115.299,40.311h0.439l0.008,0.015c0.419,0.738,0.841,1.433,1.314,2.069c0.196,0,0.402-0.026,0.603-0.026
	c0.206,0,0.404,0.023,0.604,0.025v-0.141c-0.301-0.037-0.443-0.128-0.618-0.394l-1.118-1.673l0.031-0.013
	c0.504-0.199,0.876-0.542,0.877-1.106c0-0.892-0.693-1.098-1.501-1.102c-0.338,0-0.647,0.026-1.035,0.026
	c-0.378,0-0.759-0.024-0.97-0.026v0.137h0.089c0.2,0,0.483,0.034,0.483,0.517v3.266c0,0.258-0.241,0.375-0.483,0.376h-0.089v0.136
	c0.308-0.001,0.603-0.025,0.905-0.025c0.358,0,0.721,0.024,1.077,0.025v-0.136h-0.088c-0.293,0-0.555-0.037-0.555-0.544v-1.404
	h0.028L115.299,40.311z M118.295,42.45c-0.215,0-0.42-0.026-0.631-0.026c-0.196,0-0.401,0.026-0.624,0.015
	c-0.494-0.647-0.916-1.337-1.331-2.071h-0.38v1.347c0.007,0.484,0.202,0.48,0.499,0.487h0.145v0.248h-0.029
	c-0.367,0-0.741-0.026-1.105-0.026c-0.307,0-0.609,0.026-0.932,0.026h-0.028v-0.248h0.145c0.231-0.002,0.426-0.103,0.427-0.319
	v-3.266c-0.005-0.456-0.227-0.453-0.427-0.46h-0.144v-0.249h0.028c0.208,0,0.605,0.025,0.997,0.025c0.384,0,0.692-0.025,1.035-0.025
	c0.811,0.002,1.556,0.225,1.558,1.158c0,0.581-0.384,0.943-0.879,1.145l1.079,1.617c0.18,0.266,0.291,0.333,0.605,0.373l0.023,0.003
	v0.244h-0.029L118.295,42.45z M122.658,41.156l0.011-0.013v-2.409c0-0.528-0.365-0.605-0.558-0.605h-0.141v-0.193
	c0.302,0,0.597,0.026,0.9,0.026c0.264,0,0.526-0.026,0.792-0.026v0.193h-0.097c-0.27,0-0.572,0.052-0.572,0.816v2.925
	c0,0.225,0.006,0.45,0.038,0.649h-0.243l-3.31-3.69v2.649c0,0.56,0.108,0.751,0.604,0.751h0.11v0.194
	c-0.276,0-0.553-0.025-0.829-0.025c-0.29,0-0.586,0.025-0.875,0.025V42.23h0.09c0.443,0,0.58-0.302,0.58-0.815v-2.708
	c0.001-0.318-0.257-0.577-0.576-0.578c-0.003,0-0.006,0-0.009,0h-0.084v-0.193c0.243,0,0.496,0.026,0.74,0.026
	c0.191,0,0.378-0.026,0.572-0.026C119.801,37.936,122.658,41.156,122.658,41.156z"/>
<path fill="#FFFFFF" d="M122.642,41.143v-0.002l-0.005-0.005L122.642,41.143z M122.657,41.156l0.021-0.019L122.657,41.156z
	 M122.787,42.49h0.21c-0.026-0.206-0.037-0.413-0.034-0.621v-2.925c0-0.771,0.325-0.843,0.601-0.845h0.068v-0.136
	c-0.253,0.002-0.507,0.025-0.762,0.025c-0.295,0-0.582-0.024-0.872-0.025v0.137h0.114c0.199,0.002,0.588,0.089,0.588,0.633
	l-0.009,2.43l-0.012,0.013l-0.021,0.021l-2.859-3.233c-0.192,0-0.378,0.025-0.572,0.025c-0.238,0-0.478-0.024-0.712-0.025v0.137
	h0.056c0.302,0.002,0.612,0.229,0.612,0.607v2.706c0,0.516-0.145,0.844-0.606,0.846h-0.062v0.137
	c0.277-0.002,0.564-0.026,0.846-0.026c0.27,0,0.537,0.024,0.803,0.026v-0.136h-0.082c-0.506,0-0.631-0.221-0.633-0.781v-2.719
	C119.448,38.761,122.787,42.49,122.787,42.49z M123.03,42.547l-0.264-0.009l-3.263-3.635v2.576c0.008,0.56,0.093,0.718,0.577,0.724
	h0.137v0.248h-0.027c-0.277,0-0.554-0.027-0.829-0.027c-0.286,0-0.584,0.027-0.873,0.027h-0.029v-0.249h0.119
	c0.424-0.002,0.546-0.275,0.551-0.789v-2.706c0.001-0.303-0.245-0.549-0.548-0.55c-0.003,0-0.006,0-0.009,0h-0.113v-0.248h0.029
	c0.245,0,0.497,0.025,0.739,0.025c0.189,0,0.375-0.025,0.591-0.017l2.826,3.181v-2.364c-0.002-0.511-0.344-0.574-0.531-0.577h-0.17
	v-0.248h0.028c0.303,0,0.6,0.025,0.9,0.025c0.262,0,0.525-0.025,0.79-0.025h0.029v0.249h-0.125c-0.265,0.006-0.539,0.03-0.545,0.788
	v2.925c0,0.225,0.005,0.448,0.038,0.645l0.003,0.031C123.061,42.547,123.03,42.547,123.03,42.547z M125.633,38.656h-0.013
	l-0.597,1.82h1.201L125.633,38.656z M124.694,41.504c-0.065,0.217-0.142,0.387-0.142,0.501c0,0.194,0.27,0.225,0.482,0.225h0.072
	v0.193c-0.259-0.015-0.519-0.024-0.779-0.025c-0.23,0-0.462,0.011-0.693,0.025V42.23h0.039c0.25,0,0.463-0.149,0.559-0.419
	l1.029-2.95c0.084-0.238,0.2-0.56,0.239-0.798c0.205-0.07,0.463-0.198,0.585-0.276c0.02-0.007,0.032-0.013,0.052-0.013
	c0.019,0,0.031,0,0.045,0.02c0.019,0.051,0.038,0.109,0.058,0.16l1.183,3.362c0.077,0.224,0.154,0.462,0.235,0.656
	c0.079,0.181,0.213,0.256,0.426,0.256h0.039v0.193c-0.295-0.016-0.591-0.024-0.887-0.025c-0.315,0-0.637,0.011-0.965,0.025v-0.193
	h0.071c0.147,0,0.399-0.026,0.399-0.187c0-0.083-0.058-0.256-0.13-0.463l-0.25-0.745h-1.459L124.694,41.504z"/>
<path fill="#FFFFFF" d="M125.605,38.664l0.015-0.005L125.605,38.664z M125.06,40.447h1.125l-0.56-1.722
	C125.626,38.725,125.06,40.447,125.06,40.447z M124.983,40.503l0.616-1.875h0.034v0.029l-0.007,0.002l0.007-0.002v-0.029h0.019
	l0.611,1.875H124.983z M126.297,42.393c0.318-0.011,0.63-0.024,0.937-0.024c0.298,0,0.579,0.012,0.858,0.024v-0.135h-0.009
	c-0.22,0.002-0.372-0.086-0.451-0.275c-0.084-0.194-0.162-0.433-0.237-0.657l-1.183-3.362c-0.02-0.051-0.038-0.109-0.055-0.155
	c-0.006-0.006-0.005-0.006-0.01-0.006h-0.012c-0.013,0-0.021,0.004-0.037,0.008c-0.124,0.08-0.381,0.207-0.573,0.257
	c-0.039,0.243-0.156,0.565-0.238,0.803l-1.029,2.95c-0.098,0.279-0.324,0.438-0.585,0.438h-0.011v0.135
	c0.22-0.011,0.443-0.024,0.666-0.024c0.248,0,0.503,0.012,0.748,0.024V42.26h-0.041c-0.209-0.003-0.503-0.026-0.51-0.253
	c0-0.128,0.079-0.291,0.143-0.509l0.027,0.008l-0.027-0.009l0.211-0.686h1.499l0.257,0.763c0.073,0.207,0.131,0.378,0.131,0.472
	c-0.01,0.197-0.28,0.211-0.426,0.215h-0.043v0.133H126.297z M128.119,42.45c-0.289-0.012-0.579-0.027-0.885-0.027
	c-0.315,0-0.635,0.014-0.964,0.027l-0.03,0.002v-0.251h0.099c0.149,0,0.37-0.034,0.37-0.157c0.002-0.074-0.056-0.249-0.127-0.454
	l-0.244-0.727h-1.418l-0.201,0.649c-0.065,0.218-0.143,0.388-0.142,0.493c0.002,0.157,0.242,0.196,0.456,0.196h0.099v0.251
	l-0.029-0.002c-0.257-0.012-0.52-0.027-0.776-0.027c-0.229,0-0.462,0.014-0.692,0.027l-0.03,0.002v-0.251h0.067
	c0.239,0,0.438-0.137,0.532-0.398l1.03-2.951c0.083-0.238,0.201-0.558,0.255-0.815c0.203-0.072,0.399-0.164,0.584-0.275
	c0.018-0.007,0.036-0.015,0.062-0.015c0.029-0.002,0.056,0.013,0.072,0.037c0.018,0.053,0.038,0.111,0.058,0.163l1.183,3.362
	c0.076,0.225,0.153,0.463,0.237,0.653c0.075,0.172,0.192,0.238,0.399,0.239h0.065v0.251C128.149,42.452,128.119,42.45,128.119,42.45
	z M128.403,38.257c-0.482,0-0.502,0.117-0.599,0.585h-0.194c0.026-0.18,0.059-0.359,0.079-0.546c0.026-0.182,0.038-0.36,0.038-0.546
	h0.156c0.051,0.193,0.211,0.186,0.385,0.186h3.317c0.173,0,0.333-0.007,0.346-0.2l0.154,0.027c-0.024,0.173-0.05,0.346-0.07,0.521
	c-0.014,0.174-0.014,0.347-0.014,0.52l-0.193,0.072c-0.011-0.237-0.044-0.618-0.475-0.618h-1.053v3.42
	c0,0.496,0.225,0.553,0.533,0.553h0.123v0.194c-0.251,0-0.7-0.025-1.048-0.025c-0.385,0-0.836,0.025-1.086,0.025v-0.194h0.123
	c0.354,0,0.534-0.031,0.534-0.54v-3.433L128.403,38.257L128.403,38.257z"/>
<path fill="#FFFFFF" d="M130.936,42.45c-0.252,0-0.703-0.026-1.048-0.026c-0.384,0-0.834,0.026-1.086,0.026h-0.028v-0.248h0.151
	c0.354-0.008,0.497-0.013,0.505-0.512l-0.001-3.405h-1.025v-0.057h1.081v3.462c0,0.517-0.207,0.567-0.561,0.569h-0.095v0.137
	c0.254-0.002,0.686-0.026,1.058-0.026c0.336,0,0.766,0.024,1.02,0.026v-0.137h-0.094c-0.31-0.001-0.561-0.076-0.561-0.582v-3.449
	h1.081c0.432,0.002,0.488,0.368,0.501,0.608l0.14-0.051c0-0.168,0.001-0.336,0.014-0.504c0.017-0.166,0.042-0.33,0.065-0.494
	l-0.098-0.017c-0.03,0.187-0.211,0.198-0.371,0.195h-3.35c-0.152,0.002-0.315-0.007-0.374-0.187h-0.105
	c-0.001,0.175-0.014,0.349-0.04,0.522c-0.017,0.178-0.048,0.347-0.073,0.517h0.138c0.085-0.449,0.141-0.595,0.622-0.587v0.057
	c-0.477,0.008-0.466,0.089-0.572,0.564l-0.004,0.022h-0.248l0.004-0.032c0.027-0.181,0.059-0.361,0.078-0.547
	c0.026-0.18,0.039-0.358,0.039-0.542v-0.029h0.205l0.006,0.02c0.045,0.163,0.162,0.164,0.326,0.167h3.35
	c0.178-0.003,0.308-0.005,0.319-0.173l0.001-0.031l0.03,0.006l0.183,0.029l-0.004,0.028c-0.027,0.172-0.05,0.345-0.07,0.518
	c-0.014,0.173-0.014,0.345-0.014,0.519v0.019l-0.019,0.007l-0.227,0.084l-0.001-0.037c-0.017-0.241-0.042-0.592-0.449-0.592h-1.027
	v3.392c0.007,0.485,0.2,0.519,0.506,0.525h0.15v0.248h-0.027L130.936,42.45z M132.323,42.23h0.09c0.231,0,0.475-0.031,0.475-0.366
	v-3.367c0-0.335-0.243-0.367-0.475-0.367h-0.09v-0.194c0.251,0,0.635,0.026,0.951,0.026c0.322,0,0.708-0.026,1.011-0.026v0.194
	h-0.091c-0.232,0-0.477,0.032-0.477,0.367v3.367c0,0.335,0.244,0.366,0.477,0.366h0.091v0.194c-0.309,0-0.695-0.025-1.017-0.025
	c-0.315,0-0.694,0.025-0.946,0.025L132.323,42.23L132.323,42.23z"/>
<path fill="#FFFFFF" d="M134.255,42.395V42.26h-0.061c-0.23,0-0.503-0.04-0.503-0.395v-3.367c0-0.355,0.272-0.395,0.503-0.396h0.061
	v-0.138c-0.296,0.002-0.668,0.025-0.982,0.025c-0.305,0-0.673-0.024-0.923-0.025v0.137h0.062c0.228,0,0.503,0.04,0.503,0.396v3.367
	c-0.001,0.355-0.274,0.395-0.503,0.395h-0.062v0.136c0.247-0.003,0.611-0.025,0.917-0.025
	C133.58,42.37,133.952,42.393,134.255,42.395 M134.284,42.45c-0.311,0-0.695-0.027-1.017-0.027c-0.314,0-0.694,0.027-0.946,0.027
	h-0.028v-0.248h0.119c0.231-0.004,0.445-0.024,0.447-0.338v-3.367c-0.002-0.314-0.215-0.335-0.447-0.339h-0.118v-0.248h0.028
	c0.251,0,0.638,0.025,0.951,0.025c0.32,0,0.706-0.025,1.011-0.025h0.027v0.249h-0.118c-0.235,0.004-0.447,0.025-0.449,0.339v3.367
	c0.002,0.314,0.213,0.335,0.449,0.338h0.117v0.248L134.284,42.45L134.284,42.45z M136.945,42.237c1.247,0,1.464-1.1,1.464-2.037
	c0-0.939-0.507-2.077-1.574-2.077c-1.124,0-1.459,1.004-1.459,1.863C135.375,41.136,135.903,42.237,136.945,42.237 M136.847,37.839
	c1.371,0,2.463,0.849,2.463,2.219c0,1.478-1.06,2.461-2.429,2.461c-1.364,0-2.404-0.926-2.404-2.307
	c-0.019-1.291,1.013-2.353,2.304-2.372C136.803,37.839,136.825,37.839,136.847,37.839"/>
<path fill="#FFFFFF" d="M135.347,39.986c0.002-0.865,0.339-1.892,1.487-1.892c1.091,0.002,1.6,1.161,1.603,2.105
	c-0.002,0.938-0.222,2.064-1.493,2.064v-0.054c1.222-0.001,1.435-1.071,1.437-2.009c0-0.931-0.502-2.047-1.546-2.048
	c-1.102,0.001-1.429,0.98-1.432,1.836c0.001,1.145,0.524,2.221,1.541,2.223v0.054C135.878,42.262,135.349,41.143,135.347,39.986
	 M134.448,40.212c-0.016-1.31,1.032-2.384,2.342-2.4c0.019,0,0.038,0,0.057,0v0.056c-1.322,0-2.343,1.022-2.345,2.344
	c0.003,1.366,1.029,2.278,2.379,2.278c1.355,0,2.4-0.969,2.402-2.433c-0.001-1.352-1.076-2.188-2.436-2.19v-0.056
	c1.38,0.001,2.488,0.859,2.49,2.246c-0.001,1.494-1.074,2.487-2.456,2.489C135.506,42.544,134.45,41.609,134.448,40.212
	 M143.641,41.156l0.013-0.013v-2.409c0-0.528-0.367-0.605-0.56-0.605h-0.14v-0.193c0.301,0,0.598,0.026,0.899,0.026
	c0.264,0,0.528-0.026,0.792-0.026v0.193h-0.097c-0.269,0-0.573,0.052-0.573,0.816v2.925c0,0.225,0.007,0.45,0.039,0.649h-0.244
	l-3.311-3.69v2.649c0,0.56,0.109,0.751,0.604,0.751h0.111v0.194c-0.277,0-0.553-0.025-0.829-0.025c-0.289,0-0.585,0.025-0.875,0.025
	V42.23h0.091c0.444,0,0.579-0.302,0.579-0.815v-2.708c0.001-0.318-0.256-0.577-0.574-0.578c-0.004,0-0.008,0-0.012,0h-0.084v-0.193
	c0.244,0,0.495,0.026,0.739,0.026c0.193,0,0.378-0.026,0.572-0.026C140.781,37.936,143.641,41.156,143.641,41.156z"/>
<path fill="#FFFFFF" d="M143.626,41.143v-0.002l-0.005-0.005L143.626,41.143z M143.641,41.156l0.021-0.019L143.641,41.156z
	 M143.77,42.49h0.21c-0.025-0.206-0.037-0.413-0.034-0.621v-2.925c0-0.773,0.325-0.843,0.601-0.845h0.07v-0.136
	c-0.254,0.002-0.508,0.025-0.765,0.025c-0.292,0-0.58-0.024-0.871-0.025v0.137h0.114c0.199,0.002,0.587,0.09,0.587,0.633
	l-0.007,2.43l-0.012,0.012l-0.021,0.021l-2.861-3.233c-0.191,0-0.377,0.025-0.572,0.025c-0.236,0-0.478-0.024-0.712-0.025v0.137
	h0.056c0.302,0.002,0.613,0.229,0.613,0.607v2.708c0,0.515-0.144,0.843-0.607,0.844h-0.063v0.137
	c0.279-0.002,0.565-0.026,0.847-0.026c0.268,0,0.535,0.024,0.801,0.026v-0.136h-0.083c-0.505,0-0.631-0.221-0.631-0.781v-2.721
	L143.77,42.49L143.77,42.49z M144.014,42.547l-0.266-0.009l-3.262-3.635v2.576c0.007,0.56,0.093,0.717,0.576,0.722h0.139v0.25
	h-0.028c-0.278,0-0.555-0.026-0.829-0.026c-0.288,0-0.584,0.026-0.876,0.026h-0.025v-0.25h0.117
	c0.424-0.001,0.546-0.274,0.551-0.786v-2.708c0.001-0.303-0.245-0.549-0.548-0.55c-0.003,0-0.007,0-0.01,0h-0.11v-0.248h0.026
	c0.246,0,0.497,0.025,0.74,0.025c0.191,0,0.375-0.025,0.594-0.015l2.824,3.18v-2.364c-0.002-0.511-0.344-0.573-0.532-0.577h-0.17
	v-0.248h0.03c0.302,0,0.599,0.025,0.898,0.025c0.263,0,0.525-0.025,0.793-0.025h0.027v0.249h-0.124
	c-0.265,0.007-0.539,0.031-0.544,0.788v2.925c0,0.225,0.005,0.449,0.037,0.645l0.005,0.031L144.014,42.547L144.014,42.547z
	 M146.617,38.656h-0.013l-0.6,1.82h1.204L146.617,38.656z M145.677,41.504c-0.063,0.217-0.141,0.387-0.141,0.501
	c0,0.194,0.271,0.225,0.482,0.225h0.072v0.193c-0.259-0.015-0.519-0.024-0.778-0.025c-0.231,0-0.462,0.011-0.692,0.025V42.23h0.037
	c0.251,0,0.465-0.149,0.559-0.419l1.031-2.95c0.083-0.238,0.2-0.56,0.236-0.798c0.207-0.07,0.463-0.198,0.587-0.276
	c0.018-0.007,0.031-0.013,0.051-0.013c0.018,0,0.031,0,0.044,0.02l0.058,0.16l1.182,3.362c0.077,0.224,0.155,0.462,0.238,0.656
	c0.077,0.181,0.212,0.256,0.424,0.256h0.04v0.193c-0.289-0.014-0.58-0.025-0.888-0.025c-0.314,0-0.636,0.011-0.965,0.025v-0.193
	h0.072c0.147,0,0.399-0.026,0.399-0.187c0-0.083-0.058-0.256-0.13-0.463l-0.25-0.745h-1.459L145.677,41.504z"/>
<path fill="#FFFFFF" d="M146.59,38.664l0.012-0.005L146.59,38.664z M146.045,40.447h1.124l-0.559-1.722L146.045,40.447z
	 M145.967,40.503l0.618-1.875h0.033v0.029l-0.008,0.002l0.008-0.002v-0.029h0.019l0.608,1.875H145.967z M147.28,42.394
	c0.318-0.012,0.63-0.024,0.938-0.024c0.298,0,0.579,0.012,0.859,0.024V42.26h-0.011c-0.217,0-0.369-0.086-0.45-0.275
	c-0.085-0.194-0.161-0.433-0.238-0.657l-1.183-3.363c-0.019-0.051-0.037-0.102-0.054-0.154c-0.006-0.007-0.005-0.007-0.009-0.007
	h-0.013c-0.014,0-0.021,0.004-0.036,0.009c-0.179,0.11-0.372,0.196-0.573,0.256c-0.04,0.243-0.157,0.565-0.239,0.803l-1.03,2.95
	c-0.098,0.279-0.322,0.438-0.585,0.438h-0.009v0.135c0.221-0.011,0.442-0.024,0.665-0.024c0.248,0,0.503,0.012,0.75,0.024V42.26
	h-0.044c-0.21-0.003-0.502-0.025-0.511-0.254c0.002-0.127,0.081-0.291,0.144-0.509l0.026,0.008l-0.026-0.009l0.211-0.686h1.498
	l0.258,0.763c0.071,0.207,0.13,0.378,0.13,0.472c-0.009,0.197-0.279,0.211-0.426,0.215h-0.044
	C147.28,42.26,147.28,42.394,147.28,42.394z M149.102,42.45c-0.289-0.012-0.579-0.026-0.885-0.026c-0.314,0-0.636,0.014-0.964,0.026
	l-0.029,0.002v-0.25h0.098c0.15,0,0.371-0.035,0.371-0.159c0.002-0.074-0.056-0.248-0.129-0.454l-0.243-0.727h-1.419l-0.2,0.649
	c-0.065,0.22-0.141,0.388-0.14,0.492c0,0.158,0.241,0.198,0.454,0.198h0.099v0.25l-0.029-0.002c-0.256-0.012-0.52-0.026-0.776-0.026
	c-0.23,0-0.461,0.014-0.692,0.026l-0.028,0.002v-0.249h0.065c0.239-0.001,0.44-0.139,0.534-0.399l1.028-2.951
	c0.083-0.238,0.199-0.558,0.254-0.814c0.203-0.074,0.399-0.166,0.586-0.276c0.019-0.009,0.04-0.014,0.061-0.014
	c0.029-0.003,0.056,0.012,0.07,0.037c0.02,0.051,0.039,0.109,0.06,0.161l1.182,3.362c0.077,0.225,0.154,0.463,0.237,0.654
	c0.076,0.17,0.192,0.237,0.397,0.239h0.067v0.25C149.131,42.451,149.102,42.45,149.102,42.45z M150.724,41.793
	c0,0.258,0.179,0.335,0.385,0.361c0.263,0.019,0.553,0.019,0.85-0.014c0.244-0.028,0.466-0.154,0.617-0.348
	c0.103-0.141,0.161-0.321,0.2-0.462h0.185c-0.071,0.366-0.161,0.727-0.237,1.092c-0.565,0-1.131-0.025-1.697-0.025
	c-0.567,0-1.131,0.025-1.697,0.025v-0.194h0.089c0.232,0,0.484-0.031,0.484-0.43v-3.303c0-0.335-0.251-0.367-0.484-0.367h-0.089
	v-0.193c0.34,0,0.674,0.026,1.016,0.026c0.328,0,0.649-0.026,0.978-0.026v0.193h-0.162c-0.244,0-0.436,0.007-0.436,0.347V41.793z"/>
<path fill="#FFFFFF" d="M152.698,42.395c0.075-0.349,0.159-0.69,0.228-1.037h-0.133c-0.04,0.14-0.097,0.312-0.198,0.452
	c-0.156,0.199-0.386,0.328-0.637,0.358c-0.284,0.029-0.57,0.033-0.855,0.012c-0.208-0.023-0.411-0.113-0.411-0.388v-3.316
	c0-0.357,0.226-0.376,0.466-0.376h0.133v-0.136c-0.316,0.002-0.629,0.026-0.949,0.026c-0.332,0-0.658-0.024-0.988-0.026v0.137h0.061
	c0.229,0,0.51,0.04,0.51,0.394v3.304c0,0.416-0.279,0.459-0.51,0.459h-0.061v0.136c0.555-0.001,1.111-0.025,1.669-0.025
	C151.584,42.37,152.142,42.394,152.698,42.395 M152.722,42.45c-0.567,0-1.133-0.026-1.697-0.026c-0.566,0-1.131,0.026-1.698,0.026
	h-0.027v-0.248h0.117c0.232-0.006,0.454-0.022,0.456-0.403v-3.304c-0.002-0.313-0.222-0.334-0.456-0.338h-0.117v-0.248h0.027
	c0.342,0,0.676,0.025,1.017,0.025c0.327,0,0.647-0.025,0.979-0.025h0.026v0.249h-0.188c-0.249,0.006-0.404-0.005-0.41,0.319v3.316
	c0.002,0.24,0.159,0.305,0.36,0.333c0.281,0.019,0.563,0.015,0.843-0.013c0.236-0.028,0.451-0.149,0.599-0.336
	c0.1-0.138,0.156-0.314,0.195-0.454l0.005-0.021h0.242l-0.006,0.033c-0.073,0.368-0.161,0.726-0.239,1.092l-0.005,0.022
	L152.722,42.45L152.722,42.45z M152.773,38.432h0.08c0.087,0,0.128-0.066,0.128-0.173c0-0.108-0.062-0.146-0.132-0.146h-0.076
	V38.432z M152.545,38.789v-0.033c0.083-0.012,0.098-0.01,0.098-0.061v-0.502c0-0.071-0.007-0.095-0.096-0.091v-0.035h0.346
	c0.119,0,0.228,0.057,0.228,0.18c0,0.101-0.066,0.176-0.161,0.205l0.112,0.156c0.052,0.07,0.112,0.137,0.15,0.16v0.021h-0.132
	c-0.064,0-0.12-0.133-0.243-0.311h-0.075v0.224c0,0.044,0.016,0.042,0.099,0.054v0.033L152.545,38.789L152.545,38.789z
	 M152.881,38.982c0.299-0.005,0.538-0.251,0.536-0.55c0.003-0.3-0.236-0.546-0.536-0.552c-0.299,0.007-0.538,0.252-0.537,0.552
	C152.343,38.731,152.582,38.976,152.881,38.982 M152.881,37.754c0.387,0,0.677,0.297,0.677,0.678c0,0.381-0.289,0.675-0.677,0.675
	c-0.387,0-0.676-0.294-0.676-0.675C152.205,38.051,152.495,37.754,152.881,37.754"/>
<circle fill="#114D97" cx="123.62" cy="15.243" r="10.887"/>
<path fill="#FFFFFF" d="M123.635,26.324c-6.239,0.03-11.373-5.025-11.373-11.177c0-6.724,5.135-11.374,11.373-11.373h2.924
	c6.164-0.001,11.79,4.648,11.79,11.373c0,6.15-5.626,11.177-11.79,11.177H123.635z M123.66,4.706
	c-5.701,0.002-10.32,4.622-10.321,10.323c0.001,5.701,4.62,10.32,10.321,10.321c5.701-0.001,10.321-4.62,10.323-10.321
	C133.982,9.327,129.362,4.708,123.66,4.706z M121.317,21.133V8.922c-2.526,0.972-4.195,3.398-4.2,6.105
	C117.121,17.735,118.79,20.161,121.317,21.133z M130.204,15.029c-0.003-2.709-1.674-5.137-4.203-6.107v12.214
	C128.53,20.165,130.201,17.738,130.204,15.029z"/>
</svg>
