<?xml version="1.0" encoding="utf-8"?>
<!-- Generator: Adobe Illustrator 17.0.0, SVG Export Plug-In . SVG Version: 6.00 Build 0)  -->
<!DOCTYPE svg PUBLIC "-//W3C//DTD SVG 1.1//EN" "http://www.w3.org/Graphics/SVG/1.1/DTD/svg11.dtd">
<svg version="1.1" id="Camada_1" xmlns="http://www.w3.org/2000/svg" xmlns:xlink="http://www.w3.org/1999/xlink" x="0px" y="0px"
	 viewBox="177.273 0 72.727 50" enable-background="new 177.273 0 72.727 50" xml:space="preserve">
<path fill="#2E77BC" d="M250,46.97c0,1.673-1.357,3.03-3.03,3.03h-66.667c-1.673,0-3.03-1.357-3.03-3.03V5.303
	c0-1.673,1.357-3.03,3.03-3.03h66.667c1.673,0,3.03,1.357,3.03,3.03V46.97z"/>
<path fill="#1AAAE2" d="M250,44.697c0,1.673-1.357,3.03-3.03,3.03h-66.667c-1.673,0-3.03-1.357-3.03-3.03V3.03
	c0-1.673,1.357-3.03,3.03-3.03h66.667c1.673,0,3.03,1.357,3.03,3.03V44.697z"/>
<path fill="#FFFFFF" d="M183.734,18.345l-1.401-3.414l-1.393,3.414 M214.6,16.985c-0.281,0.171-0.614,0.176-1.013,0.176h-2.487
	v-1.902h2.521c0.357,0,0.729,0.016,0.971,0.154c0.266,0.125,0.43,0.39,0.43,0.757C215.022,16.545,214.866,16.846,214.6,16.985z
	 M232.341,18.345l-1.417-3.414l-1.409,3.414H232.341z M199.271,22.04h-2.099l-0.008-6.707l-2.968,6.707h-1.797l-2.976-6.713v6.713
	h-4.164l-0.787-1.91h-4.262l-0.795,1.91h-2.223l3.666-8.564h3.041l3.482,8.109v-8.109h3.341l2.679,5.81l2.461-5.81h3.408
	L199.271,22.04L199.271,22.04z M207.635,22.04h-6.838v-8.564h6.838v1.783h-4.791v1.544h4.676v1.756h-4.676v1.71h4.791V22.04z
	 M217.277,15.782c0,1.365-0.911,2.071-1.442,2.283c0.448,0.17,0.83,0.472,1.013,0.721c0.289,0.426,0.339,0.806,0.339,1.571v1.682
	h-2.065l-0.008-1.08c0-0.515,0.049-1.256-0.323-1.668c-0.299-0.301-0.755-0.367-1.492-0.367h-2.197v3.115h-2.047v-8.564h4.708
	c1.046,0,1.817,0.028,2.479,0.41C216.889,14.269,217.277,14.827,217.277,15.782z M220.553,22.04h-2.089v-8.564h2.089V22.04z
	 M244.785,22.04h-2.901l-3.88-6.428v6.428h-4.169l-0.797-1.91h-4.252l-0.773,1.91h-2.395c-0.995,0-2.255-0.22-2.968-0.947
	c-0.719-0.727-1.094-1.712-1.094-3.27c0-1.27,0.224-2.431,1.104-3.349c0.662-0.684,1.698-0.999,3.109-0.999h1.982v1.835h-1.94
	c-0.747,0-1.169,0.111-1.575,0.507c-0.349,0.361-0.588,1.042-0.588,1.94c0,0.918,0.182,1.579,0.563,2.011
	c0.315,0.339,0.888,0.442,1.427,0.442h0.919l2.885-6.735h3.067l3.466,8.101v-8.101h3.117l3.598,5.965v-5.965h2.097V22.04
	L244.785,22.04z M177.169,23.722h3.498l0.789-1.902h1.766l0.787,1.902h6.882v-1.454l0.614,1.461h3.573l0.614-1.482v1.476h17.103
	l-0.008-3.123h0.331c0.232,0.008,0.299,0.029,0.299,0.412v2.711h8.846v-0.727c0.713,0.382,1.823,0.727,3.283,0.727h3.721
	l0.796-1.902h1.766l0.779,1.902h7.171v-1.807l1.086,1.807h5.747V11.778h-5.687v1.411l-0.796-1.411h-5.836v1.411l-0.731-1.411h-7.883
	c-1.319,0-2.479,0.184-3.416,0.697v-0.697h-5.44v0.697c-0.596-0.529-1.409-0.697-2.312-0.697h-19.873l-1.333,3.085l-1.369-3.085
	h-6.26v1.411l-0.688-1.411h-5.338l-2.479,5.679L177.169,23.722L177.169,23.722z"/>
<path fill="#FFFFFF" d="M250,30.039h-3.731c-0.372,0-0.62,0.014-0.828,0.155c-0.216,0.139-0.299,0.345-0.299,0.616
	c0,0.323,0.182,0.543,0.448,0.638c0.216,0.075,0.448,0.097,0.789,0.097l1.109,0.03c1.12,0.028,1.867,0.22,2.323,0.689
	c0.083,0.065,0.133,0.139,0.19,0.212 M250,35.687c-0.497,0.727-1.466,1.096-2.778,1.096h-3.953v-1.837h3.937
	c0.391,0,0.664-0.051,0.828-0.212c0.143-0.133,0.242-0.325,0.242-0.559c0-0.25-0.099-0.448-0.25-0.566
	c-0.149-0.131-0.365-0.19-0.721-0.19c-1.922-0.065-4.32,0.059-4.32-2.651c0-1.243,0.789-2.55,2.937-2.55H250v-1.704h-3.788
	c-1.143,0-1.974,0.274-2.562,0.7v-0.7h-5.604c-0.896,0-1.948,0.222-2.445,0.7v-0.7h-10.007v0.7c-0.796-0.574-2.14-0.7-2.76-0.7
	h-6.601v0.7c-0.63-0.61-2.031-0.7-2.885-0.7h-7.387l-1.69,1.829l-1.583-1.829h-11.035v11.953h10.827l1.742-1.858l1.641,1.858
	l6.674,0.006v-2.812h0.656c0.885,0.014,1.93-0.022,2.851-0.42v3.226h5.505V35.35h0.266c0.339,0,0.372,0.014,0.372,0.353v2.762
	h16.722c1.062,0,2.171-0.272,2.786-0.765v0.765h5.304c1.104,0,2.182-0.155,3.002-0.551L250,35.687L250,35.687z M241.834,32.265
	c0.399,0.413,0.612,0.933,0.612,1.815c0,1.843-1.151,2.703-3.216,2.703h-3.987v-1.837h3.971c0.388,0,0.664-0.051,0.836-0.212
	c0.141-0.133,0.242-0.325,0.242-0.559c0-0.25-0.109-0.448-0.25-0.566c-0.157-0.131-0.372-0.19-0.729-0.19
	c-1.914-0.065-4.312,0.059-4.312-2.651c0-1.243,0.781-2.55,2.927-2.55h4.104v1.823h-3.755c-0.372,0-0.614,0.014-0.82,0.155
	c-0.224,0.139-0.307,0.345-0.307,0.616c0,0.323,0.19,0.543,0.448,0.638c0.216,0.075,0.448,0.097,0.797,0.097l1.102,0.03
	C240.608,31.603,241.371,31.795,241.834,32.265z M223.363,31.736c-0.274,0.162-0.612,0.176-1.011,0.176h-2.487v-1.924h2.521
	c0.364,0,0.729,0.008,0.977,0.155c0.265,0.139,0.424,0.404,0.424,0.771C223.786,31.28,223.628,31.575,223.363,31.736z
	 M224.599,32.802c0.456,0.168,0.828,0.47,1.003,0.719c0.289,0.418,0.331,0.809,0.339,1.564v1.698h-2.055v-1.072
	c0-0.515,0.05-1.278-0.331-1.677c-0.299-0.307-0.755-0.38-1.502-0.38h-2.188v3.129h-2.057v-8.566h4.726
	c1.036,0,1.791,0.046,2.463,0.404c0.646,0.39,1.052,0.925,1.052,1.902C226.05,31.89,225.138,32.588,224.599,32.802z M227.185,28.216
	h6.832v1.772h-4.794v1.557h4.677v1.748h-4.677v1.704l4.794,0.008v1.777h-6.832V28.216z M213.373,32.17h-2.645v-2.181h2.669
	c0.739,0,1.252,0.301,1.252,1.05C214.649,31.779,214.16,32.17,213.373,32.17z M208.689,36.004l-3.143-3.489l3.143-3.379V36.004z
	 M200.573,34.998h-5.033v-1.704h4.494v-1.748h-4.494v-1.557h5.132l2.239,2.496L200.573,34.998z M216.847,31.039
	c0,2.38-1.775,2.871-3.565,2.871h-2.554v2.873h-3.979l-2.521-2.836l-2.62,2.836H193.5v-8.566h8.233l2.519,2.808l2.604-2.808h6.541
	C215.022,28.216,216.847,28.666,216.847,31.039z"/>
</svg>
